<?xml version="1.0" standalone="no"?>
<!DOCTYPE svg PUBLIC "-//W3C//DTD SVG 1.1//EN" "http://www.w3.org/Graphics/SVG/1.1/DTD/svg11.dtd" >
<svg xmlns="http://www.w3.org/2000/svg" xmlns:xlink="http://www.w3.org/1999/xlink" version="1.1">
<metadata>
Created by FontForge 20190801 at Sat Aug  8 00:53:41 2015
 By Jimmy Wärting
(c) 2015 Apple Inc. All rights reserved.
</metadata>
<defs>
<font id="SFUIText-Light" horiz-adv-x="0" >
  <font-face 
    font-family="SF UI Text"
    font-weight="300"
    font-stretch="normal"
    units-per-em="2048"
    panose-1="0 0 4 0 0 0 0 0 0 0"
    ascent="1638"
    descent="-410"
    x-height="1077"
    cap-height="1443"
    bbox="-561 -549 2661 2138"
    underline-thickness="95"
    underline-position="-369"
    unicode-range="U+0020-FB02"
  />
<missing-glyph horiz-adv-x="2048" 
d="M100 -494v308h1848v-308h-1848zM100 -67v308h1848v-308h-1848zM100 361v307h1848v-307h-1848zM100 788v307h1848v-307h-1848zM100 1215v308h1848v-308h-1848zM100 1642v308h1848v-308h-1848z" />
    <glyph glyph-name=".notdef" horiz-adv-x="2048" 
d="M100 -494v308h1848v-308h-1848zM100 -67v308h1848v-308h-1848zM100 361v307h1848v-307h-1848zM100 788v307h1848v-307h-1848zM100 1215v308h1848v-308h-1848zM100 1642v308h1848v-308h-1848z" />
    <glyph glyph-name=".null" 
 />
    <glyph glyph-name="nonmarkingreturn" 
 />
    <glyph glyph-name="space" unicode=" " horiz-adv-x="554" 
 />
    <glyph glyph-name="exclam" unicode="!" horiz-adv-x="617" 
d="M233 1444h150l-11 -987h-127zM192 101q0 51 33.5 84.5t83.5 33.5t83 -33.5t33 -84.5q0 -50 -33 -83.5t-83 -33.5t-83.5 33.5t-33.5 83.5z" />
    <glyph glyph-name="quotedbl" unicode="&#x22;" horiz-adv-x="802" 
d="M296 935h-123v508h123v-508zM629 935h-123v508h123v-508z" />
    <glyph glyph-name="numbersign" unicode="#" horiz-adv-x="1316" 
d="M1211 918h-238l-77 -381h234l-23 -111h-233l-88 -426h-112l88 426h-339l-88 -426h-111l87 426h-229l23 111h230l76 381h-225l22 110h226l86 417h111l-85 -417h339l86 417h112l-87 -417h238zM521 919l-76 -384h341l77 384h-342z" />
    <glyph glyph-name="dollar" unicode="$" horiz-adv-x="1321" 
d="M714 -150h-104v141q-203 13 -330.5 123.5t-129.5 276.5h130q8 -114 98.5 -191t231.5 -90v579l-55 15q-189 48 -279.5 139t-90.5 232q0 161 116 266.5t309 119.5v138h104v-137q186 -14 305.5 -120t123.5 -262h-130q-4 104 -88 178t-211 85v-544l59 -15q210 -52 304 -144
t94 -245q0 -172 -123.5 -280.5t-333.5 -122.5v-142zM1039 385q0 112 -76 178t-249 105v-560q148 7 236.5 82.5t88.5 194.5zM316 1082q0 -101 71 -163.5t223 -96.5v521q-127 -6 -210.5 -80t-83.5 -181z" />
    <glyph glyph-name="percent" unicode="%" horiz-adv-x="1610" 
d="M1212 79q78 0 126 66.5t48 174.5q0 109 -47 173.5t-127 64.5t-128 -65t-48 -173q0 -109 48.5 -175t127.5 -66zM1212 -21q-132 0 -215.5 95t-83.5 246q0 149 83.5 244t215.5 95q131 0 214 -94.5t83 -244.5q0 -151 -83 -246t-214 -95zM399 784q-131 0 -214.5 95t-83.5 246
q0 149 83.5 244t214.5 95t214.5 -94.5t83.5 -244.5q0 -151 -83.5 -246t-214.5 -95zM347 0h-143l551 746l514 697h141l-557 -756zM399 885q78 0 126 66t48 174q0 109 -47 174t-127 65q-79 0 -127 -65.5t-48 -173.5q0 -109 48 -174.5t127 -65.5z" />
    <glyph glyph-name="ampersand" unicode="&#x26;" horiz-adv-x="1472" 
d="M1233 0l-158 168q-93 -91 -219.5 -142t-259.5 -51q-209 0 -341.5 112.5t-132.5 289.5q0 243 281 392q5 3 38.5 20t38.5 20q-110 113 -153.5 191t-43.5 158q0 134 102.5 224t255.5 90t253.5 -89t100.5 -225q0 -109 -76.5 -198t-251.5 -179l400 -427q92 163 92 403v46h128
v-46q0 -299 -130 -495l248 -262h-172zM482 686q-111 -58 -167.5 -135t-56.5 -166q0 -128 97 -210.5t252 -82.5q107 0 212.5 45t172.5 118l-436 469q-3 -1 -19 -9.5t-33.5 -17.5t-21.5 -11zM592 859q147 73 210.5 142.5t63.5 151.5q0 91 -63.5 150t-161.5 59
q-96 0 -161.5 -60.5t-65.5 -150.5q0 -64 38.5 -127t139.5 -165z" />
    <glyph glyph-name="quotesingle" unicode="'" horiz-adv-x="469" 
d="M296 935h-123v508h123v-508z" />
    <glyph glyph-name="parenleft" unicode="(" horiz-adv-x="711" 
d="M577 -268h-119q-130 163 -200 388.5t-70 478.5q0 252 67 456.5t210 386.5h114q-115 -141 -185.5 -372.5t-70.5 -470.5q0 -457 254 -867z" />
    <glyph glyph-name="parenright" unicode=")" horiz-adv-x="711" 
d="M133 -268q254 410 254 867q0 240 -70 471t-185 372h115q142 -182 208.5 -386t66.5 -457q0 -252 -70 -477.5t-199 -389.5h-120z" />
    <glyph glyph-name="asterisk" unicode="*" horiz-adv-x="1052" 
d="M609 1076l261 -137l-53 -91l-249 157l11 -294h-106l11 294l-249 -157l-53 91l261 137l-261 138l53 92l249 -160l-11 297h106l-11 -297l249 160l53 -92z" />
    <glyph glyph-name="plus" unicode="+" horiz-adv-x="1321" 
d="M718 523v-456h-115v456h-444v114h444v448h115v-448h443v-114h-443z" />
    <glyph glyph-name="comma" unicode="," horiz-adv-x="593" 
d="M265 -339h-115l86 531h161z" />
    <glyph glyph-name="hyphen" unicode="-" horiz-adv-x="975" 
d="M815 520h-656v124h656v-124z" />
    <glyph glyph-name="hyphen" unicode="&#x2011;" horiz-adv-x="975" 
d="M815 520h-656v124h656v-124z" />
    <glyph glyph-name="period" unicode="." horiz-adv-x="593" 
d="M297 -10q-46 0 -78.5 32.5t-32.5 77.5q0 46 32.5 78t78.5 32q45 0 77.5 -32t32.5 -78q0 -45 -32.5 -77.5t-77.5 -32.5z" />
    <glyph glyph-name="slash" unicode="/" horiz-adv-x="695" 
d="M184 -327h-117l443 1770h118z" />
    <glyph glyph-name="zero" unicode="0" horiz-adv-x="1282" 
d="M642 -30q-241 0 -375.5 198.5t-134.5 553.5q0 352 135.5 551.5t374.5 199.5q238 0 372.5 -200t134.5 -553q0 -354 -134 -552t-373 -198zM642 90q176 0 273 166t97 466q0 298 -97.5 464t-272.5 166t-273.5 -166.5t-98.5 -463.5q0 -300 98 -466t274 -166z" />
    <glyph glyph-name="one" unicode="1" horiz-adv-x="913" 
d="M503 0v1293h-13q-20 -12 -188.5 -129.5t-187.5 -130.5v145q6 4 96 67t178.5 123.5t114.5 76.5h136v-1445h-136z" />
    <glyph glyph-name="two" unicode="2" horiz-adv-x="1222" 
d="M152 1045q1 123 59.5 221t161.5 152.5t232 54.5q190 0 319 -115.5t129 -285.5q0 -112 -64 -221t-242 -299l-390 -416v-12h732v-124h-929v96l504 545q151 162 201.5 247.5t50.5 178.5q0 121 -90.5 203.5t-223.5 82.5q-139 0 -227 -85.5t-90 -222.5v-1h-133v1z" />
    <glyph glyph-name="three" unicode="3" horiz-adv-x="1260" 
d="M443 686v118h169q140 0 227.5 77.5t87.5 201.5q0 118 -87 194t-221 76t-221.5 -73.5t-97.5 -196.5h-133q12 177 136.5 283.5t320.5 106.5q184 0 313 -109t129 -265q0 -131 -71 -220.5t-197 -117.5v-13q155 -17 244.5 -113.5t89.5 -244.5q0 -178 -145 -299t-357 -121
q-209 0 -347.5 112t-145.5 287h132q9 -122 110.5 -200.5t249.5 -78.5q157 0 259.5 86t102.5 217q0 136 -100 214.5t-273 78.5h-175z" />
    <glyph glyph-name="four" unicode="4" horiz-adv-x="1312" 
d="M844 0v326h-725v125q223 377 662 994h196v-996h216v-123h-216v-326h-133zM262 457v-9h582v866h-9q-192 -262 -318 -452t-255 -405z" />
    <glyph glyph-name="five" unicode="5" horiz-adv-x="1256" 
d="M629 -30q-197 0 -331.5 113.5t-145.5 289.5h134q11 -121 109 -201.5t235 -80.5q158 0 260 102t102 261t-101.5 261t-257.5 102q-106 0 -194.5 -48.5t-134.5 -131.5h-130l78 806h787v-123h-679l-48 -526h13q52 68 138 105t192 37q208 0 341 -134.5t133 -343.5
q0 -214 -140 -351t-360 -137z" />
    <glyph glyph-name="six" unicode="6" horiz-adv-x="1288" 
d="M665 -29q-146 0 -258.5 70.5t-180.5 204.5q-96 170 -96 445q0 368 144 575t401 207q179 0 304.5 -100t156.5 -269h-140q-27 113 -114.5 179.5t-208.5 66.5q-194 0 -301 -174.5t-109 -495.5h12q47 122 158.5 194t252.5 72q205 0 340.5 -136.5t135.5 -343.5
q0 -215 -140.5 -355t-356.5 -140zM663 92q154 0 257.5 106t103.5 263q0 160 -101.5 263t-258.5 103q-155 0 -260 -102.5t-105 -253.5q0 -161 104.5 -270t259.5 -109z" />
    <glyph glyph-name="seven" unicode="7" horiz-adv-x="1161" 
d="M240 0l667 1309v11h-800v123h940v-128l-661 -1315h-146z" />
    <glyph glyph-name="eight" unicode="8" horiz-adv-x="1294" 
d="M647 -30q-226 0 -368.5 117t-142.5 302q0 140 86.5 242t228.5 127v12q-118 28 -188.5 115.5t-70.5 205.5q0 167 128 274.5t327 107.5q200 0 327.5 -107t127.5 -275q0 -118 -70 -205.5t-188 -115.5v-12q141 -26 228 -127.5t87 -241.5q0 -186 -142.5 -302.5t-369.5 -116.5z
M647 88q166 0 270 86.5t104 223.5q0 134 -103.5 217.5t-270.5 83.5q-166 0 -269.5 -83.5t-103.5 -217.5q0 -137 103.5 -223.5t269.5 -86.5zM647 817q143 0 231.5 72.5t88.5 190.5q0 122 -89 198.5t-231 76.5t-231 -76.5t-89 -198.5q0 -117 89 -190t231 -73z" />
    <glyph glyph-name="nine" unicode="9" horiz-adv-x="1288" 
d="M613 -29q-181 0 -305.5 100t-155.5 268h140q27 -112 113.5 -179t209.5 -67q190 0 296 166.5t114 470.5q1 6 -2.5 18t-3.5 15h-3h-3q-47 -120 -158.5 -192.5t-252.5 -72.5q-207 0 -341.5 135.5t-134.5 342.5q0 216 140.5 356.5t356.5 140.5q146 0 258.5 -71.5
t180.5 -205.5q96 -168 96 -444q0 -368 -143.5 -574.5t-401.5 -206.5zM624 617q155 0 260 102.5t105 252.5q0 161 -104.5 270.5t-259.5 109.5q-154 0 -257.5 -107t-103.5 -265t101 -260.5t259 -102.5z" />
    <glyph glyph-name="colon" unicode=":" horiz-adv-x="593" 
d="M297 -10q-46 0 -78.5 32.5t-32.5 77.5q0 46 32.5 78t78.5 32q45 0 77.5 -32t32.5 -78q0 -45 -32.5 -77.5t-77.5 -32.5zM297 763q-46 0 -78.5 32.5t-32.5 78.5t32.5 78t78.5 32q45 0 77.5 -32t32.5 -78t-32.5 -78.5t-77.5 -32.5z" />
    <glyph glyph-name="semicolon" unicode=";" horiz-adv-x="593" 
d="M248 -339h-115l85 531h162zM297 763q-46 0 -78.5 32.5t-32.5 78.5t32.5 78t78.5 32q45 0 77.5 -32t32.5 -78t-32.5 -78.5t-77.5 -32.5z" />
    <glyph glyph-name="less" unicode="&#x3c;" horiz-adv-x="1321" 
d="M1093 134v-143l-865 531v109l865 531v-143l-733 -437v-12z" />
    <glyph glyph-name="equal" unicode="=" horiz-adv-x="1321" 
d="M1158 331h-995v115h995v-115zM1158 714h-995v115h995v-115z" />
    <glyph glyph-name="greater" unicode="&#x3e;" horiz-adv-x="1321" 
d="M228 134l732 436v12l-732 437v143l865 -531v-109l-865 -531v143z" />
    <glyph glyph-name="question" unicode="?" horiz-adv-x="1020" 
d="M82 1079q9 165 120 271t299 106q179 0 294.5 -102t115.5 -256q0 -108 -52.5 -190.5t-158.5 -150.5q-98 -63 -133 -115.5t-35 -136.5v-75h-133v94q-1 99 45 169t153 138q95 62 134 120.5t39 140.5q0 107 -77 176t-197 69t-197 -70t-87 -188h-130zM478 -16q-51 0 -84 33.5
t-33 83.5q0 51 33 84.5t84 33.5q50 0 83 -33.5t33 -84.5q0 -50 -33 -83.5t-83 -33.5z" />
    <glyph glyph-name="at" unicode="@" horiz-adv-x="1871" 
d="M929 906q-110 0 -176.5 -85.5t-66.5 -226.5q0 -142 66 -226t176 -84q111 0 177 86t66 229q0 141 -65.5 224t-176.5 83zM961 1434q233 0 415.5 -94t283.5 -263.5t101 -386.5q0 -242 -94 -382t-257 -140q-93 0 -155.5 51t-70.5 133h-13q-34 -85 -101 -131t-158 -46
q-155 0 -252 117t-97 305q0 184 97.5 300t251.5 116q84 0 152 -44t96 -117h13v141h116v-575q0 -72 36.5 -110t104.5 -38q103 0 162 113t59 309q0 188 -88 334.5t-247 227.5t-364 81q-151 0 -282 -55t-224 -152t-146 -233.5t-53 -294.5q0 -331 199 -532t526 -201
q223 0 332 44v-99q-132 -44 -333 -44q-378 0 -605.5 228.5t-227.5 607.5q0 242 104 431t291.5 294t427.5 105z" />
    <glyph glyph-name="A" unicode="A" horiz-adv-x="1363" 
d="M1145 0l-160 442h-606l-160 -442h-145l540 1443h136l539 -1443h-144zM675 1264l-255 -704h524l-256 704h-13z" />
    <glyph glyph-name="B" unicode="B" horiz-adv-x="1319" 
d="M715 0h-530v1443h519q199 0 314 -95.5t115 -260.5q0 -121 -74 -209.5t-190 -108.5v-13q153 -17 245.5 -113t92.5 -244q0 -189 -129 -294t-363 -105zM322 1322v-515h323q168 0 259 66.5t91 191.5q0 121 -84.5 189t-232.5 68h-356zM322 121h374q181 0 276 73t95 212
q0 137 -100 209.5t-288 72.5h-357v-567z" />
    <glyph glyph-name="C" unicode="C" horiz-adv-x="1455" 
d="M763 -30q-294 0 -465 202t-171 549t171 549.5t464 202.5q147 0 271.5 -60.5t205 -168t99.5 -242.5h-139q-31 153 -152.5 248.5t-284.5 95.5q-227 0 -361 -169.5t-134 -455.5q0 -287 134 -455.5t362 -168.5q167 0 286.5 86t149.5 228h139q-31 -199 -188.5 -320
t-386.5 -121z" />
    <glyph glyph-name="D" unicode="D" horiz-adv-x="1471" 
d="M185 1443h475q327 0 506 -191t179 -530q0 -340 -178.5 -531t-506.5 -191h-475v1443zM322 1319v-1195h330q263 0 408 158t145 439t-145 439.5t-408 158.5h-330z" />
    <glyph glyph-name="E" unicode="E" horiz-adv-x="1197" 
d="M1057 124v-124h-872v1443h872v-124h-735v-519h698v-122h-698v-554h735z" />
    <glyph glyph-name="F" unicode="F" horiz-adv-x="1155" 
d="M322 0h-137v1443h856v-124h-719v-542h661v-122h-661v-655z" />
    <glyph glyph-name="G" unicode="G" horiz-adv-x="1506" 
d="M1375 559q0 -268 -164 -428.5t-438 -160.5q-293 0 -469.5 205.5t-176.5 546.5q0 339 176 545t467 206q231 0 391.5 -123t199.5 -329h-139q-45 155 -163 240t-289 85q-229 0 -366 -170t-137 -454q0 -285 137.5 -455t368.5 -170q212 0 339 123.5t127 327.5v50h-440v121h576
v-160z" />
    <glyph glyph-name="H" unicode="H" horiz-adv-x="1488" 
d="M1303 0h-137v677h-844v-677h-137v1443h137v-642h844v642h137v-1443z" />
    <glyph glyph-name="I" unicode="I" horiz-adv-x="507" 
d="M322 0h-137v1443h137v-1443z" />
    <glyph glyph-name="J" unicode="J" horiz-adv-x="1088" 
d="M92 330h136q5 -103 78 -168t186 -65q131 0 202.5 78.5t71.5 222.5v1045h137v-1050q0 -197 -110 -310t-300 -113q-175 0 -287.5 100.5t-113.5 259.5z" />
    <glyph glyph-name="K" unicode="K" horiz-adv-x="1311" 
d="M322 0h-137v1443h137v-746h12l683 746h171l-578 -623l637 -820h-177l-555 725l-193 -210v-515z" />
    <glyph glyph-name="L" unicode="L" horiz-adv-x="1139" 
d="M1044 124v-124h-859v1443h137v-1319h722z" />
    <glyph glyph-name="M" unicode="M" horiz-adv-x="1761" 
d="M314 0h-129v1443h157l533 -1256h12l531 1256h158v-1443h-128v1177h-10l-498 -1170h-119l-498 1170h-9v-1177z" />
    <glyph glyph-name="N" unicode="N" horiz-adv-x="1494" 
d="M320 0h-135v1443h135l841 -1198h13v1198h135v-1443h-132l-844 1199h-13v-1199z" />
    <glyph glyph-name="O" unicode="O" horiz-adv-x="1561" 
d="M781 1473q303 0 477.5 -202t174.5 -549t-174.5 -549.5t-477.5 -202.5q-304 0 -479 202.5t-175 549.5q0 346 176 548.5t478 202.5zM781 1346q-236 0 -375 -168.5t-139 -455.5q0 -286 138 -455.5t376 -169.5q237 0 374.5 169.5t137.5 455.5q0 287 -137.5 455.5
t-374.5 168.5z" />
    <glyph glyph-name="P" unicode="P" horiz-adv-x="1272" 
d="M185 1443h513q207 0 334.5 -125t127.5 -327q0 -199 -129 -323t-335 -124h-374v-544h-137v1443zM322 1321v-655h343q167 0 261.5 86.5t94.5 238.5q0 156 -93.5 243t-262.5 87h-343z" />
    <glyph glyph-name="Q" unicode="Q" horiz-adv-x="1561" 
d="M1346 -169h-154l-140 191q-122 -52 -271 -52q-304 0 -479 201t-175 550q0 348 176 550t478 202q301 0 476.5 -202.5t175.5 -549.5q0 -219 -70 -384t-200 -253zM782 97q104 0 192 35l-194 263h155l148 -198q101 73 155.5 208.5t54.5 315.5q0 287 -138.5 456t-373.5 169
q-236 0 -375 -169t-139 -456q0 -288 139 -456t376 -168z" />
    <glyph glyph-name="R" unicode="R" horiz-adv-x="1309" 
d="M322 1321v-608h369q157 0 244.5 80t87.5 224q0 142 -90 223t-248 81h-363zM322 591v-591h-137v1443h517q211 0 336 -114.5t125 -307.5q0 -153 -82 -261.5t-227 -146.5l350 -613h-160l-332 591h-21h-369z" />
    <glyph glyph-name="S" unicode="S" horiz-adv-x="1284" 
d="M115 375h138q14 -124 126.5 -202t277.5 -78q161 0 266 80t105 201q0 102 -77.5 170t-244.5 109l-165 42q-203 50 -294 139.5t-91 236.5q0 176 137.5 288t356.5 112q206 0 345 -108.5t150 -274.5h-138q-17 116 -114.5 187t-246.5 71q-155 0 -252.5 -76.5t-97.5 -194.5
q0 -94 72 -153.5t237 -100.5l143 -36q223 -55 321.5 -148.5t98.5 -247.5q0 -189 -143.5 -305t-379.5 -116q-224 0 -370.5 112t-159.5 293z" />
    <glyph glyph-name="T" unicode="T" horiz-adv-x="1280" 
d="M708 0h-136v1319h-484v124h1104v-124h-484v-1319z" />
    <glyph glyph-name="U" unicode="U" horiz-adv-x="1494" 
d="M325 1443v-934q0 -183 114 -296t308 -113t308 113t114 296v934h137v-943q0 -237 -151 -381.5t-408 -144.5q-256 0 -407 144.5t-151 381.5v943h136z" />
    <glyph glyph-name="V" unicode="V" horiz-adv-x="1363" 
d="M750 0h-136l-540 1443h144l457 -1264h13l457 1264h144z" />
    <glyph glyph-name="W" unicode="W" horiz-adv-x="1956" 
d="M973 1205l-354 -1205h-127l-397 1443h142l317 -1230h9l347 1230h136l347 -1230h9l317 1230h142l-397 -1443h-127l-354 1205h-10z" />
    <glyph glyph-name="X" unicode="X" horiz-adv-x="1366" 
d="M95 0l504 724l-500 719h165l418 -609h11l422 609h156l-508 -724l500 -719h-164l-416 606h-11l-421 -606h-156z" />
    <glyph glyph-name="Y" unicode="Y" horiz-adv-x="1321" 
d="M729 0h-136v624l-518 819h157l423 -680h12l423 680h156l-517 -819v-624z" />
    <glyph glyph-name="Z" unicode="Z" horiz-adv-x="1328" 
d="M138 0v99l863 1208v12h-834v124h1011v-100l-860 -1207v-12h872v-124h-1052z" />
    <glyph glyph-name="bracketleft" unicode="[" horiz-adv-x="733" 
d="M188 1444h417v-106h-288v-1472h301v-104h-430v1682z" />
    <glyph glyph-name="backslash" unicode="\" horiz-adv-x="695" 
d="M512 -327l-445 1770h118l443 -1770h-116z" />
    <glyph glyph-name="bracketright" unicode="]" horiz-adv-x="733" 
d="M544 1444v-1682h-429v104h302v1472h-289v106h416z" />
    <glyph glyph-name="asciicircum" unicode="^" horiz-adv-x="947" 
d="M468 1302l-236 -508h-126l298 622h140l298 -622h-127l-235 508h-12z" />
    <glyph glyph-name="underscore" unicode="_" horiz-adv-x="919" 
d="M927 -222h-935v100h935v-100z" />
    <glyph glyph-name="grave" unicode="`" horiz-adv-x="999" 
d="M709 1267h-149l-269 327h168z" />
    <glyph glyph-name="a" unicode="a" horiz-adv-x="1125" 
d="M491 98q145 0 242.5 87.5t97.5 215.5v126l-319 -23q-271 -19 -271 -204q0 -92 70 -147t180 -55zM469 -18q-160 0 -261.5 86.5t-101.5 229.5q0 140 100 220.5t288 93.5l337 22v104q0 116 -68.5 178t-199.5 62q-111 0 -186.5 -44.5t-94.5 -122.5h-133q19 128 133.5 206
t284.5 78q189 0 292.5 -93.5t103.5 -262.5v-739h-126v185h-12q-49 -96 -143 -149.5t-213 -53.5z" />
    <glyph glyph-name="b" unicode="b" horiz-adv-x="1252" 
d="M685 -18q-124 0 -222 62t-146 171h-13v-215h-125v1506h131v-638h12q45 105 143 166t220 61q205 0 329 -152t124 -404q0 -251 -124.5 -404t-328.5 -153zM658 977q-159 0 -255 -119.5t-96 -318.5t96 -318.5t255 -119.5t252 118.5t93 320.5q0 201 -93 319t-252 118z" />
    <glyph glyph-name="c" unicode="c" horiz-adv-x="1145" 
d="M1042 760h-133q-26 96 -107.5 156.5t-201.5 60.5q-161 0 -255.5 -118t-94.5 -317q0 -202 95 -321.5t255 -119.5q120 0 201.5 55t106.5 154h133q-25 -148 -142 -238t-298 -90q-223 0 -354.5 151.5t-131.5 408.5q0 253 131.5 403t353.5 150q180 0 298.5 -94.5t143.5 -240.5
z" />
    <glyph glyph-name="d" unicode="d" horiz-adv-x="1256" 
d="M571 -18q-206 0 -331 152.5t-125 403.5q0 250 125.5 403.5t330.5 153.5q123 0 220 -61t143 -167h12v639h131v-1506h-126v215h-12q-48 -108 -146.5 -170.5t-221.5 -62.5zM599 977q-160 0 -254.5 -119t-94.5 -319q0 -201 94.5 -319.5t254.5 -118.5q159 0 254 119t95 319
q0 198 -95.5 318t-253.5 120z" />
    <glyph glyph-name="e" unicode="e" horiz-adv-x="1174" 
d="M595 979q-147 0 -241 -100.5t-103 -266.5h671q-2 167 -91.5 267t-235.5 100zM909 266h133q-40 -132 -158 -208t-287 -76q-222 0 -352 150.5t-130 405.5q0 254 130.5 405.5t350.5 151.5q215 0 339 -143t124 -390v-58h-809v-6q5 -183 99.5 -291t250.5 -108q114 0 194 43.5
t115 123.5z" />
    <glyph glyph-name="f" unicode="f" horiz-adv-x="718" 
d="M241 0v966h-179v111h179v119q0 297 297 297q45 0 98 -10v-111q-37 9 -91 9q-84 0 -128.5 -47t-44.5 -141v-116h254v-111h-254v-966h-131z" />
    <glyph glyph-name="g" unicode="g" horiz-adv-x="1242" 
d="M945 550q0 193 -95.5 310t-254.5 117q-160 0 -252.5 -115.5t-92.5 -309.5q0 -193 92.5 -308.5t252.5 -115.5q161 0 255.5 115t94.5 307zM606 -404q-184 0 -301 75.5t-138 202.5h139q18 -75 98 -119t202 -44q156 0 246.5 76t90.5 207v242h-13q-48 -107 -142.5 -166
t-218.5 -59q-207 0 -330.5 148.5t-123.5 392.5t124 393.5t330 149.5q123 0 223 -63t144 -168h12v213h126v-1093q0 -176 -128 -282t-340 -106z" />
    <glyph glyph-name="h" unicode="h" horiz-adv-x="1210" 
d="M179 0v1506h131v-623h12q44 101 135 156.5t219 55.5q174 0 274 -104.5t100 -290.5v-700h-131v667q0 152 -71.5 231t-206.5 79q-151 0 -241 -93.5t-90 -243.5v-640h-131z" />
    <glyph glyph-name="i" unicode="i" horiz-adv-x="480" 
d="M175 0v1077h131v-1077h-131zM240 1317q-40 0 -68.5 29t-28.5 69t28.5 68.5t68.5 28.5t69 -28.5t29 -68.5q0 -41 -29 -69.5t-69 -28.5z" />
    <glyph glyph-name="j" unicode="j" horiz-adv-x="480" 
d="M306 1077v-1145q0 -156 -74.5 -227.5t-228.5 -71.5h-24v113h21q94 0 134.5 42.5t40.5 139.5v1149h131zM240 1317q-40 0 -68.5 29t-28.5 69t28.5 68.5t68.5 28.5t69 -28.5t29 -68.5q0 -41 -29 -69.5t-69 -28.5z" />
    <glyph glyph-name="k" unicode="k" horiz-adv-x="1092" 
d="M322 573l526 504h164l-481 -462l503 -615h-168l-434 531l-122 -113v-418h-131v1506h131v-933h12z" />
    <glyph glyph-name="l" unicode="l" horiz-adv-x="489" 
d="M179 0v1506h131v-1506h-131z" />
    <glyph glyph-name="m" unicode="m" horiz-adv-x="1772" 
d="M169 0v1077h125v-194h13q35 99 117.5 155.5t193.5 56.5t190.5 -56.5t114.5 -155.5h13q42 98 131.5 155t204.5 57q162 0 251.5 -93.5t89.5 -264.5v-737h-131v707q0 132 -63.5 201t-185.5 69q-123 0 -200 -83.5t-77 -210.5v-683h-131v721q0 116 -68 186t-180 70
q-117 0 -197 -92t-80 -224v-661h-131z" />
    <glyph glyph-name="n" unicode="n" horiz-adv-x="1192" 
d="M169 0v1077h125v-194h13q43 101 132 156.5t216 55.5q180 0 278.5 -103.5t98.5 -291.5v-700h-131v667q0 310 -281 310q-143 0 -231.5 -92.5t-88.5 -244.5v-640h-131z" />
    <glyph glyph-name="o" unicode="o" horiz-adv-x="1208" 
d="M604 101q166 0 260 116.5t94 321.5t-94 321.5t-260 116.5t-260 -116.5t-94 -321.5t94 -321.5t260 -116.5zM604 -18q-226 0 -357.5 149.5t-131.5 407.5t131.5 407t357.5 149t358 -149t132 -407t-132 -407.5t-358 -149.5z" />
    <glyph glyph-name="p" unicode="p" horiz-adv-x="1242" 
d="M675 1095q205 0 329 -152.5t124 -403.5t-124.5 -404t-328.5 -153q-125 0 -221.5 59.5t-141.5 163.5h-12v-562h-131v1434h125v-220h12q50 111 148 174.5t221 63.5zM646 101q160 0 253.5 118t93.5 319q0 202 -93.5 320.5t-252.5 118.5q-158 0 -254.5 -120t-96.5 -318
t96 -318t254 -120z" />
    <glyph glyph-name="q" unicode="q" horiz-adv-x="1246" 
d="M570 1095q122 0 221.5 -64.5t146.5 -173.5h12v220h127v-1434h-133v562h-12q-50 -106 -144.5 -164.5t-217.5 -58.5q-205 0 -330 153t-125 404q0 250 125 403t330 153zM596 101q160 0 256 119.5t96 318.5q0 198 -96 318t-255 120t-253 -119t-94 -319q0 -201 93.5 -319.5
t252.5 -118.5z" />
    <glyph glyph-name="r" unicode="r" horiz-adv-x="764" 
d="M169 0v1077h125v-177h13q27 88 110 141.5t190 53.5q64 0 101 -9v-131q-45 13 -117 13q-125 0 -208 -84.5t-83 -211.5v-672h-131z" />
    <glyph glyph-name="s" unicode="s" horiz-adv-x="1058" 
d="M144 792q0 129 112.5 216t276.5 87q163 0 270 -75.5t125 -203.5h-129q-18 76 -89.5 121.5t-177.5 45.5q-107 0 -181.5 -53t-74.5 -133q0 -66 52 -107t162 -67l148 -35q159 -38 234 -106.5t75 -183.5q0 -138 -119 -227t-297 -89q-176 0 -290 77.5t-130 210.5h136
q22 -82 97 -129t191 -47q119 0 198 55t79 139q0 70 -51 113.5t-160 69.5l-163 39q-152 37 -223 103.5t-71 178.5z" />
    <glyph glyph-name="t" unicode="t" horiz-adv-x="724" 
d="M237 1357h131v-280h249v-111h-249v-668q0 -99 40 -143.5t131 -44.5q45 0 78 3v-112q-40 -7 -92 -7q-155 0 -221.5 63.5t-66.5 210.5v698h-176v111h176v280z" />
    <glyph glyph-name="u" unicode="u" horiz-adv-x="1193" 
d="M1024 1077v-1077h-125v194h-12q-41 -101 -132 -156.5t-219 -55.5q-179 0 -277.5 104.5t-98.5 290.5v700h131v-667q0 -151 70.5 -229.5t208.5 -78.5q150 0 236.5 90.5t86.5 244.5v640h131z" />
    <glyph glyph-name="v" unicode="v" horiz-adv-x="1078" 
d="M67 1077h140l326 -934h12l325 934h141l-402 -1077h-140z" />
    <glyph glyph-name="w" unicode="w" horiz-adv-x="1566" 
d="M1499 1077l-307 -1077h-139l-265 894h-13l-265 -894h-138l-305 1077h133l239 -914h12l266 914h131l266 -914h12l241 914h132z" />
    <glyph glyph-name="x" unicode="x" horiz-adv-x="1049" 
d="M529 440h-12l-294 -440h-150l380 542l-383 535h158l293 -430h12l291 430h151l-378 -530l382 -547h-157z" />
    <glyph glyph-name="y" unicode="y" horiz-adv-x="1079" 
d="M245 -381q-27 0 -61 4v114q20 -4 59 -4q74 0 120 43t86 150l22 67l-404 1084h142l326 -934h12l325 934h140l-419 -1129q-72 -194 -144 -261.5t-204 -67.5z" />
    <glyph glyph-name="z" unicode="z" horiz-adv-x="1082" 
d="M131 0v100l660 854v12h-659v111h816v-101l-658 -853v-12h660v-111h-819z" />
    <glyph glyph-name="braceleft" unicode="{" horiz-adv-x="809" 
d="M260 611q174 -16 174 -237v-360q0 -119 58 -174.5t183 -55.5h54v-109h-56q-188 0 -276 82t-88 258v309q0 121 -39 168.5t-138 47.5v158q98 0 137.5 48.5t39.5 169.5v268q0 172 87 251.5t277 79.5h56v-109h-54q-127 0 -184 -54.5t-57 -176.5v-313q0 -216 -174 -234v-17z
" />
    <glyph glyph-name="bar" unicode="|" horiz-adv-x="661" 
d="M388 -328h-115v1771h115v-1771z" />
    <glyph glyph-name="braceright" unicode="}" horiz-adv-x="809" 
d="M550 611v17q-175 18 -175 234v313q0 122 -56.5 176.5t-184.5 54.5h-53v109h56q189 0 276.5 -79.5t87.5 -251.5v-268q0 -122 39 -170t137 -48v-158q-98 0 -137 -47.5t-39 -168.5v-309q0 -176 -88 -258t-276 -82h-56v109h53q125 0 183 55.5t58 174.5v360q0 221 175 237z
" />
    <glyph glyph-name="asciitilde" unicode="~" horiz-adv-x="1204" 
d="M564 650q-61 60 -98.5 82.5t-74.5 22.5q-67 0 -106.5 -51.5t-44.5 -144.5h-123q0 148 74.5 235t202.5 87q60 0 114.5 -28.5t125.5 -96.5q58 -57 98 -80.5t78 -23.5q68 0 110 53t47 147h122q1 -147 -76.5 -236.5t-204.5 -89.5q-64 0 -118.5 28t-125.5 96z" />
    <glyph glyph-name="nonbreakingspace" unicode="&#xa0;" horiz-adv-x="554" 
 />
    <glyph glyph-name="exclamdown" unicode="&#xa1;" horiz-adv-x="617" 
d="M233 -340l12 986h127l11 -986h-150zM192 1002q0 51 33.5 84t83.5 33t83 -33t33 -84t-33 -84t-83 -33t-83.5 33t-33.5 84z" />
    <glyph glyph-name="cent" unicode="&#xa2;" horiz-adv-x="1321" 
d="M1156 483q-24 -135 -135 -222.5t-274 -102.5v-187h-131v189q-200 22 -326 172t-126 383q0 230 126 378t326 170v183h131v-182q159 -17 273 -108.5t137 -223.5h-133q-32 99 -124 158t-217 59q-165 0 -274.5 -119.5t-109.5 -314.5q0 -198 110 -320t274 -122q135 0 225.5 57
t114.5 153h133z" />
    <glyph glyph-name="sterling" unicode="&#xa3;" horiz-adv-x="1321" 
d="M1188 118v-118h-1063v116q143 36 235.5 134t92.5 225q0 86 -33 190h-280v112h241q-26 70 -37 102t-24 91.5t-13 109.5q0 182 134 289t358 107q164 0 309 -51v-122q-138 51 -302 51q-163 0 -261.5 -75t-98.5 -197q0 -53 12 -111t24 -94t36 -100h467v-112h-429
q32 -103 32 -185q0 -110 -62 -203t-168 -147v-12h830z" />
    <glyph glyph-name="currency" unicode="&#xa4;" horiz-adv-x="1321" 
d="M375 656q0 -118 84 -202t202 -84t202 84t84 202t-84 202t-202 84t-202 -84t-84 -202zM1139 1052l-167 -168q75 -102 75 -228q0 -128 -76 -229l168 -168l-82 -82l-168 168q-102 -75 -228 -75q-127 0 -228 76l-169 -169l-82 82l168 169q-75 102 -75 228t75 228l-168 168
l82 82l168 -168q101 76 229 76q127 0 228 -76l168 168z" />
    <glyph glyph-name="yen" unicode="&#xa5;" horiz-adv-x="1321" 
d="M1033 310h-304v-310h-137v310h-304v105h304v184h-304v106h259l-472 738h156l423 -670h13l423 670h156l-472 -738h259v-106h-304v-184h304v-105z" />
    <glyph glyph-name="brokenbar" unicode="&#xa6;" horiz-adv-x="661" 
d="M388 765h-115v678h115v-678zM388 -328h-115v680h115v-680z" />
    <glyph glyph-name="section" unicode="&#xa7;" horiz-adv-x="1037" 
d="M459 380l81 -18q108 1 179 61t71 149q0 147 -211 193l-81 18q-107 -1 -179 -61.5t-72 -148.5q0 -145 212 -193zM524 -250q-167 0 -278 79.5t-122 207.5h134q11 -78 86 -126t186 -48q113 0 184.5 51t71.5 131q0 67 -53 110.5t-169 72.5l-129 33q-167 43 -245 112.5
t-78 175.5q0 99 64 169t178 97v12q-230 79 -230 268q0 133 108 216.5t279 83.5q164 0 270 -75.5t123 -203.5h-132q-12 76 -83.5 121.5t-179.5 45.5q-112 0 -182.5 -50.5t-70.5 -130.5q0 -67 52.5 -111t167.5 -73l129 -34q166 -42 243 -110t77 -172t-72.5 -181t-190.5 -99
v-12q254 -60 254 -257q0 -133 -110 -218t-282 -85z" />
    <glyph glyph-name="dieresis" unicode="&#xa8;" horiz-adv-x="998" 
d="M317 1252q-42 0 -72 29.5t-30 72.5t30 72.5t72 29.5q43 0 72.5 -29.5t29.5 -72.5t-29.5 -72.5t-72.5 -29.5zM681 1252q-42 0 -72 29.5t-30 72.5t30 72.5t72 29.5q43 0 72.5 -29.5t29.5 -72.5t-29.5 -72.5t-72.5 -29.5z" />
    <glyph glyph-name="copyright" unicode="&#xa9;" horiz-adv-x="1742" 
d="M871 -158q-163 0 -308 60.5t-249 164.5t-165 249.5t-61 309.5t60.5 310t164.5 250t249.5 164t308.5 60q164 0 309 -60t249 -164t164.5 -249.5t60.5 -310.5q0 -164 -60.5 -309.5t-164.5 -249.5t-249 -164.5t-309 -60.5zM871 -49q141 0 265.5 52t214 141.5t141.5 214.5
t52 267t-52 267.5t-141 215t-214 141t-266 51.5t-265.5 -51.5t-214 -141t-141.5 -215t-52 -267.5q0 -189 88.5 -344t243 -243t341.5 -88zM1238 780h-108q-21 79 -88 127t-162 48q-128 0 -206 -87.5t-78 -237.5q0 -152 78 -241.5t206 -89.5q100 0 165 45.5t84 123.5h109
q-21 -122 -117 -194t-240 -72q-178 0 -286.5 116t-108.5 312q0 194 108 308.5t286 114.5q141 0 239 -76.5t119 -196.5z" />
    <glyph glyph-name="ordfeminine" unicode="&#xaa;" horiz-adv-x="957" 
d="M437 638q112 0 189 68.5t77 169.5v114l-250 -19q-216 -17 -216 -167q0 -75 55 -120.5t145 -45.5zM403 532q-132 0 -213.5 74t-81.5 194q0 118 84.5 186.5t243.5 78.5l265 18v83q0 87 -58.5 136t-161.5 49q-86 0 -143 -36t-69 -98h-126q13 112 105.5 177.5t236.5 65.5
q159 0 249.5 -79.5t90.5 -218.5v-609h-119v142h-12q-38 -76 -115.5 -119.5t-175.5 -43.5z" />
    <glyph glyph-name="guillemotleft" unicode="&#xab;" horiz-adv-x="1363" 
d="M795 572v-13l357 -410h-158l-358 414v6l359 414h157zM344 572v-13l357 -410h-157l-359 414v6l359 414h157z" />
    <glyph glyph-name="logicalnot" unicode="&#xac;" horiz-adv-x="1321" 
d="M1137 677v-532h-114v418h-840v114h954z" />
    <glyph glyph-name="registered" unicode="&#xae;" horiz-adv-x="1260" 
d="M630 459q-141 0 -259.5 68.5t-187 187t-68.5 260.5t68.5 260.5t187 186.5t259.5 68q106 0 201.5 -40.5t164 -109t109 -164t40.5 -201.5q0 -142 -68 -260.5t-186.5 -187t-260.5 -68.5zM630 543q181 0 306 125.5t125 306.5t-125 306t-306 125t-306 -125t-125 -306
t125 -306.5t306 -125.5zM517 729h-80v515h232q77 0 126.5 -44t49.5 -114q0 -61 -33 -100.5t-89 -51.5l145 -205h-98l-138 194h-115v-194zM517 1171v-178h130q110 0 110 91q0 41 -27.5 64t-80.5 23h-132z" />
    <glyph glyph-name="macron" unicode="&#xaf;" horiz-adv-x="986" 
d="M824 1292h-662v106h662v-106z" />
    <glyph glyph-name="degree" unicode="&#xb0;" horiz-adv-x="859" 
d="M429 841q-133 0 -221.5 90t-88.5 221q0 130 89 220.5t221 90.5t221.5 -90.5t89.5 -220.5q0 -131 -89 -221t-222 -90zM429 941q91 0 151 62t60 149q0 88 -60 149t-151 61q-90 0 -149.5 -61t-59.5 -149q0 -87 59 -149t150 -62z" />
    <glyph glyph-name="plusminus" unicode="&#xb1;" horiz-adv-x="1321" 
d="M1161 112h-1002v114h1002v-114zM718 671v-317h-115v317h-444v105h444v309h115v-309h443v-105h-443z" />
    <glyph glyph-name="two.sups" unicode="&#xb2;" horiz-adv-x="801" 
d="M98 1538q1 120 84 196t214 76q129 0 211.5 -71t82.5 -181q0 -68 -41 -136t-155 -183l-216 -220v-12h432v-105h-606v85l306 318q92 94 125 145t33 101q0 68 -49.5 113t-125.5 45q-78 0 -127 -47.5t-51 -123.5v-1h-117v1z" />
    <glyph glyph-name="three.sups" unicode="&#xb3;" horiz-adv-x="827" 
d="M298 1310v96h105q79 0 128.5 42.5t49.5 110.5q0 65 -49 106.5t-126 41.5q-76 0 -125.5 -41.5t-54.5 -109.5h-117q5 115 87 183.5t214 68.5q125 0 208.5 -66.5t83.5 -166.5q0 -78 -46.5 -134t-123.5 -71v-13q95 -7 151.5 -65.5t56.5 -149.5q0 -113 -93.5 -187.5
t-235.5 -74.5q-137 0 -227 72t-94 186h120q5 -68 61 -111t141 -43q87 0 144 46.5t57 118.5q0 75 -55.5 118t-152.5 43h-107z" />
    <glyph glyph-name="acute" unicode="&#xb4;" horiz-adv-x="999" 
d="M273 1267l250 327h168l-269 -327h-149z" />
    <glyph glyph-name="mugreek" unicode="&#xb5;" horiz-adv-x="1255" 
d="M172 -357v1434h131v-663q0 -153 71 -232.5t206 -79.5q142 0 227 91.5t85 243.5v640h131v-834q0 -76 24 -106.5t81 -30.5q26 0 54 6v-112q-33 -10 -78 -10q-100 0 -147 40t-58 135l-1 28h-13q-85 -211 -310 -211q-95 0 -163.5 41t-96.5 117h-12v-497h-131z" />
    <glyph glyph-name="mugreek" unicode="&#x3bc;" horiz-adv-x="1255" 
d="M172 -357v1434h131v-663q0 -153 71 -232.5t206 -79.5q142 0 227 91.5t85 243.5v640h131v-834q0 -76 24 -106.5t81 -30.5q26 0 54 6v-112q-33 -10 -78 -10q-100 0 -147 40t-58 135l-1 28h-13q-85 -211 -310 -211q-95 0 -163.5 41t-96.5 117h-12v-497h-131z" />
    <glyph glyph-name="paragraph" unicode="&#xb6;" horiz-adv-x="1316" 
d="M826 -195h-137v770h-20q-205 0 -339.5 122t-134.5 307q0 193 133.5 316t341.5 123h156v-1638zM984 -195v1638h137v-1638h-137z" />
    <glyph glyph-name="periodcentered" unicode="&#xb7;" horiz-adv-x="630" 
d="M316 597q-62 0 -102 40t-40 102t40 102t102 40q61 0 100.5 -40t39.5 -102t-39.5 -102t-100.5 -40z" />
    <glyph glyph-name="cedilla" unicode="&#xb8;" horiz-adv-x="999" 
d="M363 -224v67l64 157h106l-57 -142q100 0 156.5 -41.5t56.5 -118.5q0 -81 -63 -131.5t-168 -50.5q-78 0 -143 20v87q50 -18 127 -18q60 0 96 24t36 66q0 81 -155 81h-56z" />
    <glyph glyph-name="one.sups" unicode="&#xb9;" horiz-adv-x="625" 
d="M436 902h-119v766h-12q-17 -11 -117.5 -81t-108.5 -75v119q169 116 238 161h119v-890z" />
    <glyph glyph-name="ordmasculine" unicode="&#xba;" horiz-adv-x="1032" 
d="M516 644q130 0 204 93t74 259q0 167 -74 260t-204 93q-129 0 -203 -93.5t-74 -259.5t74 -259t203 -93zM516 532q-189 0 -299 124.5t-110 339.5q0 214 110.5 339t298.5 125q189 0 299.5 -124.5t110.5 -339.5t-110.5 -339.5t-299.5 -124.5z" />
    <glyph glyph-name="guillemotright" unicode="&#xbb;" horiz-adv-x="1363" 
d="M568 572l-357 411h157l359 -414v-6l-358 -414h-158l357 410v13zM1019 572l-357 411h157l359 -414v-6l-359 -414h-157l357 410v13z" />
    <glyph glyph-name="onequarter" unicode="&#xbc;" horiz-adv-x="1945" 
d="M1536 890h176v-602h128v-102h-128v-186h-120v186h-456v108q95 161 400 596zM1253 292v-7h341v505h-5q-234 -326 -336 -498zM436 553h-119v766h-12q-17 -11 -117.5 -81t-108.5 -75v119q169 116 238 161h119v-890zM514 0l332 751l305 692h128l-318 -721l-319 -722h-128z
" />
    <glyph glyph-name="onehalf" unicode="&#xbd;" horiz-adv-x="1945" 
d="M1222 636q1 120 84 196t214 76q129 0 211.5 -71t82.5 -181q0 -68 -41 -136t-155 -183l-216 -220v-12h432v-105h-606v85l306 318q92 94 125 145t33 101q0 68 -49.5 113t-125.5 45q-78 0 -127 -47.5t-51 -123.5v-1h-117v1zM436 553h-119v766h-12q-17 -11 -117.5 -81
t-108.5 -75v119q169 116 238 161h119v-890zM514 0l332 751l305 692h128l-318 -721l-319 -722h-128z" />
    <glyph glyph-name="threequarters" unicode="&#xbe;" horiz-adv-x="2134" 
d="M298 961v96h105q79 0 128.5 42.5t49.5 110.5q0 65 -49 106.5t-126 41.5q-76 0 -125.5 -41.5t-54.5 -109.5h-117q5 115 87 183.5t214 68.5q125 0 208.5 -66.5t83.5 -166.5q0 -78 -46.5 -134t-123.5 -71v-13q95 -7 151.5 -65.5t56.5 -149.5q0 -113 -93.5 -187.5
t-235.5 -74.5q-137 0 -227 72t-94 186h120q5 -68 61 -111t141 -43q87 0 144 46.5t57 118.5q0 75 -55.5 118t-152.5 43h-107zM1726 890h176v-602h128v-102h-128v-186h-120v186h-456v108q95 161 400 596zM1443 292v-7h341v505h-5q-234 -326 -336 -498zM704 0l332 751l305 692
h128l-318 -721l-319 -722h-128z" />
    <glyph glyph-name="questiondown" unicode="&#xbf;" horiz-adv-x="1019" 
d="M938 21q-9 -165 -120.5 -271.5t-298.5 -106.5q-180 0 -295 102.5t-115 257.5q0 108 52.5 190t157.5 150q98 62 133 114.5t35 136.5v76h133v-95q1 -98 -44.5 -168t-152.5 -139q-94 -61 -133.5 -120t-39.5 -139q0 -108 76.5 -177.5t197.5 -69.5q120 0 197 70t87 189h130z
M542 884q-50 0 -83.5 33t-33.5 84q0 50 33.5 83.5t83.5 33.5t83 -33.5t33 -83.5q0 -51 -33 -84t-83 -33z" />
    <glyph glyph-name="Agrave" unicode="&#xc0;" horiz-adv-x="1363" 
d="M1145 0l-160 442h-606l-160 -442h-145l540 1443h136l539 -1443h-144zM675 1264l-255 -704h524l-256 704h-13zM457 1874l309 -297h-157l-326 297h174z" />
    <glyph glyph-name="Aacute" unicode="&#xc1;" horiz-adv-x="1363" 
d="M1145 0l-160 442h-606l-160 -442h-145l540 1443h136l539 -1443h-144zM675 1264l-255 -704h524l-256 704h-13zM595 1577l310 297h174l-326 -297h-158z" />
    <glyph glyph-name="Acircumflex" unicode="&#xc2;" horiz-adv-x="1363" 
d="M1145 0l-160 442h-606l-160 -442h-145l540 1443h136l539 -1443h-144zM675 1264l-255 -704h524l-256 704h-13zM744 1874l289 -297h-155l-190 202h-12l-190 -202h-155l289 297h124z" />
    <glyph glyph-name="Atilde" unicode="&#xc3;" horiz-adv-x="1363" 
d="M1145 0l-160 442h-606l-160 -442h-145l540 1443h136l539 -1443h-144zM675 1264l-255 -704h524l-256 704h-13zM827 1577q-43 0 -78.5 17t-59.5 41.5t-45.5 48.5t-48 41t-55.5 17q-97 0 -101 -154h-106q0 119 55.5 187.5t148.5 68.5q45 0 82.5 -17t62.5 -41.5t47 -49
t46 -41.5t49 -17q43 0 71 38t31 116h105q0 -115 -56 -185t-148 -70z" />
    <glyph glyph-name="Adieresis" unicode="&#xc4;" horiz-adv-x="1363" 
d="M1145 0l-160 442h-606l-160 -442h-145l540 1443h136l539 -1443h-144zM675 1264l-255 -704h524l-256 704h-13zM500 1568q-42 0 -72 29.5t-30 72.5t30 72.5t72 29.5q43 0 72.5 -29.5t29.5 -72.5t-29.5 -72.5t-72.5 -29.5zM864 1568q-42 0 -72 29.5t-30 72.5t30 72.5
t72 29.5q43 0 72.5 -29.5t29.5 -72.5t-29.5 -72.5t-72.5 -29.5z" />
    <glyph glyph-name="Aring" unicode="&#xc5;" horiz-adv-x="1363" 
d="M1145 0l-160 442h-606l-160 -442h-145l540 1443h136l539 -1443h-144zM675 1264l-255 -704h524l-256 704h-13zM682 1556q-79 0 -134.5 55t-55.5 134t55.5 133.5t134.5 54.5t134.5 -54.5t55.5 -133.5t-55.5 -134t-134.5 -55zM682 1632q48 0 80.5 32.5t32.5 80.5t-32 80.5
t-81 32.5t-81 -32.5t-32 -80.5t32 -80.5t81 -32.5z" />
    <glyph glyph-name="AE" unicode="&#xc6;" horiz-adv-x="1955" 
d="M1002 1327h-161l-365 -766h526v766zM1002 0v443h-581l-208 -443h-139l678 1443h1063v-124h-677v-526h640v-122h-640v-547h677v-124h-813z" />
    <glyph glyph-name="Ccedilla" unicode="&#xc7;" horiz-adv-x="1455" 
d="M1338 1002h-139q-31 153 -152.5 248.5t-284.5 95.5q-227 0 -361 -169.5t-134 -455.5q0 -287 134 -455.5t362 -168.5q167 0 286.5 86t149.5 228h139q-29 -187 -170.5 -306t-351.5 -133l-46 -114q100 0 156.5 -41.5t56.5 -118.5q0 -81 -63 -131.5t-168 -50.5q-78 0 -143 20
v87q50 -18 127 -18q60 0 96 24t36 66q0 81 -155 81h-56v67l53 129q-271 19 -427 218.5t-156 530.5q0 347 171 549.5t464 202.5q147 0 271.5 -60.5t205 -168t99.5 -242.5z" />
    <glyph glyph-name="Egrave" unicode="&#xc8;" horiz-adv-x="1197" 
d="M396 1874l309 -297h-157l-326 297h174zM1057 124v-124h-872v1443h872v-124h-735v-519h698v-122h-698v-554h735z" />
    <glyph glyph-name="Eacute" unicode="&#xc9;" horiz-adv-x="1197" 
d="M534 1577l310 297h174l-326 -297h-158zM1057 124v-124h-872v1443h872v-124h-735v-519h698v-122h-698v-554h735z" />
    <glyph glyph-name="Ecircumflex" unicode="&#xca;" horiz-adv-x="1197" 
d="M683 1874l289 -297h-155l-190 202h-12l-190 -202h-155l289 297h124zM1057 124v-124h-872v1443h872v-124h-735v-519h698v-122h-698v-554h735z" />
    <glyph glyph-name="Edieresis" unicode="&#xcb;" horiz-adv-x="1197" 
d="M439 1568q-42 0 -72 29.5t-30 72.5t30 72.5t72 29.5q43 0 72.5 -29.5t29.5 -72.5t-29.5 -72.5t-72.5 -29.5zM803 1568q-42 0 -72 29.5t-30 72.5t30 72.5t72 29.5q43 0 72.5 -29.5t29.5 -72.5t-29.5 -72.5t-72.5 -29.5zM1057 124v-124h-872v1443h872v-124h-735v-519h698
v-122h-698v-554h735z" />
    <glyph glyph-name="Igrave" unicode="&#xcc;" horiz-adv-x="507" 
d="M322 0h-137v1443h137v-1443zM29 1874l309 -297h-157l-326 297h174z" />
    <glyph glyph-name="Iacute" unicode="&#xcd;" horiz-adv-x="507" 
d="M322 0h-137v1443h137v-1443zM167 1577l310 297h174l-326 -297h-158z" />
    <glyph glyph-name="Icircumflex" unicode="&#xce;" horiz-adv-x="507" 
d="M322 0h-137v1443h137v-1443zM316 1874l289 -297h-155l-190 202h-12l-190 -202h-155l289 297h124z" />
    <glyph glyph-name="Idieresis" unicode="&#xcf;" horiz-adv-x="507" 
d="M322 0h-137v1443h137v-1443zM72 1568q-42 0 -72 29.5t-30 72.5t30 72.5t72 29.5q43 0 72.5 -29.5t29.5 -72.5t-29.5 -72.5t-72.5 -29.5zM436 1568q-42 0 -72 29.5t-30 72.5t30 72.5t72 29.5q43 0 72.5 -29.5t29.5 -72.5t-29.5 -72.5t-72.5 -29.5z" />
    <glyph glyph-name="Eth" unicode="&#xd0;" horiz-adv-x="1471" 
d="M322 124h330q263 0 408 158t145 439t-145 439.5t-408 158.5h-330v-514h272v-124h-272v-557zM185 1443h475q327 0 506 -191t179 -530q0 -340 -178.5 -531t-506.5 -191h-475v681h-163v124h163v638z" />
    <glyph glyph-name="Ntilde" unicode="&#xd1;" horiz-adv-x="1494" 
d="M892 1577q-43 0 -78.5 17t-59.5 41.5t-45.5 48.5t-48 41t-55.5 17q-97 0 -101 -154h-106q0 119 55.5 187.5t148.5 68.5q45 0 82.5 -17t62.5 -41.5t47 -49t46 -41.5t49 -17q43 0 71 38t31 116h105q0 -115 -56 -185t-148 -70zM320 0h-135v1443h135l841 -1198h13v1198h135
v-1443h-132l-844 1199h-13v-1199z" />
    <glyph glyph-name="Ograve" unicode="&#xd2;" horiz-adv-x="1561" 
d="M556 1874l309 -297h-157l-326 297h174zM781 1473q303 0 477.5 -202t174.5 -549t-174.5 -549.5t-477.5 -202.5q-304 0 -479 202.5t-175 549.5q0 346 176 548.5t478 202.5zM781 1346q-236 0 -375 -168.5t-139 -455.5q0 -286 138 -455.5t376 -169.5q237 0 374.5 169.5
t137.5 455.5q0 287 -137.5 455.5t-374.5 168.5z" />
    <glyph glyph-name="Oacute" unicode="&#xd3;" horiz-adv-x="1561" 
d="M694 1577l310 297h174l-326 -297h-158zM781 1473q303 0 477.5 -202t174.5 -549t-174.5 -549.5t-477.5 -202.5q-304 0 -479 202.5t-175 549.5q0 346 176 548.5t478 202.5zM781 1346q-236 0 -375 -168.5t-139 -455.5q0 -286 138 -455.5t376 -169.5q237 0 374.5 169.5
t137.5 455.5q0 287 -137.5 455.5t-374.5 168.5z" />
    <glyph glyph-name="Ocircumflex" unicode="&#xd4;" horiz-adv-x="1561" 
d="M843 1874l289 -297h-155l-190 202h-12l-190 -202h-155l289 297h124zM781 1473q303 0 477.5 -202t174.5 -549t-174.5 -549.5t-477.5 -202.5q-304 0 -479 202.5t-175 549.5q0 346 176 548.5t478 202.5zM781 1346q-236 0 -375 -168.5t-139 -455.5q0 -286 138 -455.5
t376 -169.5q237 0 374.5 169.5t137.5 455.5q0 287 -137.5 455.5t-374.5 168.5z" />
    <glyph glyph-name="Otilde" unicode="&#xd5;" horiz-adv-x="1561" 
d="M781 1473q303 0 477.5 -202t174.5 -549t-174.5 -549.5t-477.5 -202.5q-304 0 -479 202.5t-175 549.5q0 346 176 548.5t478 202.5zM781 1346q-236 0 -375 -168.5t-139 -455.5q0 -286 138 -455.5t376 -169.5q237 0 374.5 169.5t137.5 455.5q0 287 -137.5 455.5
t-374.5 168.5zM926 1577q-43 0 -78.5 17t-59.5 41.5t-45.5 48.5t-48 41t-55.5 17q-97 0 -101 -154h-106q0 119 55.5 187.5t148.5 68.5q45 0 82.5 -17t62.5 -41.5t47 -49t46 -41.5t49 -17q43 0 71 38t31 116h105q0 -115 -56 -185t-148 -70z" />
    <glyph glyph-name="Odieresis" unicode="&#xd6;" horiz-adv-x="1561" 
d="M599 1568q-42 0 -72 29.5t-30 72.5t30 72.5t72 29.5q43 0 72.5 -29.5t29.5 -72.5t-29.5 -72.5t-72.5 -29.5zM963 1568q-42 0 -72 29.5t-30 72.5t30 72.5t72 29.5q43 0 72.5 -29.5t29.5 -72.5t-29.5 -72.5t-72.5 -29.5zM781 1473q303 0 477.5 -202t174.5 -549
t-174.5 -549.5t-477.5 -202.5q-304 0 -479 202.5t-175 549.5q0 346 176 548.5t478 202.5zM781 1346q-236 0 -375 -168.5t-139 -455.5q0 -286 138 -455.5t376 -169.5q237 0 374.5 169.5t137.5 455.5q0 287 -137.5 455.5t-374.5 168.5z" />
    <glyph glyph-name="multiply" unicode="&#xd7;" horiz-adv-x="1321" 
d="M661 499l-315 -314l-80 80l313 315l-313 314l80 81l314 -314l314 313l81 -80l-313 -314l313 -314l-81 -81z" />
    <glyph glyph-name="Oslash" unicode="&#xd8;" horiz-adv-x="1530" 
d="M1164 1167l-722 -941q134 -129 339 -129q237 0 374.5 169.5t137.5 455.5q0 277 -129 445zM378 302l719 935q-127 109 -316 109q-236 0 -375 -168.5t-139 -455.5q0 -255 111 -420zM1386 1457l-136 -177q183 -202 183 -558q0 -347 -174.5 -549.5t-477.5 -202.5
q-254 0 -423 146l-142 -186l-79 59l152 198q-162 201 -162 535q0 346 176 548.5t478 202.5q236 0 399 -127l128 166z" />
    <glyph glyph-name="Ugrave" unicode="&#xd9;" horiz-adv-x="1494" 
d="M522 1874l309 -297h-157l-326 297h174zM325 1443v-934q0 -183 114 -296t308 -113t308 113t114 296v934h137v-943q0 -237 -151 -381.5t-408 -144.5q-256 0 -407 144.5t-151 381.5v943h136z" />
    <glyph glyph-name="Uacute" unicode="&#xda;" horiz-adv-x="1494" 
d="M660 1577l310 297h174l-326 -297h-158zM325 1443v-934q0 -183 114 -296t308 -113t308 113t114 296v934h137v-943q0 -237 -151 -381.5t-408 -144.5q-256 0 -407 144.5t-151 381.5v943h136z" />
    <glyph glyph-name="Ucircumflex" unicode="&#xdb;" horiz-adv-x="1494" 
d="M809 1874l289 -297h-155l-190 202h-12l-190 -202h-155l289 297h124zM325 1443v-934q0 -183 114 -296t308 -113t308 113t114 296v934h137v-943q0 -237 -151 -381.5t-408 -144.5q-256 0 -407 144.5t-151 381.5v943h136z" />
    <glyph glyph-name="Udieresis" unicode="&#xdc;" horiz-adv-x="1494" 
d="M565 1568q-42 0 -72 29.5t-30 72.5t30 72.5t72 29.5q43 0 72.5 -29.5t29.5 -72.5t-29.5 -72.5t-72.5 -29.5zM929 1568q-42 0 -72 29.5t-30 72.5t30 72.5t72 29.5q43 0 72.5 -29.5t29.5 -72.5t-29.5 -72.5t-72.5 -29.5zM325 1443v-934q0 -183 114 -296t308 -113t308 113
t114 296v934h137v-943q0 -237 -151 -381.5t-408 -144.5q-256 0 -407 144.5t-151 381.5v943h136z" />
    <glyph glyph-name="Yacute" unicode="&#xdd;" horiz-adv-x="1321" 
d="M729 0h-136v624l-518 819h157l423 -680h12l423 680h156l-517 -819v-624zM574 1577l310 297h174l-326 -297h-158z" />
    <glyph glyph-name="Thorn" unicode="&#xde;" horiz-adv-x="1270" 
d="M185 1443h137v-274h386q184 0 307.5 -111t123.5 -299q0 -126 -58.5 -220.5t-156 -142.5t-217.5 -48h-385v-348h-137v1443zM322 1046v-576h352q149 0 237 75.5t88 213.5q0 137 -88 212t-237 75h-352z" />
    <glyph glyph-name="germandbls" unicode="&#xdf;" horiz-adv-x="1229" 
d="M341 0h-130v1101q0 181 109.5 286.5t292.5 105.5q177 0 289 -102.5t112 -262.5q0 -123 -67 -216.5t-169 -123.5v-13q156 -15 252 -114t96 -260q0 -179 -126.5 -298t-324.5 -119q-86 0 -155 14v119q61 -16 147 -16q148 0 238.5 84t90.5 217q0 137 -100 220t-274 83h-77
v129h70q120 0 195 77.5t75 209.5q0 111 -74 183t-196 72q-130 0 -202 -76.5t-72 -212.5v-1087z" />
    <glyph glyph-name="agrave" unicode="&#xe0;" horiz-adv-x="1125" 
d="M491 98q145 0 242.5 87.5t97.5 215.5v126l-319 -23q-271 -19 -271 -204q0 -92 70 -147t180 -55zM469 -18q-160 0 -261.5 86.5t-101.5 229.5q0 140 100 220.5t288 93.5l337 22v104q0 116 -68.5 178t-199.5 62q-111 0 -186.5 -44.5t-94.5 -122.5h-133q19 128 133.5 206
t284.5 78q189 0 292.5 -93.5t103.5 -262.5v-739h-126v185h-12q-49 -96 -143 -149.5t-213 -53.5zM664 1267h-149l-269 327h168z" />
    <glyph glyph-name="aacute" unicode="&#xe1;" horiz-adv-x="1125" 
d="M491 98q145 0 242.5 87.5t97.5 215.5v126l-319 -23q-271 -19 -271 -204q0 -92 70 -147t180 -55zM469 -18q-160 0 -261.5 86.5t-101.5 229.5q0 140 100 220.5t288 93.5l337 22v104q0 116 -68.5 178t-199.5 62q-111 0 -186.5 -44.5t-94.5 -122.5h-133q19 128 133.5 206
t284.5 78q189 0 292.5 -93.5t103.5 -262.5v-739h-126v185h-12q-49 -96 -143 -149.5t-213 -53.5zM478 1267l250 327h168l-269 -327h-149z" />
    <glyph glyph-name="acircumflex" unicode="&#xe2;" horiz-adv-x="1125" 
d="M491 98q145 0 242.5 87.5t97.5 215.5v126l-319 -23q-271 -19 -271 -204q0 -92 70 -147t180 -55zM469 -18q-160 0 -261.5 86.5t-101.5 229.5q0 140 100 220.5t288 93.5l337 22v104q0 116 -68.5 178t-199.5 62q-111 0 -186.5 -44.5t-94.5 -122.5h-133q19 128 133.5 206
t284.5 78q189 0 292.5 -93.5t103.5 -262.5v-739h-126v185h-12q-49 -96 -143 -149.5t-213 -53.5zM644 1560l275 -332h-153l-193 243h-12l-193 -243h-153l275 332h154z" />
    <glyph glyph-name="atilde" unicode="&#xe3;" horiz-adv-x="1125" 
d="M491 98q145 0 242.5 87.5t97.5 215.5v126l-319 -23q-271 -19 -271 -204q0 -92 70 -147t180 -55zM469 -18q-160 0 -261.5 86.5t-101.5 229.5q0 140 100 220.5t288 93.5l337 22v104q0 116 -68.5 178t-199.5 62q-111 0 -186.5 -44.5t-94.5 -122.5h-133q19 128 133.5 206
t284.5 78q189 0 292.5 -93.5t103.5 -262.5v-739h-126v185h-12q-49 -96 -143 -149.5t-213 -53.5zM431 1388q-104 0 -104 -158h-111q0 121 56 191.5t153 70.5q43 0 79 -16.5t60.5 -39.5t46.5 -46t45.5 -39.5t47.5 -16.5q104 0 104 158h110q0 -121 -56 -191.5t-153 -70.5
q-42 0 -78.5 16.5t-60.5 39.5t-46 46t-45.5 39.5t-47.5 16.5z" />
    <glyph glyph-name="adieresis" unicode="&#xe4;" horiz-adv-x="1125" 
d="M491 98q145 0 242.5 87.5t97.5 215.5v126l-319 -23q-271 -19 -271 -204q0 -92 70 -147t180 -55zM469 -18q-160 0 -261.5 86.5t-101.5 229.5q0 140 100 220.5t288 93.5l337 22v104q0 116 -68.5 178t-199.5 62q-111 0 -186.5 -44.5t-94.5 -122.5h-133q19 128 133.5 206
t284.5 78q189 0 292.5 -93.5t103.5 -262.5v-739h-126v185h-12q-49 -96 -143 -149.5t-213 -53.5zM385 1228q-42 0 -72 29.5t-30 72.5t30 72.5t72 29.5q43 0 72.5 -29.5t29.5 -72.5t-29.5 -72.5t-72.5 -29.5zM749 1228q-42 0 -72 29.5t-30 72.5t30 72.5t72 29.5
q43 0 72.5 -29.5t29.5 -72.5t-29.5 -72.5t-72.5 -29.5z" />
    <glyph glyph-name="aring" unicode="&#xe5;" horiz-adv-x="1125" 
d="M491 98q145 0 242.5 87.5t97.5 215.5v126l-319 -23q-271 -19 -271 -204q0 -92 70 -147t180 -55zM469 -18q-160 0 -261.5 86.5t-101.5 229.5q0 140 100 220.5t288 93.5l337 22v104q0 116 -68.5 178t-199.5 62q-111 0 -186.5 -44.5t-94.5 -122.5h-133q19 128 133.5 206
t284.5 78q189 0 292.5 -93.5t103.5 -262.5v-739h-126v185h-12q-49 -96 -143 -149.5t-213 -53.5zM567 1228q-89 0 -151 61t-62 150q0 88 62 149t151 61t151 -61t62 -149q0 -89 -62 -150t-151 -61zM567 1313q53 0 89 36.5t36 89.5t-36 89t-89 36t-89 -36t-36 -89t36 -89.5
t89 -36.5z" />
    <glyph glyph-name="ae" unicode="&#xe6;" horiz-adv-x="1880" 
d="M1314 -18q-140 0 -249.5 71.5t-154.5 191.5h-12q-48 -123 -158 -193t-260 -70q-167 0 -270.5 85.5t-103.5 227.5q0 139 99.5 218t287.5 91l338 21v113q0 116 -68.5 178t-199.5 62q-111 0 -186.5 -44.5t-94.5 -122.5h-133q19 128 133.5 206t284.5 78q135 0 228 -60.5
t123 -164.5h13q46 99 148.5 162t231.5 63q212 0 333.5 -139.5t121.5 -382.5v-58h-804v-15q5 -182 101 -291.5t253 -109.5q226 0 300 167h133q-40 -134 -155 -209t-280 -75zM1305 979q-148 0 -240.5 -97t-102.5 -260h667q-2 158 -92 257.5t-232 99.5zM497 98q142 0 238 90
t96 219v111l-321 -21q-269 -19 -269 -199q0 -91 71 -145.5t185 -54.5z" />
    <glyph glyph-name="ccedilla" unicode="&#xe7;" horiz-adv-x="1145" 
d="M1042 760h-133q-26 96 -107.5 156.5t-201.5 60.5q-161 0 -255.5 -118t-94.5 -317q0 -202 95 -321.5t255 -119.5q120 0 201.5 55t106.5 154h133q-23 -135 -123.5 -222.5t-257.5 -102.5l-51 -127q100 0 156.5 -41.5t56.5 -118.5q0 -81 -63 -131.5t-168 -50.5q-78 0 -143 20
v87q50 -18 127 -18q60 0 96 24t36 66q0 81 -155 81h-56v67l57 141q-202 17 -320 166.5t-118 391.5q0 253 131.5 403t353.5 150q180 0 298.5 -94.5t143.5 -240.5z" />
    <glyph glyph-name="egrave" unicode="&#xe8;" horiz-adv-x="1174" 
d="M692 1267h-149l-269 327h168zM595 979q-147 0 -241 -100.5t-103 -266.5h671q-2 167 -91.5 267t-235.5 100zM909 266h133q-40 -132 -158 -208t-287 -76q-222 0 -352 150.5t-130 405.5q0 254 130.5 405.5t350.5 151.5q215 0 339 -143t124 -390v-58h-809v-6
q5 -183 99.5 -291t250.5 -108q114 0 194 43.5t115 123.5z" />
    <glyph glyph-name="eacute" unicode="&#xe9;" horiz-adv-x="1174" 
d="M506 1267l250 327h168l-269 -327h-149zM595 979q-147 0 -241 -100.5t-103 -266.5h671q-2 167 -91.5 267t-235.5 100zM909 266h133q-40 -132 -158 -208t-287 -76q-222 0 -352 150.5t-130 405.5q0 254 130.5 405.5t350.5 151.5q215 0 339 -143t124 -390v-58h-809v-6
q5 -183 99.5 -291t250.5 -108q114 0 194 43.5t115 123.5z" />
    <glyph glyph-name="ecircumflex" unicode="&#xea;" horiz-adv-x="1174" 
d="M672 1560l275 -332h-153l-193 243h-12l-193 -243h-153l275 332h154zM595 979q-147 0 -241 -100.5t-103 -266.5h671q-2 167 -91.5 267t-235.5 100zM909 266h133q-40 -132 -158 -208t-287 -76q-222 0 -352 150.5t-130 405.5q0 254 130.5 405.5t350.5 151.5q215 0 339 -143
t124 -390v-58h-809v-6q5 -183 99.5 -291t250.5 -108q114 0 194 43.5t115 123.5z" />
    <glyph glyph-name="edieresis" unicode="&#xeb;" horiz-adv-x="1174" 
d="M595 979q-147 0 -241 -100.5t-103 -266.5h671q-2 167 -91.5 267t-235.5 100zM909 266h133q-40 -132 -158 -208t-287 -76q-222 0 -352 150.5t-130 405.5q0 254 130.5 405.5t350.5 151.5q215 0 339 -143t124 -390v-58h-809v-6q5 -183 99.5 -291t250.5 -108q114 0 194 43.5
t115 123.5zM413 1228q-42 0 -72 29.5t-30 72.5t30 72.5t72 29.5q43 0 72.5 -29.5t29.5 -72.5t-29.5 -72.5t-72.5 -29.5zM777 1228q-42 0 -72 29.5t-30 72.5t30 72.5t72 29.5q43 0 72.5 -29.5t29.5 -72.5t-29.5 -72.5t-72.5 -29.5z" />
    <glyph glyph-name="igrave" unicode="&#xec;" horiz-adv-x="480" 
d="M337 1267h-149l-269 327h168zM175 0v1077h131v-1077h-131z" />
    <glyph glyph-name="iacute" unicode="&#xed;" horiz-adv-x="480" 
d="M151 1267l250 327h168l-269 -327h-149zM175 0v1077h131v-1077h-131z" />
    <glyph glyph-name="icircumflex" unicode="&#xee;" horiz-adv-x="480" 
d="M317 1560l275 -332h-153l-193 243h-12l-193 -243h-153l275 332h154zM175 0v1077h131v-1077h-131z" />
    <glyph glyph-name="idieresis" unicode="&#xef;" horiz-adv-x="480" 
d="M175 0v1077h131v-1077h-131zM58 1228q-42 0 -72 29.5t-30 72.5t30 72.5t72 29.5q43 0 72.5 -29.5t29.5 -72.5t-29.5 -72.5t-72.5 -29.5zM422 1228q-42 0 -72 29.5t-30 72.5t30 72.5t72 29.5q43 0 72.5 -29.5t29.5 -72.5t-29.5 -72.5t-72.5 -29.5z" />
    <glyph glyph-name="eth" unicode="&#xf0;" horiz-adv-x="1192" 
d="M601 -18q-223 0 -354.5 147.5t-131.5 395.5q0 235 126.5 382.5t329.5 147.5q112 0 207 -53t137 -140h12q-51 220 -200 393l-283 -102l-29 88l247 89q-74 78 -215 180h164q95 -66 166 -141l257 92l29 -88l-225 -81q116 -145 176.5 -330.5t60.5 -395.5q0 -269 -128 -426.5
t-346 -157.5zM599 937q-157 0 -253 -113.5t-96 -298.5q0 -191 96 -307.5t255 -116.5q157 0 252 115t95 305q0 189 -95.5 302.5t-253.5 113.5z" />
    <glyph glyph-name="ntilde" unicode="&#xf1;" horiz-adv-x="1192" 
d="M475 1388q-104 0 -104 -158h-111q0 121 56 191.5t153 70.5q43 0 79 -16.5t60.5 -39.5t46.5 -46t45.5 -39.5t47.5 -16.5q104 0 104 158h110q0 -121 -56 -191.5t-153 -70.5q-42 0 -78.5 16.5t-60.5 39.5t-46 46t-45.5 39.5t-47.5 16.5zM169 0v1077h125v-194h13
q43 101 132 156.5t216 55.5q180 0 278.5 -103.5t98.5 -291.5v-700h-131v667q0 310 -281 310q-143 0 -231.5 -92.5t-88.5 -244.5v-640h-131z" />
    <glyph glyph-name="ograve" unicode="&#xf2;" horiz-adv-x="1208" 
d="M701 1267h-149l-269 327h168zM604 101q166 0 260 116.5t94 321.5t-94 321.5t-260 116.5t-260 -116.5t-94 -321.5t94 -321.5t260 -116.5zM604 -18q-226 0 -357.5 149.5t-131.5 407.5t131.5 407t357.5 149t358 -149t132 -407t-132 -407.5t-358 -149.5z" />
    <glyph glyph-name="oacute" unicode="&#xf3;" horiz-adv-x="1208" 
d="M515 1267l250 327h168l-269 -327h-149zM604 101q166 0 260 116.5t94 321.5t-94 321.5t-260 116.5t-260 -116.5t-94 -321.5t94 -321.5t260 -116.5zM604 -18q-226 0 -357.5 149.5t-131.5 407.5t131.5 407t357.5 149t358 -149t132 -407t-132 -407.5t-358 -149.5z" />
    <glyph glyph-name="ocircumflex" unicode="&#xf4;" horiz-adv-x="1208" 
d="M681 1560l275 -332h-153l-193 243h-12l-193 -243h-153l275 332h154zM604 101q166 0 260 116.5t94 321.5t-94 321.5t-260 116.5t-260 -116.5t-94 -321.5t94 -321.5t260 -116.5zM604 -18q-226 0 -357.5 149.5t-131.5 407.5t131.5 407t357.5 149t358 -149t132 -407
t-132 -407.5t-358 -149.5z" />
    <glyph glyph-name="otilde" unicode="&#xf5;" horiz-adv-x="1208" 
d="M468 1388q-104 0 -104 -158h-111q0 121 56 191.5t153 70.5q43 0 79 -16.5t60.5 -39.5t46.5 -46t45.5 -39.5t47.5 -16.5q104 0 104 158h110q0 -121 -56 -191.5t-153 -70.5q-42 0 -78.5 16.5t-60.5 39.5t-46 46t-45.5 39.5t-47.5 16.5zM604 101q166 0 260 116.5t94 321.5
t-94 321.5t-260 116.5t-260 -116.5t-94 -321.5t94 -321.5t260 -116.5zM604 -18q-226 0 -357.5 149.5t-131.5 407.5t131.5 407t357.5 149t358 -149t132 -407t-132 -407.5t-358 -149.5z" />
    <glyph glyph-name="odieresis" unicode="&#xf6;" horiz-adv-x="1208" 
d="M422 1228q-42 0 -72 29.5t-30 72.5t30 72.5t72 29.5q43 0 72.5 -29.5t29.5 -72.5t-29.5 -72.5t-72.5 -29.5zM786 1228q-42 0 -72 29.5t-30 72.5t30 72.5t72 29.5q43 0 72.5 -29.5t29.5 -72.5t-29.5 -72.5t-72.5 -29.5zM604 101q166 0 260 116.5t94 321.5t-94 321.5
t-260 116.5t-260 -116.5t-94 -321.5t94 -321.5t260 -116.5zM604 -18q-226 0 -357.5 149.5t-131.5 407.5t131.5 407t357.5 149t358 -149t132 -407t-132 -407.5t-358 -149.5z" />
    <glyph glyph-name="divide" unicode="&#xf7;" horiz-adv-x="1321" 
d="M1152 523h-983v114h983v-114zM661 822q-46 0 -76.5 30.5t-30.5 76.5t30.5 76t76.5 30q45 0 75.5 -30t30.5 -76t-30.5 -76.5t-75.5 -30.5zM661 116q-46 0 -76.5 30.5t-30.5 76.5t30.5 76.5t76.5 30.5q45 0 75.5 -30.5t30.5 -76.5t-30.5 -76.5t-75.5 -30.5z" />
    <glyph glyph-name="oslash" unicode="&#xf8;" horiz-adv-x="1208" 
d="M875 847l-480 -680q86 -66 209 -66q166 0 260 116.5t94 321.5q0 193 -83 308zM327 240l480 676q-84 61 -203 61q-166 0 -260 -116.5t-94 -321.5q0 -185 77 -299zM1041 1083l-89 -126q142 -150 142 -418q0 -258 -132 -407.5t-358 -149.5q-164 0 -282 82l-85 -121l-82 55
l93 131q-133 152 -133 410t131.5 407t357.5 149q159 0 276 -77l82 116z" />
    <glyph glyph-name="ugrave" unicode="&#xf9;" horiz-adv-x="1193" 
d="M689 1267h-149l-269 327h168zM1024 1077v-1077h-125v194h-12q-41 -101 -132 -156.5t-219 -55.5q-179 0 -277.5 104.5t-98.5 290.5v700h131v-667q0 -151 70.5 -229.5t208.5 -78.5q150 0 236.5 90.5t86.5 244.5v640h131z" />
    <glyph glyph-name="uacute" unicode="&#xfa;" horiz-adv-x="1193" 
d="M503 1267l250 327h168l-269 -327h-149zM1024 1077v-1077h-125v194h-12q-41 -101 -132 -156.5t-219 -55.5q-179 0 -277.5 104.5t-98.5 290.5v700h131v-667q0 -151 70.5 -229.5t208.5 -78.5q150 0 236.5 90.5t86.5 244.5v640h131z" />
    <glyph glyph-name="ucircumflex" unicode="&#xfb;" horiz-adv-x="1193" 
d="M669 1560l275 -332h-153l-193 243h-12l-193 -243h-153l275 332h154zM1024 1077v-1077h-125v194h-12q-41 -101 -132 -156.5t-219 -55.5q-179 0 -277.5 104.5t-98.5 290.5v700h131v-667q0 -151 70.5 -229.5t208.5 -78.5q150 0 236.5 90.5t86.5 244.5v640h131z" />
    <glyph glyph-name="udieresis" unicode="&#xfc;" horiz-adv-x="1193" 
d="M1024 1077v-1077h-125v194h-12q-41 -101 -132 -156.5t-219 -55.5q-179 0 -277.5 104.5t-98.5 290.5v700h131v-667q0 -151 70.5 -229.5t208.5 -78.5q150 0 236.5 90.5t86.5 244.5v640h131zM410 1228q-42 0 -72 29.5t-30 72.5t30 72.5t72 29.5q43 0 72.5 -29.5t29.5 -72.5
t-29.5 -72.5t-72.5 -29.5zM774 1228q-42 0 -72 29.5t-30 72.5t30 72.5t72 29.5q43 0 72.5 -29.5t29.5 -72.5t-29.5 -72.5t-72.5 -29.5z" />
    <glyph glyph-name="yacute" unicode="&#xfd;" horiz-adv-x="1079" 
d="M245 -381q-27 0 -61 4v114q20 -4 59 -4q74 0 120 43t86 150l22 67l-404 1084h142l326 -934h12l325 934h140l-419 -1129q-72 -194 -144 -261.5t-204 -67.5zM447 1267l250 327h168l-269 -327h-149z" />
    <glyph glyph-name="thorn" unicode="&#xfe;" horiz-adv-x="1252" 
d="M685 1095q205 0 329 -152.5t124 -403.5t-124.5 -404t-328.5 -153q-125 0 -221.5 59.5t-141.5 163.5h-12v-576h-131v1867h125v-639h12q50 111 148 174.5t221 63.5zM656 101q160 0 253.5 118t93.5 319q0 202 -93.5 320.5t-252.5 118.5q-158 0 -254.5 -120t-96.5 -318
t96 -318t254 -120z" />
    <glyph glyph-name="ydieresis" unicode="&#xff;" horiz-adv-x="1079" 
d="M245 -381q-27 0 -61 4v114q20 -4 59 -4q74 0 120 43t86 150l22 67l-404 1084h142l326 -934h12l325 934h140l-419 -1129q-72 -194 -144 -261.5t-204 -67.5zM354 1228q-42 0 -72 29.5t-30 72.5t30 72.5t72 29.5q43 0 72.5 -29.5t29.5 -72.5t-29.5 -72.5t-72.5 -29.5z
M718 1228q-42 0 -72 29.5t-30 72.5t30 72.5t72 29.5q43 0 72.5 -29.5t29.5 -72.5t-29.5 -72.5t-72.5 -29.5z" />
    <glyph glyph-name="Amacron" unicode="&#x100;" horiz-adv-x="1363" 
d="M1145 0l-160 442h-606l-160 -442h-145l540 1443h136l539 -1443h-144zM675 1264l-255 -704h524l-256 704h-13zM1004 1619h-644v105h644v-105z" />
    <glyph glyph-name="amacron" unicode="&#x101;" horiz-adv-x="1125" 
d="M491 98q145 0 242.5 87.5t97.5 215.5v126l-319 -23q-271 -19 -271 -204q0 -92 70 -147t180 -55zM469 -18q-160 0 -261.5 86.5t-101.5 229.5q0 140 100 220.5t288 93.5l337 22v104q0 116 -68.5 178t-199.5 62q-111 0 -186.5 -44.5t-94.5 -122.5h-133q19 128 133.5 206
t284.5 78q189 0 292.5 -93.5t103.5 -262.5v-739h-126v185h-12q-49 -96 -143 -149.5t-213 -53.5zM898 1292h-662v106h662v-106z" />
    <glyph glyph-name="Abreve" unicode="&#x102;" horiz-adv-x="1363" 
d="M1145 0l-160 442h-606l-160 -442h-145l540 1443h136l539 -1443h-144zM675 1264l-255 -704h524l-256 704h-13zM352 1851h118q0 -81 57.5 -128.5t154.5 -47.5t154.5 47.5t57.5 128.5h118q0 -126 -89 -200t-241 -74t-241 74t-89 200z" />
    <glyph glyph-name="abreve" unicode="&#x103;" horiz-adv-x="1125" 
d="M491 98q145 0 242.5 87.5t97.5 215.5v126l-319 -23q-271 -19 -271 -204q0 -92 70 -147t180 -55zM469 -18q-160 0 -261.5 86.5t-101.5 229.5q0 140 100 220.5t288 93.5l337 22v104q0 116 -68.5 178t-199.5 62q-111 0 -186.5 -44.5t-94.5 -122.5h-133q19 128 133.5 206
t284.5 78q189 0 292.5 -93.5t103.5 -262.5v-739h-126v185h-12q-49 -96 -143 -149.5t-213 -53.5zM236 1538h119q0 -90 55.5 -144t155.5 -54t155.5 54t55.5 144h119q0 -134 -88.5 -216t-241.5 -82t-241.5 82t-88.5 216z" />
    <glyph glyph-name="Aogonek" unicode="&#x104;" horiz-adv-x="1363" 
d="M675 1264l-255 -704h524l-256 704h-13zM1141 10l-156 432h-606l-160 -442h-145l540 1443h136l539 -1443l-9 -4q-199 -81 -199 -193q0 -49 35.5 -78.5t87.5 -29.5q46 0 67 7v-104q-40 -14 -93 -14q-100 0 -163 55t-63 137q0 72 51 134t138 100z" />
    <glyph glyph-name="aogonek" unicode="&#x105;" horiz-adv-x="1125" 
d="M491 98q144 0 242 87t98 216v126l-319 -23q-271 -19 -271 -204q0 -91 69 -146.5t181 -55.5zM637 -224q0 79 55 141.5t145 96.5v171h-12q-49 -96 -143 -149.5t-213 -53.5q-162 0 -262.5 87t-100.5 229q0 140 100 220.5t288 93.5l337 22v104q0 116 -69 178t-199 62
q-112 0 -186.5 -44.5t-94.5 -122.5h-133q19 128 133.5 206t284.5 78q188 0 292 -93.5t104 -262.5v-739l-11 -4q-186 -79 -186 -193q0 -47 34.5 -77.5t89.5 -30.5q42 0 67 7v-104q-40 -14 -93 -14q-100 0 -163.5 54t-63.5 138z" />
    <glyph glyph-name="Cacute" unicode="&#x106;" horiz-adv-x="1455" 
d="M675 1578l310 297h174l-326 -297h-158zM763 -30q-294 0 -465 202t-171 549t171 549.5t464 202.5q147 0 271.5 -60.5t205 -168t99.5 -242.5h-139q-31 153 -152.5 248.5t-284.5 95.5q-227 0 -361 -169.5t-134 -455.5q0 -287 134 -455.5t362 -168.5q167 0 286.5 86
t149.5 228h139q-31 -199 -188.5 -320t-386.5 -121z" />
    <glyph glyph-name="cacute" unicode="&#x107;" horiz-adv-x="1145" 
d="M1042 760h-133q-26 96 -107.5 156.5t-201.5 60.5q-161 0 -255.5 -118t-94.5 -317q0 -202 95 -321.5t255 -119.5q120 0 201.5 55t106.5 154h133q-25 -148 -142 -238t-298 -90q-223 0 -354.5 151.5t-131.5 408.5q0 253 131.5 403t353.5 150q180 0 298.5 -94.5t143.5 -240.5
zM509 1267l250 327h168l-269 -327h-149z" />
    <glyph glyph-name="Ccircumflex" unicode="&#x108;" horiz-adv-x="1455" 
d="M763 -30q-294 0 -465 202t-171 549t171 549.5t464 202.5q147 0 271.5 -60.5t205 -168t99.5 -242.5h-139q-31 153 -152.5 248.5t-284.5 95.5q-227 0 -361 -169.5t-134 -455.5q0 -287 134 -455.5t362 -168.5q167 0 286.5 86t149.5 228h139q-31 -199 -188.5 -320
t-386.5 -121zM824 1875l289 -297h-155l-190 202h-12l-190 -202h-155l289 297h124z" />
    <glyph glyph-name="ccircumflex" unicode="&#x109;" horiz-adv-x="1145" 
d="M675 1560l275 -332h-153l-193 243h-12l-193 -243h-153l275 332h154zM1042 760h-133q-26 96 -107.5 156.5t-201.5 60.5q-161 0 -255.5 -118t-94.5 -317q0 -202 95 -321.5t255 -119.5q120 0 201.5 55t106.5 154h133q-25 -148 -142 -238t-298 -90q-223 0 -354.5 151.5
t-131.5 408.5q0 253 131.5 403t353.5 150q180 0 298.5 -94.5t143.5 -240.5z" />
    <glyph glyph-name="Cdotaccent" unicode="&#x10a;" horiz-adv-x="1455" 
d="M762 1578q-44 0 -74.5 30.5t-30.5 73.5q0 44 30.5 74.5t74.5 30.5t74.5 -30.5t30.5 -74.5q0 -43 -30.5 -73.5t-74.5 -30.5zM763 -30q-294 0 -465 202t-171 549t171 549.5t464 202.5q147 0 271.5 -60.5t205 -168t99.5 -242.5h-139q-31 153 -152.5 248.5t-284.5 95.5
q-227 0 -361 -169.5t-134 -455.5q0 -287 134 -455.5t362 -168.5q167 0 286.5 86t149.5 228h139q-31 -199 -188.5 -320t-386.5 -121z" />
    <glyph glyph-name="cdotaccent" unicode="&#x10b;" horiz-adv-x="1145" 
d="M1042 760h-133q-26 96 -107.5 156.5t-201.5 60.5q-161 0 -255.5 -118t-94.5 -317q0 -202 95 -321.5t255 -119.5q120 0 201.5 55t106.5 154h133q-25 -148 -142 -238t-298 -90q-223 0 -354.5 151.5t-131.5 408.5q0 253 131.5 403t353.5 150q180 0 298.5 -94.5t143.5 -240.5
zM598 1280q-45 0 -77 32.5t-32 77.5t32 77t77 32t77 -32t32 -77t-32 -77.5t-77 -32.5z" />
    <glyph glyph-name="Ccaron" unicode="&#x10c;" horiz-adv-x="1455" 
d="M763 -30q-294 0 -465 202t-171 549t171 549.5t464 202.5q147 0 271.5 -60.5t205 -168t99.5 -242.5h-139q-31 153 -152.5 248.5t-284.5 95.5q-227 0 -361 -169.5t-134 -455.5q0 -287 134 -455.5t362 -168.5q167 0 286.5 86t149.5 228h139q-31 -199 -188.5 -320
t-386.5 -121zM826 1578h-128l-287 297h155l190 -203h12l190 203h155z" />
    <glyph glyph-name="ccaron" unicode="&#x10d;" horiz-adv-x="1145" 
d="M675 1228h-154l-275 332h153l193 -243h12l193 243h153zM1042 760h-133q-26 96 -107.5 156.5t-201.5 60.5q-161 0 -255.5 -118t-94.5 -317q0 -202 95 -321.5t255 -119.5q120 0 201.5 55t106.5 154h133q-25 -148 -142 -238t-298 -90q-223 0 -354.5 151.5t-131.5 408.5
q0 253 131.5 403t353.5 150q180 0 298.5 -94.5t143.5 -240.5z" />
    <glyph glyph-name="Dcaron" unicode="&#x10e;" horiz-adv-x="1471" 
d="M655 1577h-128l-287 297h155l190 -203h12l190 203h155zM185 1443h475q327 0 506 -191t179 -530q0 -340 -178.5 -531t-506.5 -191h-475v1443zM322 1319v-1195h330q263 0 408 158t145 439t-145 439.5t-408 158.5h-330z" />
    <glyph glyph-name="dcaron" unicode="&#x10f;" horiz-adv-x="1345" 
d="M1223 1506h130l-38 -444h-92v444zM571 -18q-206 0 -331 152.5t-125 403.5q0 250 125.5 403.5t330.5 153.5q123 0 220 -61t143 -167h12v639h131v-1506h-126v215h-12q-48 -108 -146.5 -170.5t-221.5 -62.5zM599 977q-160 0 -254.5 -119t-94.5 -319q0 -201 94.5 -319.5
t254.5 -118.5q159 0 254 119t95 319q0 198 -95.5 318t-253.5 120z" />
    <glyph glyph-name="Dcroat" unicode="&#x110;" horiz-adv-x="1475" 
d="M325 124h330q263 0 408 158t145 439t-145 439.5t-408 158.5h-330v-514h269v-124h-269v-557zM188 1443h475q327 0 506 -191t179 -530q0 -340 -178.5 -531t-506.5 -191h-475v681h-166v124h166v638z" />
    <glyph glyph-name="dcroat" unicode="&#x111;" horiz-adv-x="1256" 
d="M599 101q159 0 254 119t95 319q0 198 -95.5 318t-253.5 120q-160 0 -254.5 -119t-94.5 -319q0 -201 94.5 -319.5t254.5 -118.5zM1226 1376v-97h-149v-1279h-126v215h-12q-48 -108 -146.5 -170.5t-221.5 -62.5q-206 0 -331 152.5t-125 403.5q0 250 125.5 403.5
t330.5 153.5q123 0 220 -61t143 -167h12v412h-273v97h273v130h131v-130h149z" />
    <glyph glyph-name="Emacron" unicode="&#x112;" horiz-adv-x="1197" 
d="M1057 124v-124h-872v1443h872v-124h-735v-519h698v-122h-698v-554h735zM943 1619h-644v105h644v-105z" />
    <glyph glyph-name="emacron" unicode="&#x113;" horiz-adv-x="1174" 
d="M595 979q-147 0 -241 -100.5t-103 -266.5h671q-2 167 -91.5 267t-235.5 100zM909 266h133q-40 -132 -158 -208t-287 -76q-222 0 -352 150.5t-130 405.5q0 254 130.5 405.5t350.5 151.5q215 0 339 -143t124 -390v-58h-809v-6q5 -183 99.5 -291t250.5 -108q114 0 194 43.5
t115 123.5zM926 1292h-662v106h662v-106z" />
    <glyph glyph-name="Ebreve" unicode="&#x114;" horiz-adv-x="1197" 
d="M1057 124v-124h-872v1443h872v-124h-735v-519h698v-122h-698v-554h735zM291 1851h118q0 -81 57.5 -128.5t154.5 -47.5t154.5 47.5t57.5 128.5h118q0 -126 -89 -200t-241 -74t-241 74t-89 200z" />
    <glyph glyph-name="ebreve" unicode="&#x115;" horiz-adv-x="1174" 
d="M595 979q-147 0 -241 -100.5t-103 -266.5h671q-2 167 -91.5 267t-235.5 100zM909 266h133q-40 -132 -158 -208t-287 -76q-222 0 -352 150.5t-130 405.5q0 254 130.5 405.5t350.5 151.5q215 0 339 -143t124 -390v-58h-809v-6q5 -183 99.5 -291t250.5 -108q114 0 194 43.5
t115 123.5zM264 1538h119q0 -90 55.5 -144t155.5 -54t155.5 54t55.5 144h119q0 -134 -88.5 -216t-241.5 -82t-241.5 82t-88.5 216z" />
    <glyph glyph-name="Edotaccent" unicode="&#x116;" horiz-adv-x="1197" 
d="M621 1577q-44 0 -74.5 30.5t-30.5 73.5t31 74t74 31t74 -31t31 -74t-30.5 -73.5t-74.5 -30.5zM1057 124v-124h-872v1443h872v-124h-735v-519h698v-122h-698v-554h735z" />
    <glyph glyph-name="edotaccent" unicode="&#x117;" horiz-adv-x="1174" 
d="M595 1280q-45 0 -77 32.5t-32 77.5t32 77t77 32t77 -32t32 -77t-32 -77.5t-77 -32.5zM595 979q-147 0 -241 -100.5t-103 -266.5h671q-2 167 -91.5 267t-235.5 100zM909 266h133q-40 -132 -158 -208t-287 -76q-222 0 -352 150.5t-130 405.5q0 254 130.5 405.5t350.5 151.5
q215 0 339 -143t124 -390v-58h-809v-6q5 -183 99.5 -291t250.5 -108q114 0 194 43.5t115 123.5z" />
    <glyph glyph-name="Eogonek" unicode="&#x118;" horiz-adv-x="1197" 
d="M850 0h-665v1443h872v-124h-735v-519h698v-122h-698v-554h735v-115l-33 -12q-88 -32 -143.5 -82t-55.5 -112q0 -49 36 -78.5t88 -29.5q46 0 67 7v-104q-40 -14 -94 -14q-100 0 -163 55t-63 137q0 67 42 122.5t112 89.5v12z" />
    <glyph glyph-name="eogonek" unicode="&#x119;" horiz-adv-x="1174" 
d="M595 979q-147 0 -241 -100.5t-103 -266.5h671q-2 167 -91.5 267t-235.5 100zM564 -224q0 125 136 212v13q-36 -19 -103 -19q-222 0 -352 150.5t-130 405.5q0 254 130.5 405.5t350.5 151.5q215 0 339 -143t124 -390v-58h-809v-6q5 -183 99.5 -291t250.5 -108
q114 0 194 43.5t115 123.5h133q-14 -51 -58.5 -112.5t-108.5 -109.5q-95 -71 -138.5 -126.5t-43.5 -114.5q0 -49 35.5 -78.5t87.5 -29.5q46 0 67 7v-104q-42 -14 -93 -14q-100 0 -163 55t-63 137z" />
    <glyph glyph-name="Ecaron" unicode="&#x11a;" horiz-adv-x="1197" 
d="M685 1577h-128l-287 297h155l190 -203h12l190 203h155zM1057 124v-124h-872v1443h872v-124h-735v-519h698v-122h-698v-554h735z" />
    <glyph glyph-name="ecaron" unicode="&#x11b;" horiz-adv-x="1174" 
d="M672 1228h-154l-275 332h153l193 -243h12l193 243h153zM595 979q-147 0 -241 -100.5t-103 -266.5h671q-2 167 -91.5 267t-235.5 100zM909 266h133q-40 -132 -158 -208t-287 -76q-222 0 -352 150.5t-130 405.5q0 254 130.5 405.5t350.5 151.5q215 0 339 -143t124 -390v-58
h-809v-6q5 -183 99.5 -291t250.5 -108q114 0 194 43.5t115 123.5z" />
    <glyph glyph-name="Gcircumflex" unicode="&#x11c;" horiz-adv-x="1506" 
d="M832 1874l289 -297h-155l-190 202h-12l-190 -202h-155l289 297h124zM1375 559q0 -268 -164 -428.5t-438 -160.5q-293 0 -469.5 205.5t-176.5 546.5q0 339 176 545t467 206q231 0 391.5 -123t199.5 -329h-139q-45 155 -163 240t-289 85q-229 0 -366 -170t-137 -454
q0 -285 137.5 -455t368.5 -170q212 0 339 123.5t127 327.5v50h-440v121h576v-160z" />
    <glyph glyph-name="gcircumflex" unicode="&#x11d;" horiz-adv-x="1242" 
d="M682 1560l275 -332h-153l-193 243h-12l-193 -243h-153l275 332h154zM945 550q0 193 -95.5 310t-254.5 117q-160 0 -252.5 -115.5t-92.5 -309.5q0 -193 92.5 -308.5t252.5 -115.5q161 0 255.5 115t94.5 307zM606 -404q-184 0 -301 75.5t-138 202.5h139q18 -75 98 -119
t202 -44q156 0 246.5 76t90.5 207v242h-13q-48 -107 -142.5 -166t-218.5 -59q-207 0 -330.5 148.5t-123.5 392.5t124 393.5t330 149.5q123 0 223 -63t144 -168h12v213h126v-1093q0 -176 -128 -282t-340 -106z" />
    <glyph glyph-name="Gbreve" unicode="&#x11e;" horiz-adv-x="1506" 
d="M1375 559q0 -268 -164 -428.5t-438 -160.5q-293 0 -469.5 205.5t-176.5 546.5q0 339 176 545t467 206q231 0 391.5 -123t199.5 -329h-139q-45 155 -163 240t-289 85q-229 0 -366 -170t-137 -454q0 -285 137.5 -455t368.5 -170q212 0 339 123.5t127 327.5v50h-440v121h576
v-160zM440 1851h118q0 -81 57.5 -128.5t154.5 -47.5t154.5 47.5t57.5 128.5h118q0 -126 -89 -200t-241 -74t-241 74t-89 200z" />
    <glyph glyph-name="gbreve" unicode="&#x11f;" horiz-adv-x="1242" 
d="M274 1538h119q0 -90 55.5 -144t155.5 -54t155.5 54t55.5 144h119q0 -134 -88.5 -216t-241.5 -82t-241.5 82t-88.5 216zM945 550q0 193 -95.5 310t-254.5 117q-160 0 -252.5 -115.5t-92.5 -309.5q0 -193 92.5 -308.5t252.5 -115.5q161 0 255.5 115t94.5 307zM606 -404
q-184 0 -301 75.5t-138 202.5h139q18 -75 98 -119t202 -44q156 0 246.5 76t90.5 207v242h-13q-48 -107 -142.5 -166t-218.5 -59q-207 0 -330.5 148.5t-123.5 392.5t124 393.5t330 149.5q123 0 223 -63t144 -168h12v213h126v-1093q0 -176 -128 -282t-340 -106z" />
    <glyph glyph-name="Gdotaccent" unicode="&#x120;" horiz-adv-x="1506" 
d="M770 1577q-44 0 -74.5 30.5t-30.5 73.5t30.5 74t74.5 31t74.5 -31t30.5 -74t-30.5 -73.5t-74.5 -30.5zM1375 559q0 -268 -164 -428.5t-438 -160.5q-293 0 -469.5 205.5t-176.5 546.5q0 339 176 545t467 206q231 0 391.5 -123t199.5 -329h-139q-45 155 -163 240t-289 85
q-229 0 -366 -170t-137 -454q0 -285 137.5 -455t368.5 -170q212 0 339 123.5t127 327.5v50h-440v121h576v-160z" />
    <glyph glyph-name="gdotaccent" unicode="&#x121;" horiz-adv-x="1242" 
d="M605 1280q-45 0 -77 32.5t-32 77.5t32 77t77 32t77 -32t32 -77t-32 -77.5t-77 -32.5zM945 550q0 193 -95.5 310t-254.5 117q-160 0 -252.5 -115.5t-92.5 -309.5q0 -193 92.5 -308.5t252.5 -115.5q161 0 255.5 115t94.5 307zM606 -404q-184 0 -301 75.5t-138 202.5h139
q18 -75 98 -119t202 -44q156 0 246.5 76t90.5 207v242h-13q-48 -107 -142.5 -166t-218.5 -59q-207 0 -330.5 148.5t-123.5 392.5t124 393.5t330 149.5q123 0 223 -63t144 -168h12v213h126v-1093q0 -176 -128 -282t-340 -106z" />
    <glyph glyph-name="Gcommaaccent" unicode="&#x122;" horiz-adv-x="1506" 
d="M752 -506h-127l102 364h141zM1375 559q0 -268 -164 -428.5t-438 -160.5q-293 0 -469.5 205.5t-176.5 546.5q0 339 176 545t467 206q231 0 391.5 -123t199.5 -329h-139q-45 155 -163 240t-289 85q-229 0 -366 -170t-137 -454q0 -285 137.5 -455t368.5 -170
q212 0 339 123.5t127 327.5v50h-440v121h576v-160z" />
    <glyph glyph-name="gcommaaccent" unicode="&#x123;" horiz-adv-x="1242" 
d="M617 1647h127l-102 -364h-141zM945 550q0 193 -95.5 310t-254.5 117q-160 0 -252.5 -115.5t-92.5 -309.5q0 -193 92.5 -308.5t252.5 -115.5q161 0 255.5 115t94.5 307zM606 -404q-184 0 -301 75.5t-138 202.5h139q18 -75 98 -119t202 -44q156 0 246.5 76t90.5 207v242
h-13q-48 -107 -142.5 -166t-218.5 -59q-207 0 -330.5 148.5t-123.5 392.5t124 393.5t330 149.5q123 0 223 -63t144 -168h12v213h126v-1093q0 -176 -128 -282t-340 -106z" />
    <glyph glyph-name="Hcircumflex" unicode="&#x124;" horiz-adv-x="1488" 
d="M1303 0h-137v677h-844v-677h-137v1443h137v-642h844v642h137v-1443zM806 1874l289 -297h-155l-190 202h-12l-190 -202h-155l289 297h124z" />
    <glyph glyph-name="hcircumflex" unicode="&#x125;" horiz-adv-x="1210" 
d="M179 0v1506h131v-623h12q44 101 135 156.5t219 55.5q174 0 274 -104.5t100 -290.5v-700h-131v667q0 152 -71.5 231t-206.5 79q-151 0 -241 -93.5t-90 -243.5v-640h-131zM306 1937l289 -297h-155l-190 202h-12l-190 -202h-155l289 297h124z" />
    <glyph glyph-name="Hbar" unicode="&#x126;" horiz-adv-x="1488" 
d="M1166 801v294h-844v-294h844zM1447 1206v-111h-144v-1095h-137v677h-844v-677h-137v1095h-144v111h144v237h137v-237h844v237h137v-237h144z" />
    <glyph glyph-name="hbar" unicode="&#x127;" horiz-adv-x="1210" 
d="M310 883h12q44 101 135 156.5t219 55.5q174 0 274 -104.5t100 -290.5v-700h-131v667q0 152 -71.5 231t-206.5 79q-151 0 -241 -93.5t-90 -243.5v-640h-131v1279h-149v97h149v130h131v-130h272v-97h-272v-396z" />
    <glyph glyph-name="Itilde" unicode="&#x128;" horiz-adv-x="507" 
d="M322 0h-137v1443h137v-1443zM399 1577q-43 0 -78.5 17t-59.5 41.5t-45.5 48.5t-48 41t-55.5 17q-97 0 -101 -154h-106q0 119 55.5 187.5t148.5 68.5q45 0 82.5 -17t62.5 -41.5t47 -49t46 -41.5t49 -17q43 0 71 38t31 116h105q0 -115 -56 -185t-148 -70z" />
    <glyph glyph-name="itilde" unicode="&#x129;" horiz-adv-x="480" 
d="M175 0v1077h131v-1077h-131zM104 1388q-104 0 -104 -158h-111q0 121 56 191.5t153 70.5q43 0 79 -16.5t60.5 -39.5t46.5 -46t45.5 -39.5t47.5 -16.5q104 0 104 158h110q0 -121 -56 -191.5t-153 -70.5q-42 0 -78.5 16.5t-60.5 39.5t-46 46t-45.5 39.5t-47.5 16.5z" />
    <glyph glyph-name="Imacron" unicode="&#x12a;" horiz-adv-x="507" 
d="M322 0h-137v1443h137v-1443zM576 1619h-644v105h644v-105z" />
    <glyph glyph-name="imacron" unicode="&#x12b;" horiz-adv-x="480" 
d="M175 0v1077h131v-1077h-131zM571 1292h-662v106h662v-106z" />
    <glyph glyph-name="Ibreve" unicode="&#x12c;" horiz-adv-x="507" 
d="M322 0h-137v1443h137v-1443zM-76 1851h118q0 -81 57.5 -128.5t154.5 -47.5t154.5 47.5t57.5 128.5h118q0 -126 -89 -200t-241 -74t-241 74t-89 200z" />
    <glyph glyph-name="ibreve" unicode="&#x12d;" horiz-adv-x="480" 
d="M175 0v1077h131v-1077h-131zM-91 1538h119q0 -90 55.5 -144t155.5 -54t155.5 54t55.5 144h119q0 -134 -88.5 -216t-241.5 -82t-241.5 82t-88.5 216z" />
    <glyph glyph-name="Iogonek" unicode="&#x12e;" horiz-adv-x="507" 
d="M185 1443h137v-1443l-5 -3q-153 -87 -153 -194q0 -47 34.5 -77.5t88.5 -30.5q43 0 68 7v-104q-40 -14 -94 -14q-99 0 -162.5 54t-63.5 138q0 70 39 129.5t111 100.5v1437z" />
    <glyph glyph-name="iogonek" unicode="&#x12f;" horiz-adv-x="480" 
d="M240 1317q-40 0 -68.5 29t-28.5 69t28.5 68.5t68.5 28.5t69 -28.5t29 -68.5q0 -41 -29 -69.5t-69 -28.5zM175 8v1069h131v-1077l-6 -3q-152 -86 -152 -194q0 -49 35.5 -78.5t87.5 -29.5q47 0 68 7v-104q-42 -14 -94 -14q-100 0 -163 55t-63 137q0 71 40.5 131.5
t115.5 100.5z" />
    <glyph glyph-name="Idotaccent" unicode="&#x130;" horiz-adv-x="507" 
d="M322 0h-137v1443h137v-1443zM254 1577q-44 0 -74.5 30.5t-30.5 73.5t30.5 74t74.5 31t74.5 -31t30.5 -74t-30.5 -73.5t-74.5 -30.5z" />
    <glyph glyph-name="dotlessi" unicode="&#x131;" horiz-adv-x="480" 
d="M175 0v1077h131v-1077h-131z" />
    <glyph glyph-name="u0132" unicode="&#x132;" horiz-adv-x="1595" 
d="M322 0h-137v1443h137v-1443zM599 330h136q5 -103 78 -168t186 -65q131 0 202.5 78.5t71.5 222.5v1045h137v-1050q0 -197 -110 -310t-300 -113q-175 0 -287.5 100.5t-113.5 259.5z" />
    <glyph glyph-name="u0133" unicode="&#x133;" horiz-adv-x="977" 
d="M175 0v1077h131v-1077h-131zM240 1317q-40 0 -68.5 29t-28.5 69t28.5 68.5t68.5 28.5t69 -28.5t29 -68.5q0 -41 -29 -69.5t-69 -28.5zM795 1077v-1145q0 -156 -74.5 -227.5t-228.5 -71.5h-24v113h21q94 0 134.5 42.5t40.5 139.5v1149h131zM729 1317q-40 0 -68.5 29
t-28.5 69t28.5 68.5t68.5 28.5t69 -28.5t29 -68.5q0 -41 -28.5 -69.5t-69.5 -28.5z" />
    <glyph glyph-name="Jcircumflex" unicode="&#x134;" horiz-adv-x="1088" 
d="M92 330h136q5 -103 78 -168t186 -65q131 0 202.5 78.5t71.5 222.5v1045h137v-1050q0 -197 -110 -310t-300 -113q-175 0 -287.5 100.5t-113.5 259.5zM897 1874l289 -297h-155l-190 202h-12l-190 -202h-155l289 297h124z" />
    <glyph glyph-name="jcircumflex" unicode="&#x135;" horiz-adv-x="480" 
d="M302 1077v-1145q0 -156 -74.5 -227.5t-228.5 -71.5h-24v113h21q94 0 134.5 42.5t40.5 139.5v1149h131zM319 1560l275 -332h-153l-193 243h-12l-193 -243h-153l275 332h154z" />
    <glyph glyph-name="Kcommaaccent" unicode="&#x136;" horiz-adv-x="1311" 
d="M322 0h-137v1443h137v-746h12l683 746h171l-578 -623l637 -820h-177l-555 725l-193 -210v-515zM616 -506h-127l102 364h141z" />
    <glyph glyph-name="kcommaaccent" unicode="&#x137;" horiz-adv-x="1092" 
d="M322 573l526 504h164l-481 -462l503 -615h-168l-434 531l-122 -113v-418h-131v1506h131v-933h12zM561 -506h-127l102 364h141z" />
    <glyph glyph-name="Lacute" unicode="&#x139;" horiz-adv-x="1139" 
d="M167 1577l310 297h174l-326 -297h-158zM1044 124v-124h-859v1443h137v-1319h722z" />
    <glyph glyph-name="lacute" unicode="&#x13a;" horiz-adv-x="489" 
d="M157 1640l310 297h174l-326 -297h-158zM179 0v1506h131v-1506h-131z" />
    <glyph glyph-name="Lcommaaccent" unicode="&#x13b;" horiz-adv-x="1139" 
d="M594 -506h-127l102 364h141zM1044 124v-124h-859v1443h137v-1319h722z" />
    <glyph glyph-name="lcommaaccent" unicode="&#x13c;" horiz-adv-x="489" 
d="M223 -506h-127l102 364h141zM179 0v1506h131v-1506h-131z" />
    <glyph glyph-name="Lcaron" unicode="&#x13d;" horiz-adv-x="1139" 
d="M550 1443h130l-36 -473h-94v473zM1044 124v-124h-859v1443h137v-1319h722z" />
    <glyph glyph-name="lcaron" unicode="&#x13e;" horiz-adv-x="578" 
d="M456 1506h130l-37 -444h-93v444zM179 0v1506h131v-1506h-131z" />
    <glyph glyph-name="Lslash" unicode="&#x141;" horiz-adv-x="1139" 
d="M322 124h722v-124h-859v727l-168 -82v111l168 82v605h137v-538l315 153v-111l-315 -153v-670z" />
    <glyph glyph-name="lslash" unicode="&#x142;" horiz-adv-x="489" 
d="M447 979v-112l-137 -72v-795h-131v727l-137 -72v113l137 71v667h131v-598z" />
    <glyph glyph-name="Nacute" unicode="&#x143;" horiz-adv-x="1494" 
d="M660 1577l310 297h174l-326 -297h-158zM320 0h-135v1443h135l841 -1198h13v1198h135v-1443h-132l-844 1199h-13v-1199z" />
    <glyph glyph-name="nacute" unicode="&#x144;" horiz-adv-x="1192" 
d="M522 1267l250 327h168l-269 -327h-149zM169 0v1077h125v-194h13q43 101 132 156.5t216 55.5q180 0 278.5 -103.5t98.5 -291.5v-700h-131v667q0 310 -281 310q-143 0 -231.5 -92.5t-88.5 -244.5v-640h-131z" />
    <glyph glyph-name="Ncommaaccent" unicode="&#x145;" horiz-adv-x="1494" 
d="M726 -506h-127l102 364h141zM320 0h-135v1443h135l841 -1198h13v1198h135v-1443h-132l-844 1199h-13v-1199z" />
    <glyph glyph-name="ncommaaccent" unicode="&#x146;" horiz-adv-x="1192" 
d="M575 -506h-127l102 364h141zM169 0v1077h125v-194h13q43 101 132 156.5t216 55.5q180 0 278.5 -103.5t98.5 -291.5v-700h-131v667q0 310 -281 310q-143 0 -231.5 -92.5t-88.5 -244.5v-640h-131z" />
    <glyph glyph-name="Ncaron" unicode="&#x147;" horiz-adv-x="1494" 
d="M811 1577h-128l-287 297h155l190 -203h12l190 203h155zM320 0h-135v1443h135l841 -1198h13v1198h135v-1443h-132l-844 1199h-13v-1199z" />
    <glyph glyph-name="ncaron" unicode="&#x148;" horiz-adv-x="1192" 
d="M688 1228h-154l-275 332h153l193 -243h12l193 243h153zM169 0v1077h125v-194h13q43 101 132 156.5t216 55.5q180 0 278.5 -103.5t98.5 -291.5v-700h-131v667q0 310 -281 310q-143 0 -231.5 -92.5t-88.5 -244.5v-640h-131z" />
    <glyph glyph-name="Omacron" unicode="&#x14c;" horiz-adv-x="1561" 
d="M781 1473q303 0 477.5 -202t174.5 -549t-174.5 -549.5t-477.5 -202.5q-304 0 -479 202.5t-175 549.5q0 346 176 548.5t478 202.5zM781 1346q-236 0 -375 -168.5t-139 -455.5q0 -286 138 -455.5t376 -169.5q237 0 374.5 169.5t137.5 455.5q0 287 -137.5 455.5
t-374.5 168.5zM1103 1619h-644v105h644v-105z" />
    <glyph glyph-name="omacron" unicode="&#x14d;" horiz-adv-x="1208" 
d="M935 1292h-662v106h662v-106zM604 101q166 0 260 116.5t94 321.5t-94 321.5t-260 116.5t-260 -116.5t-94 -321.5t94 -321.5t260 -116.5zM604 -18q-226 0 -357.5 149.5t-131.5 407.5t131.5 407t357.5 149t358 -149t132 -407t-132 -407.5t-358 -149.5z" />
    <glyph glyph-name="Obreve" unicode="&#x14e;" horiz-adv-x="1561" 
d="M781 1473q303 0 477.5 -202t174.5 -549t-174.5 -549.5t-477.5 -202.5q-304 0 -479 202.5t-175 549.5q0 346 176 548.5t478 202.5zM781 1346q-236 0 -375 -168.5t-139 -455.5q0 -286 138 -455.5t376 -169.5q237 0 374.5 169.5t137.5 455.5q0 287 -137.5 455.5
t-374.5 168.5zM451 1851h118q0 -81 57.5 -128.5t154.5 -47.5t154.5 47.5t57.5 128.5h118q0 -126 -89 -200t-241 -74t-241 74t-89 200z" />
    <glyph glyph-name="obreve" unicode="&#x14f;" horiz-adv-x="1208" 
d="M273 1538h119q0 -90 55.5 -144t155.5 -54t155.5 54t55.5 144h119q0 -134 -88.5 -216t-241.5 -82t-241.5 82t-88.5 216zM604 101q166 0 260 116.5t94 321.5t-94 321.5t-260 116.5t-260 -116.5t-94 -321.5t94 -321.5t260 -116.5zM604 -18q-226 0 -357.5 149.5t-131.5 407.5
t131.5 407t357.5 149t358 -149t132 -407t-132 -407.5t-358 -149.5z" />
    <glyph glyph-name="Ohungarumlaut" unicode="&#x150;" horiz-adv-x="1561" 
d="M831 1577l309 297h174l-325 -297h-158zM468 1577l309 297h174l-326 -297h-157zM781 1473q303 0 477.5 -202t174.5 -549t-174.5 -549.5t-477.5 -202.5q-304 0 -479 202.5t-175 549.5q0 346 176 548.5t478 202.5zM781 1346q-236 0 -375 -168.5t-139 -455.5
q0 -286 138 -455.5t376 -169.5q237 0 374.5 169.5t137.5 455.5q0 287 -137.5 455.5t-374.5 168.5z" />
    <glyph glyph-name="ohungarumlaut" unicode="&#x151;" horiz-adv-x="1208" 
d="M677 1264l250 330h161l-271 -330h-140zM325 1264l250 330h161l-271 -330h-140zM604 101q166 0 260 116.5t94 321.5t-94 321.5t-260 116.5t-260 -116.5t-94 -321.5t94 -321.5t260 -116.5zM604 -18q-226 0 -357.5 149.5t-131.5 407.5t131.5 407t357.5 149t358 -149
t132 -407t-132 -407.5t-358 -149.5z" />
    <glyph glyph-name="OE" unicode="&#x152;" horiz-adv-x="2321" 
d="M788 1346q-240 0 -380.5 -168t-140.5 -456q0 -289 140 -457t381 -168q234 0 370 168t136 457t-136 456.5t-370 167.5zM1309 0v302h-12q-66 -153 -207 -242.5t-316 -89.5q-299 0 -473 202.5t-174 549.5q0 345 174.5 548t472.5 203q173 0 315 -88t208 -237h12v295h872v-124
h-748v-519h711v-122h-711v-554h748v-124h-872z" />
    <glyph glyph-name="oe" unicode="&#x153;" horiz-adv-x="2018" 
d="M1442 -18q-148 0 -261.5 78t-148.5 203h-12q-35 -126 -150 -203.5t-266 -77.5q-226 0 -357.5 150t-131.5 407t131.5 407t357.5 150q148 0 260 -77t156 -208h13q44 131 153.5 207.5t252.5 76.5q214 0 339 -143.5t125 -389.5v-57h-808v-6q5 -182 99.5 -291t249.5 -109
q114 0 194.5 43.5t114.5 123.5h133q-40 -132 -158 -208t-286 -76zM1438 979q-146 0 -239.5 -100t-103.5 -266h671q-2 164 -92.5 265t-235.5 101zM604 101q166 0 260 116t94 320q0 206 -94.5 323t-259.5 117q-166 0 -260 -116.5t-94 -321.5t94 -321.5t260 -116.5z" />
    <glyph glyph-name="Racute" unicode="&#x154;" horiz-adv-x="1309" 
d="M504 1577l310 297h174l-326 -297h-158zM322 1321v-608h369q157 0 244.5 80t87.5 224q0 142 -90 223t-248 81h-363zM322 591v-591h-137v1443h517q211 0 336 -114.5t125 -307.5q0 -153 -82 -261.5t-227 -146.5l350 -613h-160l-332 591h-21h-369z" />
    <glyph glyph-name="racute" unicode="&#x155;" horiz-adv-x="754" 
d="M285 1267l250 327h168l-269 -327h-149zM169 0v1077h125v-177h13q27 88 110 141.5t190 53.5q64 0 101 -9v-131q-45 13 -117 13q-125 0 -208 -84.5t-83 -211.5v-672h-131z" />
    <glyph glyph-name="Rcommaaccent" unicode="&#x156;" horiz-adv-x="1309" 
d="M322 1321v-608h369q157 0 244.5 80t87.5 224q0 142 -90 223t-248 81h-363zM322 591v-591h-137v1443h517q211 0 336 -114.5t125 -307.5q0 -153 -82 -261.5t-227 -146.5l350 -613h-160l-332 591h-21h-369zM579 -506h-127l102 364h141z" />
    <glyph glyph-name="rcommaaccent" unicode="&#x157;" horiz-adv-x="754" 
d="M169 0v1077h125v-177h13q27 88 110 141.5t190 53.5q64 0 101 -9v-131q-45 13 -117 13q-125 0 -208 -84.5t-83 -211.5v-672h-131zM213 -506h-127l102 364h141z" />
    <glyph glyph-name="Rcaron" unicode="&#x158;" horiz-adv-x="1309" 
d="M322 1321v-608h369q157 0 244.5 80t87.5 224q0 142 -90 223t-248 81h-363zM322 591v-591h-137v1443h517q211 0 336 -114.5t125 -307.5q0 -153 -82 -261.5t-227 -146.5l350 -613h-160l-332 591h-21h-369zM655 1577h-128l-287 297h155l190 -203h12l190 203h155z" />
    <glyph glyph-name="rcaron" unicode="&#x159;" horiz-adv-x="754" 
d="M451 1228h-154l-275 332h153l193 -243h12l193 243h153zM169 0v1077h125v-177h13q27 88 110 141.5t190 53.5q64 0 101 -9v-131q-45 13 -117 13q-125 0 -208 -84.5t-83 -211.5v-672h-131z" />
    <glyph glyph-name="Sacute" unicode="&#x15a;" horiz-adv-x="1284" 
d="M563 1577l310 297h174l-326 -297h-158zM115 375h138q14 -124 126.5 -202t277.5 -78q161 0 266 80t105 201q0 102 -77.5 170t-244.5 109l-165 42q-203 50 -294 139.5t-91 236.5q0 176 137.5 288t356.5 112q206 0 345 -108.5t150 -274.5h-138q-17 116 -114.5 187t-246.5 71
q-155 0 -252.5 -76.5t-97.5 -194.5q0 -94 72 -153.5t237 -100.5l143 -36q223 -55 321.5 -148.5t98.5 -247.5q0 -189 -143.5 -305t-379.5 -116q-224 0 -370.5 112t-159.5 293z" />
    <glyph glyph-name="sacute" unicode="&#x15b;" horiz-adv-x="1058" 
d="M144 792q0 129 112.5 216t276.5 87q163 0 270 -75.5t125 -203.5h-129q-18 76 -89.5 121.5t-177.5 45.5q-107 0 -181.5 -53t-74.5 -133q0 -66 52 -107t162 -67l148 -35q159 -38 234 -106.5t75 -183.5q0 -138 -119 -227t-297 -89q-176 0 -290 77.5t-130 210.5h136
q22 -82 97 -129t191 -47q119 0 198 55t79 139q0 70 -51 113.5t-160 69.5l-163 39q-152 37 -223 103.5t-71 178.5zM441 1267l250 327h168l-269 -327h-149z" />
    <glyph glyph-name="Scircumflex" unicode="&#x15c;" horiz-adv-x="1284" 
d="M115 375h138q14 -124 126.5 -202t277.5 -78q161 0 266 80t105 201q0 102 -77.5 170t-244.5 109l-165 42q-203 50 -294 139.5t-91 236.5q0 176 137.5 288t356.5 112q206 0 345 -108.5t150 -274.5h-138q-17 116 -114.5 187t-246.5 71q-155 0 -252.5 -76.5t-97.5 -194.5
q0 -94 72 -153.5t237 -100.5l143 -36q223 -55 321.5 -148.5t98.5 -247.5q0 -189 -143.5 -305t-379.5 -116q-224 0 -370.5 112t-159.5 293zM712 1874l289 -297h-155l-190 202h-12l-190 -202h-155l289 297h124z" />
    <glyph glyph-name="scircumflex" unicode="&#x15d;" horiz-adv-x="1058" 
d="M607 1560l275 -332h-153l-193 243h-12l-193 -243h-153l275 332h154zM144 792q0 129 112.5 216t276.5 87q163 0 270 -75.5t125 -203.5h-129q-18 76 -89.5 121.5t-177.5 45.5q-107 0 -181.5 -53t-74.5 -133q0 -66 52 -107t162 -67l148 -35q159 -38 234 -106.5t75 -183.5
q0 -138 -119 -227t-297 -89q-176 0 -290 77.5t-130 210.5h136q22 -82 97 -129t191 -47q119 0 198 55t79 139q0 70 -51 113.5t-160 69.5l-163 39q-152 37 -223 103.5t-71 178.5z" />
    <glyph glyph-name="Scedilla" unicode="&#x15e;" horiz-adv-x="1284" 
d="M605 823l143 -36q223 -55 321.5 -148.5t98.5 -247.5q0 -178 -127.5 -291.5t-341.5 -127.5l-46 -114q100 0 156.5 -41.5t56.5 -118.5q0 -81 -63 -131.5t-168 -50.5q-78 0 -143 20v87q50 -18 127 -18q60 0 96 24t36 66q0 81 -155 81h-56v67l52 129q-203 14 -334 123.5
t-143 279.5h138q14 -124 126.5 -202t277.5 -78q161 0 266 80t105 201q0 102 -77.5 170t-244.5 109l-165 42q-203 50 -294 139.5t-91 236.5q0 176 137.5 288t356.5 112q206 0 345 -108.5t150 -274.5h-138q-17 116 -114.5 187t-246.5 71q-155 0 -252.5 -76.5t-97.5 -194.5
q0 -94 72 -153.5t237 -100.5z" />
    <glyph glyph-name="scedilla" unicode="&#x15f;" horiz-adv-x="1058" 
d="M490 623l148 -35q159 -38 234 -106.5t75 -183.5q0 -126 -100 -212t-257 -101l-51 -127q100 0 156.5 -41.5t56.5 -118.5q0 -81 -63 -131.5t-168 -50.5q-78 0 -143 20v87q50 -18 127 -18q60 0 96 24t36 66q0 81 -155 81h-56v67l57 141q-158 11 -257.5 87t-114.5 199h136
q22 -82 97 -129t191 -47q119 0 198 55t79 139q0 70 -51 113.5t-160 69.5l-163 39q-152 37 -223 103.5t-71 178.5q0 129 112.5 216t276.5 87q163 0 270 -75.5t125 -203.5h-129q-18 76 -89.5 121.5t-177.5 45.5q-107 0 -181.5 -53t-74.5 -133q0 -66 52 -107t162 -67z" />
    <glyph glyph-name="Scaron" unicode="&#x160;" horiz-adv-x="1284" 
d="M115 375h138q14 -124 126.5 -202t277.5 -78q161 0 266 80t105 201q0 102 -77.5 170t-244.5 109l-165 42q-203 50 -294 139.5t-91 236.5q0 176 137.5 288t356.5 112q206 0 345 -108.5t150 -274.5h-138q-17 116 -114.5 187t-246.5 71q-155 0 -252.5 -76.5t-97.5 -194.5
q0 -94 72 -153.5t237 -100.5l143 -36q223 -55 321.5 -148.5t98.5 -247.5q0 -189 -143.5 -305t-379.5 -116q-224 0 -370.5 112t-159.5 293zM714 1577h-128l-287 297h155l190 -203h12l190 203h155z" />
    <glyph glyph-name="scaron" unicode="&#x161;" horiz-adv-x="1058" 
d="M607 1228h-154l-275 332h153l193 -243h12l193 243h153zM144 792q0 129 112.5 216t276.5 87q163 0 270 -75.5t125 -203.5h-129q-18 76 -89.5 121.5t-177.5 45.5q-107 0 -181.5 -53t-74.5 -133q0 -66 52 -107t162 -67l148 -35q159 -38 234 -106.5t75 -183.5
q0 -138 -119 -227t-297 -89q-176 0 -290 77.5t-130 210.5h136q22 -82 97 -129t191 -47q119 0 198 55t79 139q0 70 -51 113.5t-160 69.5l-163 39q-152 37 -223 103.5t-71 178.5z" />
    <glyph glyph-name="Tcedilla" unicode="&#x162;" horiz-adv-x="1280" 
d="M1192 1319h-484v-1319h1l-57 -142q100 0 156.5 -41.5t56.5 -118.5q0 -81 -63 -131.5t-168 -50.5q-78 0 -143 20v87q50 -18 127 -18q60 0 96 24t36 66q0 81 -155 81h-56v67l64 157h-31v1319h-484v124h1104v-124z" />
    <glyph glyph-name="tcedilla" unicode="&#x163;" horiz-adv-x="724" 
d="M390 -484q-79 0 -143 20v87q50 -18 126 -18q61 0 96.5 24t35.5 66q0 81 -154 81h-56v67l71 176q-67 27 -98 87.5t-31 161.5v698h-176v111h176v280h131v-280h249v-111h-249v-668q0 -99 40 -143.5t131 -44.5q44 0 77 3v-112q-40 -7 -91 -7q-24 0 -62 4l-55 -140
q100 0 156.5 -41.5t56.5 -118.5q0 -81 -63.5 -131.5t-167.5 -50.5z" />
    <glyph glyph-name="Tcaron" unicode="&#x164;" horiz-adv-x="1280" 
d="M704 1577h-128l-287 297h155l190 -203h12l190 203h155zM708 0h-136v1319h-484v124h1104v-124h-484v-1319z" />
    <glyph glyph-name="tcaron" unicode="&#x165;" horiz-adv-x="724" 
d="M591 1233h-93v444h130zM237 1357h131v-280h249v-111h-249v-668q0 -99 40 -143.5t131 -44.5q45 0 78 3v-112q-40 -7 -92 -7q-155 0 -221.5 63.5t-66.5 210.5v698h-176v111h176v280z" />
    <glyph glyph-name="Tbar" unicode="&#x166;" horiz-adv-x="1280" 
d="M1192 1319h-484v-531h304v-110h-304v-678h-136v678h-304v110h304v531h-484v124h1104v-124z" />
    <glyph glyph-name="tbar" unicode="&#x167;" horiz-adv-x="705" 
d="M623 539h-255v-241q0 -99 40 -143.5t131 -44.5q45 0 78 3v-112q-40 -7 -92 -7q-155 0 -221.5 63.5t-66.5 210.5v271h-172v111h172v316h-176v111h176v280h131v-280h249v-111h-249v-316h255v-111z" />
    <glyph glyph-name="Utilde" unicode="&#x168;" horiz-adv-x="1494" 
d="M325 1443v-934q0 -183 114 -296t308 -113t308 113t114 296v934h137v-943q0 -237 -151 -381.5t-408 -144.5q-256 0 -407 144.5t-151 381.5v943h136zM892 1577q-43 0 -78.5 17t-59.5 41.5t-45.5 48.5t-48 41t-55.5 17q-97 0 -101 -154h-106q0 119 55.5 187.5t148.5 68.5
q45 0 82.5 -17t62.5 -41.5t47 -49t46 -41.5t49 -17q43 0 71 38t31 116h105q0 -115 -56 -185t-148 -70z" />
    <glyph glyph-name="utilde" unicode="&#x169;" horiz-adv-x="1193" 
d="M1024 1077v-1077h-125v194h-12q-41 -101 -132 -156.5t-219 -55.5q-179 0 -277.5 104.5t-98.5 290.5v700h131v-667q0 -151 70.5 -229.5t208.5 -78.5q150 0 236.5 90.5t86.5 244.5v640h131zM456 1388q-104 0 -104 -158h-111q0 121 56 191.5t153 70.5q43 0 79 -16.5
t60.5 -39.5t46.5 -46t45.5 -39.5t47.5 -16.5q104 0 104 158h110q0 -121 -56 -191.5t-153 -70.5q-42 0 -78.5 16.5t-60.5 39.5t-46 46t-45.5 39.5t-47.5 16.5z" />
    <glyph glyph-name="Umacron" unicode="&#x16a;" horiz-adv-x="1494" 
d="M325 1443v-934q0 -183 114 -296t308 -113t308 113t114 296v934h137v-943q0 -237 -151 -381.5t-408 -144.5q-256 0 -407 144.5t-151 381.5v943h136zM1069 1619h-644v105h644v-105z" />
    <glyph glyph-name="umacron" unicode="&#x16b;" horiz-adv-x="1193" 
d="M1024 1077v-1077h-125v194h-12q-41 -101 -132 -156.5t-219 -55.5q-179 0 -277.5 104.5t-98.5 290.5v700h131v-667q0 -151 70.5 -229.5t208.5 -78.5q150 0 236.5 90.5t86.5 244.5v640h131zM923 1292h-662v106h662v-106z" />
    <glyph glyph-name="Ubreve" unicode="&#x16c;" horiz-adv-x="1494" 
d="M325 1443v-934q0 -183 114 -296t308 -113t308 113t114 296v934h137v-943q0 -237 -151 -381.5t-408 -144.5q-256 0 -407 144.5t-151 381.5v943h136zM417 1851h118q0 -81 57.5 -128.5t154.5 -47.5t154.5 47.5t57.5 128.5h118q0 -126 -89 -200t-241 -74t-241 74t-89 200z
" />
    <glyph glyph-name="ubreve" unicode="&#x16d;" horiz-adv-x="1193" 
d="M1024 1077v-1077h-125v194h-12q-41 -101 -132 -156.5t-219 -55.5q-179 0 -277.5 104.5t-98.5 290.5v700h131v-667q0 -151 70.5 -229.5t208.5 -78.5q150 0 236.5 90.5t86.5 244.5v640h131zM261 1538h119q0 -90 55.5 -144t155.5 -54t155.5 54t55.5 144h119
q0 -134 -88.5 -216t-241.5 -82t-241.5 82t-88.5 216z" />
    <glyph glyph-name="Uring" unicode="&#x16e;" horiz-adv-x="1494" 
d="M747 1556q-79 0 -134.5 55t-55.5 134t55.5 133.5t134.5 54.5t134.5 -54.5t55.5 -133.5t-55.5 -134t-134.5 -55zM747 1632q48 0 80.5 32.5t32.5 80.5t-32 80.5t-81 32.5t-81 -32.5t-32 -80.5t32 -80.5t81 -32.5zM325 1443v-934q0 -183 114 -296t308 -113t308 113t114 296
v934h137v-943q0 -237 -151 -381.5t-408 -144.5q-256 0 -407 144.5t-151 381.5v943h136z" />
    <glyph glyph-name="uring" unicode="&#x16f;" horiz-adv-x="1193" 
d="M1024 1077v-1077h-125v194h-12q-41 -101 -132 -156.5t-219 -55.5q-179 0 -277.5 104.5t-98.5 290.5v700h131v-667q0 -151 70.5 -229.5t208.5 -78.5q150 0 236.5 90.5t86.5 244.5v640h131zM592 1228q-89 0 -151 61t-62 150q0 88 62 149t151 61t151 -61t62 -149
q0 -89 -62 -150t-151 -61zM592 1313q53 0 89 36.5t36 89.5t-36 89t-89 36t-89 -36t-36 -89t36 -89.5t89 -36.5z" />
    <glyph glyph-name="Uhungarumlaut" unicode="&#x170;" horiz-adv-x="1494" 
d="M325 1443v-934q0 -183 114 -296t308 -113t308 113t114 296v934h137v-943q0 -237 -151 -381.5t-408 -144.5q-256 0 -407 144.5t-151 381.5v943h136zM797 1577l309 297h174l-325 -297h-158zM434 1577l309 297h174l-326 -297h-157z" />
    <glyph glyph-name="uhungarumlaut" unicode="&#x171;" horiz-adv-x="1193" 
d="M665 1264l250 330h161l-271 -330h-140zM313 1264l250 330h161l-271 -330h-140zM1024 1077v-1077h-125v194h-12q-41 -101 -132 -156.5t-219 -55.5q-179 0 -277.5 104.5t-98.5 290.5v700h131v-667q0 -151 70.5 -229.5t208.5 -78.5q150 0 236.5 90.5t86.5 244.5v640h131z
" />
    <glyph glyph-name="Uogonek" unicode="&#x172;" horiz-adv-x="1494" 
d="M996 -416q-100 0 -163 55t-63 137q0 126 139 214v13q-63 -33 -162 -33q-253 0 -405.5 144t-152.5 383v946h136v-938q0 -185 115.5 -296.5t306.5 -111.5q192 0 307 111.5t115 296.5v938h137v-946q0 -138 -58.5 -250.5t-185.5 -218.5q-163 -127 -163 -225q0 -49 35.5 -78.5
t87.5 -29.5q46 0 67 7v-104q-40 -14 -93 -14z" />
    <glyph glyph-name="uogonek" unicode="&#x173;" horiz-adv-x="1193" 
d="M699 -224q0 79 54.5 141.5t145.5 96.5v180h-12q-41 -101 -132 -156.5t-219 -55.5q-179 0 -277.5 104.5t-98.5 290.5v700h131v-667q0 -151 70.5 -229.5t208.5 -78.5q150 0 236.5 90.5t86.5 244.5v640h131v-1077l-10 -4q-186 -79 -186 -193q0 -47 34.5 -77.5t88.5 -30.5
q42 0 68 7v-104q-40 -14 -94 -14q-99 0 -162.5 54t-63.5 138z" />
    <glyph glyph-name="Wcircumflex" unicode="&#x174;" horiz-adv-x="1956" 
d="M1040 1874l289 -297h-155l-190 202h-12l-190 -202h-155l289 297h124zM973 1205l-354 -1205h-127l-397 1443h142l317 -1230h9l347 1230h136l347 -1230h9l317 1230h142l-397 -1443h-127l-354 1205h-10z" />
    <glyph glyph-name="wcircumflex" unicode="&#x175;" horiz-adv-x="1566" 
d="M859 1560l275 -332h-153l-193 243h-12l-193 -243h-153l275 332h154zM1499 1077l-307 -1077h-139l-265 894h-13l-265 -894h-138l-305 1077h133l239 -914h12l266 914h131l266 -914h12l241 914h132z" />
    <glyph glyph-name="Ycircumflex" unicode="&#x176;" horiz-adv-x="1321" 
d="M729 0h-136v624l-518 819h157l423 -680h12l423 680h156l-517 -819v-624zM723 1874l289 -297h-155l-190 202h-12l-190 -202h-155l289 297h124z" />
    <glyph glyph-name="ycircumflex" unicode="&#x177;" horiz-adv-x="1079" 
d="M245 -381q-27 0 -61 4v114q20 -4 59 -4q74 0 120 43t86 150l22 67l-404 1084h142l326 -934h12l325 934h140l-419 -1129q-72 -194 -144 -261.5t-204 -67.5zM613 1560l275 -332h-153l-193 243h-12l-193 -243h-153l275 332h154z" />
    <glyph glyph-name="Ydieresis" unicode="&#x178;" horiz-adv-x="1321" 
d="M729 0h-136v624l-518 819h157l423 -680h12l423 680h156l-517 -819v-624zM479 1568q-42 0 -72 29.5t-30 72.5t30 72.5t72 29.5q43 0 72.5 -29.5t29.5 -72.5t-29.5 -72.5t-72.5 -29.5zM843 1568q-42 0 -72 29.5t-30 72.5t30 72.5t72 29.5q43 0 72.5 -29.5t29.5 -72.5
t-29.5 -72.5t-72.5 -29.5z" />
    <glyph glyph-name="Zacute" unicode="&#x179;" horiz-adv-x="1328" 
d="M577 1577l310 297h174l-326 -297h-158zM138 0v99l863 1208v12h-834v124h1011v-100l-860 -1207v-12h872v-124h-1052z" />
    <glyph glyph-name="zacute" unicode="&#x17a;" horiz-adv-x="1082" 
d="M447 1267l250 327h168l-269 -327h-149zM131 0v100l660 854v12h-659v111h816v-101l-658 -853v-12h660v-111h-819z" />
    <glyph glyph-name="Zdotaccent" unicode="&#x17b;" horiz-adv-x="1328" 
d="M664 1577q-44 0 -74.5 30.5t-30.5 73.5t30.5 74t74.5 31t74.5 -31t30.5 -74t-30.5 -73.5t-74.5 -30.5zM138 0v99l863 1208v12h-834v124h1011v-100l-860 -1207v-12h872v-124h-1052z" />
    <glyph glyph-name="zdotaccent" unicode="&#x17c;" horiz-adv-x="1082" 
d="M536 1280q-45 0 -77 32.5t-32 77.5t32 77t77 32t77 -32t32 -77t-32 -77.5t-77 -32.5zM131 0v100l660 854v12h-659v111h816v-101l-658 -853v-12h660v-111h-819z" />
    <glyph glyph-name="Zcaron" unicode="&#x17d;" horiz-adv-x="1328" 
d="M138 0v99l863 1208v12h-834v124h1011v-100l-860 -1207v-12h872v-124h-1052zM728 1577h-128l-287 297h155l190 -203h12l190 203h155z" />
    <glyph glyph-name="zcaron" unicode="&#x17e;" horiz-adv-x="1082" 
d="M613 1228h-154l-275 332h153l193 -243h12l193 243h153zM131 0v100l660 854v12h-659v111h816v-101l-658 -853v-12h660v-111h-819z" />
    <glyph glyph-name="florin" unicode="&#x192;" horiz-adv-x="1321" 
d="M286 -22q-102 0 -198 23v127q90 -29 187 -29q218 0 253 224l64 418h-362v111h378l42 265q26 168 125 258.5t258 90.5q109 0 195 -20v-120q-71 20 -180 20q-230 0 -266 -238l-40 -256h395v-111h-412l-66 -429q-51 -334 -373 -334z" />
    <glyph glyph-name="Ohorn" unicode="&#x1a0;" horiz-adv-x="1579" 
d="M1433 722q0 -347 -174.5 -549.5t-477.5 -202.5q-304 0 -479 202.5t-175 549.5q0 346 176 548.5t478 202.5q70 0 195 -17t209 -17q80 0 110 23t30 84v129h122v-168q0 -84 -53.5 -127t-148.5 -43h-72v-9q118 -69 189 -234.5t71 -371.5zM781 1346q-236 0 -375 -168.5
t-139 -455.5q0 -286 138 -455.5t376 -169.5q237 0 375 170t137 455q0 287 -137.5 455.5t-374.5 168.5z" />
    <glyph glyph-name="ohorn" unicode="&#x1a1;" horiz-adv-x="1240" 
d="M1094 539q0 -257 -132 -407t-358 -150t-357.5 150t-131.5 407t131.5 406.5t357.5 149.5q64 0 147 -11t134 -11q67 0 92 21.5t25 76.5v132h122v-171q0 -75 -42.5 -114t-109.5 -39h-64v-6q85 -49 135.5 -164.5t50.5 -269.5zM604 101q166 0 260 116.5t94 321.5t-94 321.5
t-260 116.5t-260 -116.5t-94 -321.5t94 -321.5t260 -116.5z" />
    <glyph glyph-name="Uhorn" unicode="&#x1af;" horiz-adv-x="1629" 
d="M747 -26q-254 0 -406 143.5t-152 382.5v943h136v-934q0 -186 115.5 -297.5t306.5 -111.5q192 0 307 111.5t115 297.5v934h163q101 0 101 94v158h122v-182q0 -82 -51 -126t-138 -44h-60v-843q0 -239 -152.5 -382.5t-406.5 -143.5z" />
    <glyph glyph-name="uhorn" unicode="&#x1b0;" horiz-adv-x="1317" 
d="M536 -18q-179 0 -277.5 104.5t-98.5 290.5v700h131v-667q0 -151 70.5 -229.5t208.5 -78.5q150 0 236.5 90.5t86.5 244.5v640h137q100 0 100 94v143h123v-167q0 -82 -51 -126t-138 -44h-40v-977h-125v194h-12q-41 -101 -132 -156.5t-219 -55.5z" />
    <glyph glyph-name="u01C4" unicode="&#x1c4;" horiz-adv-x="2799" 
d="M185 1443h475q327 0 506 -191t179 -530q0 -340 -178.5 -531t-506.5 -191h-475v1443zM322 1319v-1195h330q263 0 408 158t145 439t-145 439.5t-408 158.5h-330zM1609 0v99l863 1208v12h-834v124h1011v-100l-860 -1207v-12h872v-124h-1052zM2199 1577h-128l-287 297h155
l190 -203h12l190 203h155z" />
    <glyph glyph-name="u01C5" unicode="&#x1c5;" horiz-adv-x="2553" 
d="M185 1443h475q327 0 506 -191t179 -530q0 -340 -178.5 -531t-506.5 -191h-475v1443zM322 1319v-1195h330q263 0 408 158t145 439t-145 439.5t-408 158.5h-330zM2084 1228h-154l-275 332h153l193 -243h12l193 243h153zM1602 0v100l660 854v12h-659v111h816v-101l-658 -853
v-12h660v-111h-819z" />
    <glyph glyph-name="u01C6" unicode="&#x1c6;" horiz-adv-x="2337" 
d="M571 -18q-206 0 -331 152.5t-125 403.5q0 250 125.5 403.5t330.5 153.5q123 0 220 -61t143 -167h12v639h131v-1506h-126v215h-12q-48 -108 -146.5 -170.5t-221.5 -62.5zM599 977q-160 0 -254.5 -119t-94.5 -319q0 -201 94.5 -319.5t254.5 -118.5q159 0 254 119t95 319
q0 198 -95.5 318t-253.5 120zM1869 1228h-154l-275 332h153l193 -243h12l193 243h153zM1387 0v100l660 854v12h-659v111h816v-101l-658 -853v-12h660v-111h-819z" />
    <glyph glyph-name="u01C7" unicode="&#x1c7;" horiz-adv-x="2227" 
d="M1231 330h136q5 -103 78 -168t186 -65q131 0 202.5 78.5t71.5 222.5v1045h137v-1050q0 -197 -110 -310t-300 -113q-175 0 -287.5 100.5t-113.5 259.5zM1044 124v-124h-859v1443h137v-1319h722z" />
    <glyph glyph-name="u01C8" unicode="&#x1c8;" horiz-adv-x="1627" 
d="M1445 1077v-1145q0 -156 -74.5 -227.5t-228.5 -71.5h-24v113h21q94 0 134.5 42.5t40.5 139.5v1149h131zM1379 1317q-40 0 -68.5 29t-28.5 69t28.5 68.5t68.5 28.5t69 -28.5t29 -68.5q0 -41 -28.5 -69.5t-69.5 -28.5zM1044 124v-124h-859v1443h137v-1319h722z" />
    <glyph glyph-name="u01C9" unicode="&#x1c9;" horiz-adv-x="977" 
d="M795 1077v-1145q0 -156 -74.5 -227.5t-228.5 -71.5h-24v113h21q94 0 134.5 42.5t40.5 139.5v1149h131zM729 1317q-40 0 -68.5 29t-28.5 69t28.5 68.5t68.5 28.5t69 -28.5t29 -68.5q0 -41 -28.5 -69.5t-69.5 -28.5zM179 0v1506h131v-1506h-131z" />
    <glyph glyph-name="u01CA" unicode="&#x1ca;" horiz-adv-x="2582" 
d="M1586 330h136q5 -103 78 -168t186 -65q131 0 202.5 78.5t71.5 222.5v1045h137v-1050q0 -197 -110 -310t-300 -113q-175 0 -287.5 100.5t-113.5 259.5zM320 0h-135v1443h135l841 -1198h13v1198h135v-1443h-132l-844 1199h-13v-1199z" />
    <glyph glyph-name="u01CB" unicode="&#x1cb;" horiz-adv-x="1983" 
d="M1800 1077v-1145q0 -156 -74.5 -227.5t-228.5 -71.5h-24v113h21q94 0 134.5 42.5t40.5 139.5v1149h131zM1734 1317q-40 0 -68.5 29t-28.5 69t28.5 68.5t68.5 28.5t69 -28.5t29 -68.5q0 -41 -29 -69.5t-69 -28.5zM320 0h-135v1443h135l841 -1198h13v1198h135v-1443h-132
l-844 1199h-13v-1199z" />
    <glyph glyph-name="u01CC" unicode="&#x1cc;" horiz-adv-x="1673" 
d="M1498 1077v-1145q0 -156 -74.5 -227.5t-228.5 -71.5h-24v113h21q94 0 134.5 42.5t40.5 139.5v1149h131zM1432 1317q-40 0 -68.5 29t-28.5 69t28.5 68.5t68.5 28.5t69 -28.5t29 -68.5q0 -41 -29 -69.5t-69 -28.5zM169 0v1077h125v-194h13q43 101 132 156.5t216 55.5
q180 0 278.5 -103.5t98.5 -291.5v-700h-131v667q0 310 -281 310q-143 0 -231.5 -92.5t-88.5 -244.5v-640h-131z" />
    <glyph glyph-name="Acaron" unicode="&#x1cd;" horiz-adv-x="1363" 
d="M1145 0l-160 442h-606l-160 -442h-145l540 1443h136l539 -1443h-144zM675 1264l-255 -704h524l-256 704h-13zM746 1577h-128l-287 297h155l190 -203h12l190 203h155z" />
    <glyph glyph-name="acaron" unicode="&#x1ce;" horiz-adv-x="1125" 
d="M491 98q145 0 242.5 87.5t97.5 215.5v126l-319 -23q-271 -19 -271 -204q0 -92 70 -147t180 -55zM469 -18q-160 0 -261.5 86.5t-101.5 229.5q0 140 100 220.5t288 93.5l337 22v104q0 116 -68.5 178t-199.5 62q-111 0 -186.5 -44.5t-94.5 -122.5h-133q19 128 133.5 206
t284.5 78q189 0 292.5 -93.5t103.5 -262.5v-739h-126v185h-12q-49 -96 -143 -149.5t-213 -53.5zM644 1228h-154l-275 332h153l193 -243h12l193 243h153z" />
    <glyph glyph-name="Icaron" unicode="&#x1cf;" horiz-adv-x="507" 
d="M322 0h-137v1443h137v-1443zM318 1577h-128l-287 297h155l190 -203h12l190 203h155z" />
    <glyph glyph-name="icaron" unicode="&#x1d0;" horiz-adv-x="480" 
d="M317 1228h-154l-275 332h153l193 -243h12l193 243h153zM175 0v1077h131v-1077h-131z" />
    <glyph glyph-name="Ocaron" unicode="&#x1d1;" horiz-adv-x="1561" 
d="M845 1577h-128l-287 297h155l190 -203h12l190 203h155zM781 1473q303 0 477.5 -202t174.5 -549t-174.5 -549.5t-477.5 -202.5q-304 0 -479 202.5t-175 549.5q0 346 176 548.5t478 202.5zM781 1346q-236 0 -375 -168.5t-139 -455.5q0 -286 138 -455.5t376 -169.5
q237 0 374.5 169.5t137.5 455.5q0 287 -137.5 455.5t-374.5 168.5z" />
    <glyph glyph-name="ocaron" unicode="&#x1d2;" horiz-adv-x="1208" 
d="M681 1228h-154l-275 332h153l193 -243h12l193 243h153zM604 101q166 0 260 116.5t94 321.5t-94 321.5t-260 116.5t-260 -116.5t-94 -321.5t94 -321.5t260 -116.5zM604 -18q-226 0 -357.5 149.5t-131.5 407.5t131.5 407t357.5 149t358 -149t132 -407t-132 -407.5
t-358 -149.5z" />
    <glyph glyph-name="Ucaron" unicode="&#x1d3;" horiz-adv-x="1494" 
d="M811 1577h-128l-287 297h155l190 -203h12l190 203h155zM325 1443v-934q0 -183 114 -296t308 -113t308 113t114 296v934h137v-943q0 -237 -151 -381.5t-408 -144.5q-256 0 -407 144.5t-151 381.5v943h136z" />
    <glyph glyph-name="ucaron" unicode="&#x1d4;" horiz-adv-x="1193" 
d="M669 1228h-154l-275 332h153l193 -243h12l193 243h153zM1024 1077v-1077h-125v194h-12q-41 -101 -132 -156.5t-219 -55.5q-179 0 -277.5 104.5t-98.5 290.5v700h131v-667q0 -151 70.5 -229.5t208.5 -78.5q150 0 236.5 90.5t86.5 244.5v640h131z" />
    <glyph glyph-name="Udieresismacron" unicode="&#x1d5;" horiz-adv-x="1494" 
d="M325 1443v-934q0 -183 114 -296t308 -113t308 113t114 296v934h137v-943q0 -237 -151 -381.5t-408 -144.5q-256 0 -407 144.5t-151 381.5v943h136zM428 1915v101h638v-101h-638zM565 1580q-41 0 -70 29t-29 70t29 70t70 29t70 -29t29 -70t-29 -70t-70 -29zM929 1580
q-41 0 -70 29t-29 70t29 70t70 29t70 -29t29 -70t-29 -70t-70 -29z" />
    <glyph glyph-name="udieresismacron" unicode="&#x1d6;" horiz-adv-x="1193" 
d="M1024 1077v-1077h-125v194h-12q-41 -101 -132 -156.5t-219 -55.5q-179 0 -277.5 104.5t-98.5 290.5v700h131v-667q0 -151 70.5 -229.5t208.5 -78.5q150 0 236.5 90.5t86.5 244.5v640h131zM410 1240q-41 0 -70 29t-29 70q0 42 29 70.5t70 28.5t70 -28.5t29 -70.5
q0 -41 -29 -70t-70 -29zM774 1240q-41 0 -70 29t-29 70q0 42 29 70.5t70 28.5t70 -28.5t29 -70.5q0 -41 -29 -70t-70 -29zM925 1614h-662v106h662v-106z" />
    <glyph glyph-name="Udieresisacute" unicode="&#x1d7;" horiz-adv-x="1494" 
d="M673 1839l231 217h174l-267 -217h-138zM565 1568q-42 0 -72 29.5t-30 72.5t30 72.5t72 29.5q43 0 72.5 -29.5t29.5 -72.5t-29.5 -72.5t-72.5 -29.5zM929 1568q-42 0 -72 29.5t-30 72.5t30 72.5t72 29.5q43 0 72.5 -29.5t29.5 -72.5t-29.5 -72.5t-72.5 -29.5zM325 1443
v-934q0 -183 114 -296t308 -113t308 113t114 296v934h137v-943q0 -237 -151 -381.5t-408 -144.5q-256 0 -407 144.5t-151 381.5v943h136z" />
    <glyph glyph-name="udieresisacute" unicode="&#x1d8;" horiz-adv-x="1193" 
d="M510 1554l207 296h154l-229 -296h-132zM410 1228q-42 0 -72 29.5t-30 72.5t30 72.5t72 29.5q43 0 72.5 -29.5t29.5 -72.5t-29.5 -72.5t-72.5 -29.5zM774 1228q-42 0 -72 29.5t-30 72.5t30 72.5t72 29.5q43 0 72.5 -29.5t29.5 -72.5t-29.5 -72.5t-72.5 -29.5zM1024 1077
v-1077h-125v194h-12q-41 -101 -132 -156.5t-219 -55.5q-179 0 -277.5 104.5t-98.5 290.5v700h131v-667q0 -151 70.5 -229.5t208.5 -78.5q150 0 236.5 90.5t86.5 244.5v640h131z" />
    <glyph glyph-name="Udieresiscaron" unicode="&#x1d9;" horiz-adv-x="1494" 
d="M565 1580q-41 0 -70 29t-29 70t29 70t70 29t70 -29t29 -70t-29 -70t-70 -29zM929 1580q-41 0 -70 29t-29 70t29 70t70 29t70 -29t29 -70t-29 -70t-70 -29zM820 1832h-146l-285 224h172l180 -146h12l180 146h172zM325 1443v-934q0 -183 114 -296t308 -113t308 113t114 296
v934h137v-943q0 -237 -151 -381.5t-408 -144.5q-256 0 -407 144.5t-151 381.5v943h136z" />
    <glyph glyph-name="udieresiscaron" unicode="&#x1da;" horiz-adv-x="1193" 
d="M410 1228q-41 0 -70 29t-29 70q0 42 29 71t70 29t70 -29t29 -71q0 -41 -29 -70t-70 -29zM774 1228q-41 0 -70 29t-29 70q0 42 29 71t70 29t70 -29t29 -71q0 -41 -29 -70t-70 -29zM669 1548h-154l-275 306h154l192 -217h12l192 217h154zM1024 1077v-1077h-125v194h-12
q-41 -101 -132 -156.5t-219 -55.5q-179 0 -277.5 104.5t-98.5 290.5v700h131v-667q0 -151 70.5 -229.5t208.5 -78.5q150 0 236.5 90.5t86.5 244.5v640h131z" />
    <glyph glyph-name="Udieresisgrave" unicode="&#x1db;" horiz-adv-x="1494" 
d="M833 1839h-138l-267 217h175zM565 1568q-42 0 -72 29.5t-30 72.5t30 72.5t72 29.5q43 0 72.5 -29.5t29.5 -72.5t-29.5 -72.5t-72.5 -29.5zM929 1568q-42 0 -72 29.5t-30 72.5t30 72.5t72 29.5q43 0 72.5 -29.5t29.5 -72.5t-29.5 -72.5t-72.5 -29.5zM325 1443v-934
q0 -183 114 -296t308 -113t308 113t114 296v934h137v-943q0 -237 -151 -381.5t-408 -144.5q-256 0 -407 144.5t-151 381.5v943h136z" />
    <glyph glyph-name="udieresisgrave" unicode="&#x1dc;" horiz-adv-x="1193" 
d="M674 1554h-132l-229 296h154zM410 1228q-42 0 -72 29.5t-30 72.5t30 72.5t72 29.5q43 0 72.5 -29.5t29.5 -72.5t-29.5 -72.5t-72.5 -29.5zM774 1228q-42 0 -72 29.5t-30 72.5t30 72.5t72 29.5q43 0 72.5 -29.5t29.5 -72.5t-29.5 -72.5t-72.5 -29.5zM1024 1077v-1077h-125
v194h-12q-41 -101 -132 -156.5t-219 -55.5q-179 0 -277.5 104.5t-98.5 290.5v700h131v-667q0 -151 70.5 -229.5t208.5 -78.5q150 0 236.5 90.5t86.5 244.5v640h131z" />
    <glyph glyph-name="Adieresismacron" unicode="&#x1de;" horiz-adv-x="1363" 
d="M1145 0l-160 442h-606l-160 -442h-145l540 1443h136l539 -1443h-144zM675 1264l-255 -704h524l-256 704h-13zM363 1915v101h638v-101h-638zM500 1580q-41 0 -70 29t-29 70t29 70t70 29t70 -29t29 -70t-29 -70t-70 -29zM864 1580q-41 0 -70 29t-29 70t29 70t70 29t70 -29
t29 -70t-29 -70t-70 -29z" />
    <glyph glyph-name="adieresismacron" unicode="&#x1df;" horiz-adv-x="1125" 
d="M491 98q145 0 242.5 87.5t97.5 215.5v126l-319 -23q-271 -19 -271 -204q0 -92 70 -147t180 -55zM469 -18q-160 0 -261.5 86.5t-101.5 229.5q0 140 100 220.5t288 93.5l337 22v104q0 116 -68.5 178t-199.5 62q-111 0 -186.5 -44.5t-94.5 -122.5h-133q19 128 133.5 206
t284.5 78q189 0 292.5 -93.5t103.5 -262.5v-739h-126v185h-12q-49 -96 -143 -149.5t-213 -53.5zM385 1240q-41 0 -70 29t-29 70q0 42 29 70.5t70 28.5t70 -28.5t29 -70.5q0 -41 -29 -70t-70 -29zM749 1240q-41 0 -70 29t-29 70q0 42 29 70.5t70 28.5t70 -28.5t29 -70.5
q0 -41 -29 -70t-70 -29zM900 1614h-662v106h662v-106z" />
    <glyph glyph-name="Adotmacron" unicode="&#x1e0;" horiz-adv-x="1363" 
d="M1145 0l-160 442h-606l-160 -442h-145l540 1443h136l539 -1443h-144zM675 1264l-255 -704h524l-256 704h-13zM682 1578q-43 0 -73.5 30.5t-30.5 73.5t30.5 73.5t73.5 30.5t73.5 -30.5t30.5 -73.5t-30.5 -73.5t-73.5 -30.5zM1004 1915h-644v101h644v-101z" />
    <glyph glyph-name="adotmacron" unicode="&#x1e1;" horiz-adv-x="1125" 
d="M491 98q145 0 242.5 87.5t97.5 215.5v126l-319 -23q-271 -19 -271 -204q0 -92 70 -147t180 -55zM469 -18q-160 0 -261.5 86.5t-101.5 229.5q0 140 100 220.5t288 93.5l337 22v104q0 116 -68.5 178t-199.5 62q-111 0 -186.5 -44.5t-94.5 -122.5h-133q19 128 133.5 206
t284.5 78q189 0 292.5 -93.5t103.5 -262.5v-739h-126v185h-12q-49 -96 -143 -149.5t-213 -53.5zM564 1228q-44 0 -73.5 30t-29.5 73t29.5 73t73.5 30t73.5 -30t29.5 -73t-29.5 -73t-73.5 -30zM897 1585h-662v106h662v-106z" />
    <glyph glyph-name="AEmacron" unicode="&#x1e2;" horiz-adv-x="1955" 
d="M1002 1327h-161l-365 -766h526v766zM1002 0v443h-581l-208 -443h-139l678 1443h1063v-124h-677v-526h640v-122h-640v-547h677v-124h-813zM1727 1619h-644v105h644v-105z" />
    <glyph glyph-name="aemacron" unicode="&#x1e3;" horiz-adv-x="1880" 
d="M1314 -18q-140 0 -249.5 71.5t-154.5 191.5h-12q-48 -123 -158 -193t-260 -70q-167 0 -270.5 85.5t-103.5 227.5q0 139 99.5 218t287.5 91l338 21v113q0 116 -68.5 178t-199.5 62q-111 0 -186.5 -44.5t-94.5 -122.5h-133q19 128 133.5 206t284.5 78q135 0 228 -60.5
t123 -164.5h13q46 99 148.5 162t231.5 63q212 0 333.5 -139.5t121.5 -382.5v-58h-804v-15q5 -182 101 -291.5t253 -109.5q226 0 300 167h133q-40 -134 -155 -209t-280 -75zM1305 979q-148 0 -240.5 -97t-102.5 -260h667q-2 158 -92 257.5t-232 99.5zM497 98q142 0 238 90
t96 219v111l-321 -21q-269 -19 -269 -199q0 -91 71 -145.5t185 -54.5zM1281 1292h-662v106h662v-106z" />
    <glyph glyph-name="Gcaron" unicode="&#x1e6;" horiz-adv-x="1506" 
d="M834 1577h-128l-287 297h155l190 -203h12l190 203h155zM1375 559q0 -268 -164 -428.5t-438 -160.5q-293 0 -469.5 205.5t-176.5 546.5q0 339 176 545t467 206q231 0 391.5 -123t199.5 -329h-139q-45 155 -163 240t-289 85q-229 0 -366 -170t-137 -454q0 -285 137.5 -455
t368.5 -170q212 0 339 123.5t127 327.5v50h-440v121h576v-160z" />
    <glyph glyph-name="gcaron" unicode="&#x1e7;" horiz-adv-x="1242" 
d="M682 1228h-154l-275 332h153l193 -243h12l193 243h153zM945 550q0 193 -95.5 310t-254.5 117q-160 0 -252.5 -115.5t-92.5 -309.5q0 -193 92.5 -308.5t252.5 -115.5q161 0 255.5 115t94.5 307zM606 -404q-184 0 -301 75.5t-138 202.5h139q18 -75 98 -119t202 -44
q156 0 246.5 76t90.5 207v242h-13q-48 -107 -142.5 -166t-218.5 -59q-207 0 -330.5 148.5t-123.5 392.5t124 393.5t330 149.5q123 0 223 -63t144 -168h12v213h126v-1093q0 -176 -128 -282t-340 -106z" />
    <glyph glyph-name="Kcaron" unicode="&#x1e8;" horiz-adv-x="1311" 
d="M322 0h-137v1443h137v-746h12l683 746h171l-578 -623l637 -820h-177l-555 725l-193 -210v-515zM701 1577h-128l-287 297h155l190 -203h12l190 203h155z" />
    <glyph glyph-name="kcaron" unicode="&#x1e9;" horiz-adv-x="1092" 
d="M322 573l526 504h164l-481 -462l503 -615h-168l-434 531l-122 -113v-418h-131v1506h131v-933h12zM308 1640h-128l-287 297h155l190 -203h12l190 203h155z" />
    <glyph glyph-name="Oogonek" unicode="&#x1ea;" horiz-adv-x="1561" 
d="M1039 -416q-99 0 -162.5 54t-63.5 138q0 126 138 214v13q-61 -33 -170 -33q-303 0 -478.5 201.5t-175.5 550.5q0 346 176 548.5t478 202.5q301 0 476.5 -202t175.5 -549q0 -221 -78.5 -387t-246.5 -306q-166 -129 -166 -226q0 -47 34 -77.5t89 -30.5q43 0 67 7v-104
q-39 -14 -93 -14zM781 1346q-236 0 -375 -169t-139 -455q0 -288 139 -456.5t375 -168.5q235 0 373.5 169t138.5 456t-138 455.5t-374 168.5z" />
    <glyph glyph-name="oogonek" unicode="&#x1eb;" horiz-adv-x="1208" 
d="M604 101q166 0 260 116.5t94 321.5t-94 321.5t-260 116.5t-260 -116.5t-94 -321.5t94 -321.5t260 -116.5zM565 -224q0 126 137 212v13q-38 -19 -98 -19q-226 0 -357.5 150t-131.5 407t131.5 406.5t357.5 149.5q227 0 358.5 -149.5t131.5 -406.5q0 -319 -242 -518
q-83 -66 -120.5 -118t-37.5 -100q0 -49 35.5 -78.5t87.5 -29.5q47 0 68 7v-104q-42 -14 -94 -14q-100 0 -163 55t-63 137z" />
    <glyph glyph-name="Oogonekmacron" unicode="&#x1ec;" horiz-adv-x="1561" 
d="M1039 -416q-99 0 -162.5 54t-63.5 138q0 126 138 214v13q-61 -33 -170 -33q-303 0 -478.5 201.5t-175.5 550.5q0 346 176 548.5t478 202.5q301 0 476.5 -202t175.5 -549q0 -221 -78.5 -387t-246.5 -306q-166 -129 -166 -226q0 -47 34 -77.5t89 -30.5q43 0 67 7v-104
q-39 -14 -93 -14zM781 1346q-236 0 -375 -169t-139 -455q0 -288 139 -456.5t375 -168.5q235 0 373.5 169t138.5 456t-138 455.5t-374 168.5zM1103 1619h-644v105h644v-105z" />
    <glyph glyph-name="oogonekmacron" unicode="&#x1ed;" horiz-adv-x="1208" 
d="M604 101q166 0 260 116.5t94 321.5t-94 321.5t-260 116.5t-260 -116.5t-94 -321.5t94 -321.5t260 -116.5zM565 -224q0 126 137 212v13q-38 -19 -98 -19q-226 0 -357.5 150t-131.5 407t131.5 406.5t357.5 149.5q227 0 358.5 -149.5t131.5 -406.5q0 -319 -242 -518
q-83 -66 -120.5 -118t-37.5 -100q0 -49 35.5 -78.5t87.5 -29.5q47 0 68 7v-104q-42 -14 -94 -14q-100 0 -163 55t-63 137zM935 1292h-662v106h662v-106z" />
    <glyph glyph-name="u01F1" unicode="&#x1f1;" horiz-adv-x="2799" 
d="M1609 0v99l863 1208v12h-834v124h1011v-100l-860 -1207v-12h872v-124h-1052zM185 1443h475q327 0 506 -191t179 -530q0 -340 -178.5 -531t-506.5 -191h-475v1443zM322 1319v-1195h330q263 0 408 158t145 439t-145 439.5t-408 158.5h-330z" />
    <glyph glyph-name="u01F2" unicode="&#x1f2;" horiz-adv-x="2553" 
d="M1602 0v100l660 854v12h-659v111h816v-101l-658 -853v-12h660v-111h-819zM185 1443h475q327 0 506 -191t179 -530q0 -340 -178.5 -531t-506.5 -191h-475v1443zM322 1319v-1195h330q263 0 408 158t145 439t-145 439.5t-408 158.5h-330z" />
    <glyph glyph-name="u01F3" unicode="&#x1f3;" horiz-adv-x="2337" 
d="M1387 0v100l660 854v12h-659v111h816v-101l-658 -853v-12h660v-111h-819zM571 -18q-206 0 -331 152.5t-125 403.5q0 250 125.5 403.5t330.5 153.5q123 0 220 -61t143 -167h12v639h131v-1506h-126v215h-12q-48 -108 -146.5 -170.5t-221.5 -62.5zM599 977
q-160 0 -254.5 -119t-94.5 -319q0 -201 94.5 -319.5t254.5 -118.5q159 0 254 119t95 319q0 198 -95.5 318t-253.5 120z" />
    <glyph glyph-name="Gacute" unicode="&#x1f4;" horiz-adv-x="1506" 
d="M683 1577l310 297h174l-326 -297h-158zM1375 559q0 -268 -164 -428.5t-438 -160.5q-293 0 -469.5 205.5t-176.5 546.5q0 339 176 545t467 206q231 0 391.5 -123t199.5 -329h-139q-45 155 -163 240t-289 85q-229 0 -366 -170t-137 -454q0 -285 137.5 -455t368.5 -170
q212 0 339 123.5t127 327.5v50h-440v121h576v-160z" />
    <glyph glyph-name="gacute" unicode="&#x1f5;" horiz-adv-x="1242" 
d="M516 1267l250 327h168l-269 -327h-149zM945 550q0 193 -95.5 310t-254.5 117q-160 0 -252.5 -115.5t-92.5 -309.5q0 -193 92.5 -308.5t252.5 -115.5q161 0 255.5 115t94.5 307zM606 -404q-184 0 -301 75.5t-138 202.5h139q18 -75 98 -119t202 -44q156 0 246.5 76
t90.5 207v242h-13q-48 -107 -142.5 -166t-218.5 -59q-207 0 -330.5 148.5t-123.5 392.5t124 393.5t330 149.5q123 0 223 -63t144 -168h12v213h126v-1093q0 -176 -128 -282t-340 -106z" />
    <glyph glyph-name="Ngrave" unicode="&#x1f8;" horiz-adv-x="1494" 
d="M522 1874l309 -297h-157l-326 297h174zM320 0h-135v1443h135l841 -1198h13v1198h135v-1443h-132l-844 1199h-13v-1199z" />
    <glyph glyph-name="ngrave" unicode="&#x1f9;" horiz-adv-x="1192" 
d="M708 1267h-149l-269 327h168zM169 0v1077h125v-194h13q43 101 132 156.5t216 55.5q180 0 278.5 -103.5t98.5 -291.5v-700h-131v667q0 310 -281 310q-143 0 -231.5 -92.5t-88.5 -244.5v-640h-131z" />
    <glyph glyph-name="Aringacute" unicode="&#x1fa;" horiz-adv-x="1363" 
d="M1145 0l-160 442h-606l-160 -442h-145l540 1443h136l539 -1443h-144zM675 1264l-255 -704h524l-256 704h-13zM577 1723q0 -45 30.5 -76t75.5 -31q44 0 74.5 31t30.5 76t-30.5 75.5t-74.5 30.5q-45 0 -75.5 -30.5t-30.5 -75.5zM683 1538q-78 0 -133 54t-55 131
q0 78 55 131.5t133 53.5t132.5 -53.5t54.5 -131.5q0 -77 -55 -131t-132 -54zM767 2138h147l-165 -169h-126z" />
    <glyph glyph-name="aringacute" unicode="&#x1fb;" horiz-adv-x="1125" 
d="M491 98q145 0 242.5 87.5t97.5 215.5v126l-319 -23q-271 -19 -271 -204q0 -92 70 -147t180 -55zM469 -18q-160 0 -261.5 86.5t-101.5 229.5q0 140 100 220.5t288 93.5l337 22v104q0 116 -68.5 178t-199.5 62q-111 0 -186.5 -44.5t-94.5 -122.5h-133q19 128 133.5 206
t284.5 78q189 0 292.5 -93.5t103.5 -262.5v-739h-126v185h-12q-49 -96 -143 -149.5t-213 -53.5zM564 1209q-80 0 -135.5 54.5t-55.5 133.5t55.5 133.5t135.5 54.5t135.5 -54.5t55.5 -133.5t-55.5 -133.5t-135.5 -54.5zM456 1396q0 -46 31 -77.5t77 -31.5t77 31.5t31 77.5
q0 47 -31 78.5t-77 31.5t-77 -31.5t-31 -78.5zM499 1669l164 206h157l-189 -206h-132z" />
    <glyph glyph-name="AEacute" unicode="&#x1fc;" horiz-adv-x="1955" 
d="M1318 1577l310 297h174l-326 -297h-158zM1002 1327h-161l-365 -766h526v766zM1002 0v443h-581l-208 -443h-139l678 1443h1063v-124h-677v-526h640v-122h-640v-547h677v-124h-813z" />
    <glyph glyph-name="aeacute" unicode="&#x1fd;" horiz-adv-x="1880" 
d="M861 1267l250 327h168l-269 -327h-149zM1314 -18q-140 0 -249.5 71.5t-154.5 191.5h-12q-48 -123 -158 -193t-260 -70q-167 0 -270.5 85.5t-103.5 227.5q0 139 99.5 218t287.5 91l338 21v113q0 116 -68.5 178t-199.5 62q-111 0 -186.5 -44.5t-94.5 -122.5h-133
q19 128 133.5 206t284.5 78q135 0 228 -60.5t123 -164.5h13q46 99 148.5 162t231.5 63q212 0 333.5 -139.5t121.5 -382.5v-58h-804v-15q5 -182 101 -291.5t253 -109.5q226 0 300 167h133q-40 -134 -155 -209t-280 -75zM1305 979q-148 0 -240.5 -97t-102.5 -260h667
q-2 158 -92 257.5t-232 99.5zM497 98q142 0 238 90t96 219v111l-321 -21q-269 -19 -269 -199q0 -91 71 -145.5t185 -54.5z" />
    <glyph glyph-name="Oslashacute" unicode="&#x1fe;" horiz-adv-x="1530" 
d="M1162 1874l-326 -297h-158l310 297h174zM1164 1167l-722 -941q134 -129 339 -129q237 0 374.5 169.5t137.5 455.5q0 277 -129 445zM378 302l719 935q-127 109 -316 109q-236 0 -375 -168.5t-139 -455.5q0 -255 111 -420zM1386 1457l-136 -177q183 -202 183 -558
q0 -347 -174.5 -549.5t-477.5 -202.5q-254 0 -423 146l-142 -186l-79 59l152 198q-162 201 -162 535q0 346 176 548.5t478 202.5q236 0 399 -127l128 166z" />
    <glyph glyph-name="oslashacute" unicode="&#x1ff;" horiz-adv-x="1208" 
d="M908 1594l-269 -327h-149l250 327h168zM875 847l-480 -680q86 -66 209 -66q166 0 260 116.5t94 321.5q0 193 -83 308zM327 240l480 676q-84 61 -203 61q-166 0 -260 -116.5t-94 -321.5q0 -185 77 -299zM1041 1083l-89 -126q142 -150 142 -418q0 -258 -132 -407.5
t-358 -149.5q-164 0 -282 82l-85 -121l-82 55l93 131q-133 152 -133 410t131.5 407t357.5 149q159 0 276 -77l82 116z" />
    <glyph glyph-name="Adblgrave" unicode="&#x200;" horiz-adv-x="1363" 
d="M1145 0l-160 442h-606l-160 -442h-145l540 1443h136l539 -1443h-144zM675 1264l-255 -704h524l-256 704h-13zM604 1577h-157l-326 297h174zM968 1577h-158l-326 297h174z" />
    <glyph glyph-name="adblgrave" unicode="&#x201;" horiz-adv-x="1125" 
d="M491 98q145 0 242.5 87.5t97.5 215.5v126l-319 -23q-271 -19 -271 -204q0 -92 70 -147t180 -55zM469 -18q-160 0 -261.5 86.5t-101.5 229.5q0 140 100 220.5t288 93.5l337 22v104q0 116 -68.5 178t-199.5 62q-111 0 -186.5 -44.5t-94.5 -122.5h-133q19 128 133.5 206
t284.5 78q189 0 292.5 -93.5t103.5 -262.5v-739h-126v185h-12q-49 -96 -143 -149.5t-213 -53.5zM489 1267h-141l-271 327h161zM831 1267h-140l-271 327h161z" />
    <glyph glyph-name="Ainvertedbreve" unicode="&#x202;" horiz-adv-x="1363" 
d="M1145 0l-160 442h-606l-160 -442h-145l540 1443h136l539 -1443h-144zM675 1264l-255 -704h524l-256 704h-13zM350 1577q0 125 89.5 199.5t242.5 74.5t242.5 -74.5t89.5 -199.5h-118q0 80 -58 128t-156 48t-156 -48t-58 -128h-118z" />
    <glyph glyph-name="ainvertedbreve" unicode="&#x203;" horiz-adv-x="1125" 
d="M491 98q145 0 242.5 87.5t97.5 215.5v126l-319 -23q-271 -19 -271 -204q0 -92 70 -147t180 -55zM469 -18q-160 0 -261.5 86.5t-101.5 229.5q0 140 100 220.5t288 93.5l337 22v104q0 116 -68.5 178t-199.5 62q-111 0 -186.5 -44.5t-94.5 -122.5h-133q19 128 133.5 206
t284.5 78q189 0 292.5 -93.5t103.5 -262.5v-739h-126v185h-12q-49 -96 -143 -149.5t-213 -53.5zM235 1228q0 133 89.5 215.5t242.5 82.5t242.5 -82.5t89.5 -215.5h-118q0 89 -57 143.5t-157 54.5t-157 -54.5t-57 -143.5h-118z" />
    <glyph glyph-name="Edblgrave" unicode="&#x204;" horiz-adv-x="1197" 
d="M543 1577h-157l-326 297h174zM907 1577h-158l-326 297h174zM1057 124v-124h-872v1443h872v-124h-735v-519h698v-122h-698v-554h735z" />
    <glyph glyph-name="edblgrave" unicode="&#x205;" horiz-adv-x="1174" 
d="M595 979q-147 0 -241 -100.5t-103 -266.5h671q-2 167 -91.5 267t-235.5 100zM909 266h133q-40 -132 -158 -208t-287 -76q-222 0 -352 150.5t-130 405.5q0 254 130.5 405.5t350.5 151.5q215 0 339 -143t124 -390v-58h-809v-6q5 -183 99.5 -291t250.5 -108q114 0 194 43.5
t115 123.5zM517 1267h-141l-271 327h161zM859 1267h-140l-271 327h161z" />
    <glyph glyph-name="Einvertedbreve" unicode="&#x206;" horiz-adv-x="1197" 
d="M1057 124v-124h-872v1443h872v-124h-735v-519h698v-122h-698v-554h735zM289 1577q0 125 89.5 199.5t242.5 74.5t242.5 -74.5t89.5 -199.5h-118q0 80 -58 128t-156 48t-156 -48t-58 -128h-118z" />
    <glyph glyph-name="einvertedbreve" unicode="&#x207;" horiz-adv-x="1174" 
d="M595 979q-147 0 -241 -100.5t-103 -266.5h671q-2 167 -91.5 267t-235.5 100zM909 266h133q-40 -132 -158 -208t-287 -76q-222 0 -352 150.5t-130 405.5q0 254 130.5 405.5t350.5 151.5q215 0 339 -143t124 -390v-58h-809v-6q5 -183 99.5 -291t250.5 -108q114 0 194 43.5
t115 123.5zM263 1228q0 133 89.5 215.5t242.5 82.5t242.5 -82.5t89.5 -215.5h-118q0 89 -57 143.5t-157 54.5t-157 -54.5t-57 -143.5h-118z" />
    <glyph glyph-name="Idblgrave" unicode="&#x208;" horiz-adv-x="507" 
d="M322 0h-137v1443h137v-1443zM176 1577h-157l-326 297h174zM540 1577h-158l-326 297h174z" />
    <glyph glyph-name="idblgrave" unicode="&#x209;" horiz-adv-x="480" 
d="M175 0v1077h131v-1077h-131zM162 1267h-141l-271 327h161zM504 1267h-140l-271 327h161z" />
    <glyph glyph-name="Iinvertedbreve" unicode="&#x20a;" horiz-adv-x="507" 
d="M322 0h-137v1443h137v-1443zM-78 1577q0 125 89.5 199.5t242.5 74.5t242.5 -74.5t89.5 -199.5h-118q0 80 -58 128t-156 48t-156 -48t-58 -128h-118z" />
    <glyph glyph-name="iinvertedbreve" unicode="&#x20b;" horiz-adv-x="480" 
d="M175 0v1077h131v-1077h-131zM-92 1228q0 133 89.5 215.5t242.5 82.5t242.5 -82.5t89.5 -215.5h-118q0 89 -57 143.5t-157 54.5t-157 -54.5t-57 -143.5h-118z" />
    <glyph glyph-name="Odblgrave" unicode="&#x20c;" horiz-adv-x="1561" 
d="M703 1577h-157l-326 297h174zM1067 1577h-158l-326 297h174zM781 1473q303 0 477.5 -202t174.5 -549t-174.5 -549.5t-477.5 -202.5q-304 0 -479 202.5t-175 549.5q0 346 176 548.5t478 202.5zM781 1346q-236 0 -375 -168.5t-139 -455.5q0 -286 138 -455.5t376 -169.5
q237 0 374.5 169.5t137.5 455.5q0 287 -137.5 455.5t-374.5 168.5z" />
    <glyph glyph-name="odblgrave" unicode="&#x20d;" horiz-adv-x="1208" 
d="M604 101q166 0 260 116.5t94 321.5t-94 321.5t-260 116.5t-260 -116.5t-94 -321.5t94 -321.5t260 -116.5zM604 -18q-226 0 -357.5 149.5t-131.5 407.5t131.5 407t357.5 149t358 -149t132 -407t-132 -407.5t-358 -149.5zM526 1267h-141l-271 327h161zM868 1267h-140
l-271 327h161z" />
    <glyph glyph-name="Oinvertedbreve" unicode="&#x20e;" horiz-adv-x="1561" 
d="M449 1577q0 125 89.5 199.5t242.5 74.5t242.5 -74.5t89.5 -199.5h-118q0 80 -58 128t-156 48t-156 -48t-58 -128h-118zM781 1473q303 0 477.5 -202t174.5 -549t-174.5 -549.5t-477.5 -202.5q-304 0 -479 202.5t-175 549.5q0 346 176 548.5t478 202.5zM781 1346
q-236 0 -375 -168.5t-139 -455.5q0 -286 138 -455.5t376 -169.5q237 0 374.5 169.5t137.5 455.5q0 287 -137.5 455.5t-374.5 168.5z" />
    <glyph glyph-name="oinvertedbreve" unicode="&#x20f;" horiz-adv-x="1208" 
d="M604 101q166 0 260 116.5t94 321.5t-94 321.5t-260 116.5t-260 -116.5t-94 -321.5t94 -321.5t260 -116.5zM604 -18q-226 0 -357.5 149.5t-131.5 407.5t131.5 407t357.5 149t358 -149t132 -407t-132 -407.5t-358 -149.5zM272 1228q0 133 89.5 215.5t242.5 82.5
t242.5 -82.5t89.5 -215.5h-118q0 89 -57 143.5t-157 54.5t-157 -54.5t-57 -143.5h-118z" />
    <glyph glyph-name="Rdblgrave" unicode="&#x210;" horiz-adv-x="1309" 
d="M513 1577h-157l-326 297h174zM877 1577h-158l-326 297h174zM322 1321v-608h369q157 0 244.5 80t87.5 224q0 142 -90 223t-248 81h-363zM322 591v-591h-137v1443h517q211 0 336 -114.5t125 -307.5q0 -153 -82 -261.5t-227 -146.5l350 -613h-160l-332 591h-21h-369z" />
    <glyph glyph-name="rdblgrave" unicode="&#x211;" horiz-adv-x="754" 
d="M169 0v1077h125v-177h13q27 88 110 141.5t190 53.5q64 0 101 -9v-131q-45 13 -117 13q-125 0 -208 -84.5t-83 -211.5v-672h-131zM296 1267h-141l-271 327h161zM638 1267h-140l-271 327h161z" />
    <glyph glyph-name="Rinvertedbreve" unicode="&#x212;" horiz-adv-x="1309" 
d="M322 1321v-608h369q157 0 244.5 80t87.5 224q0 142 -90 223t-248 81h-363zM322 591v-591h-137v1443h517q211 0 336 -114.5t125 -307.5q0 -153 -82 -261.5t-227 -146.5l350 -613h-160l-332 591h-21h-369zM259 1577q0 125 89.5 199.5t242.5 74.5t242.5 -74.5t89.5 -199.5
h-118q0 80 -58 128t-156 48t-156 -48t-58 -128h-118z" />
    <glyph glyph-name="rinvertedbreve" unicode="&#x213;" horiz-adv-x="754" 
d="M169 0v1077h125v-177h13q27 88 110 141.5t190 53.5q64 0 101 -9v-131q-45 13 -117 13q-125 0 -208 -84.5t-83 -211.5v-672h-131zM42 1228q0 133 89.5 215.5t242.5 82.5t242.5 -82.5t89.5 -215.5h-118q0 89 -57 143.5t-157 54.5t-157 -54.5t-57 -143.5h-118z" />
    <glyph glyph-name="Udblgrave" unicode="&#x214;" horiz-adv-x="1494" 
d="M669 1577h-157l-326 297h174zM1033 1577h-158l-326 297h174zM325 1443v-934q0 -183 114 -296t308 -113t308 113t114 296v934h137v-943q0 -237 -151 -381.5t-408 -144.5q-256 0 -407 144.5t-151 381.5v943h136z" />
    <glyph glyph-name="udblgrave" unicode="&#x215;" horiz-adv-x="1193" 
d="M1024 1077v-1077h-125v194h-12q-41 -101 -132 -156.5t-219 -55.5q-179 0 -277.5 104.5t-98.5 290.5v700h131v-667q0 -151 70.5 -229.5t208.5 -78.5q150 0 236.5 90.5t86.5 244.5v640h131zM514 1267h-141l-271 327h161zM856 1267h-140l-271 327h161z" />
    <glyph glyph-name="Uinvertedbreve" unicode="&#x216;" horiz-adv-x="1494" 
d="M325 1443v-934q0 -183 114 -296t308 -113t308 113t114 296v934h137v-943q0 -237 -151 -381.5t-408 -144.5q-256 0 -407 144.5t-151 381.5v943h136zM415 1577q0 125 89.5 199.5t242.5 74.5t242.5 -74.5t89.5 -199.5h-118q0 80 -58 128t-156 48t-156 -48t-58 -128h-118z
" />
    <glyph glyph-name="uinvertedbreve" unicode="&#x217;" horiz-adv-x="1193" 
d="M1024 1077v-1077h-125v194h-12q-41 -101 -132 -156.5t-219 -55.5q-179 0 -277.5 104.5t-98.5 290.5v700h131v-667q0 -151 70.5 -229.5t208.5 -78.5q150 0 236.5 90.5t86.5 244.5v640h131zM260 1228q0 133 89.5 215.5t242.5 82.5t242.5 -82.5t89.5 -215.5h-118
q0 89 -57 143.5t-157 54.5t-157 -54.5t-57 -143.5h-118z" />
    <glyph glyph-name="Scommaaccent" unicode="&#x218;" horiz-adv-x="1284" 
d="M115 375h138q14 -124 126.5 -202t277.5 -78q161 0 266 80t105 201q0 102 -77.5 170t-244.5 109l-165 42q-203 50 -294 139.5t-91 236.5q0 176 137.5 288t356.5 112q206 0 345 -108.5t150 -274.5h-138q-17 116 -114.5 187t-246.5 71q-155 0 -252.5 -76.5t-97.5 -194.5
q0 -94 72 -153.5t237 -100.5l143 -36q223 -55 321.5 -148.5t98.5 -247.5q0 -189 -143.5 -305t-379.5 -116q-224 0 -370.5 112t-159.5 293zM624 -506h-127l102 364h141z" />
    <glyph glyph-name="scommaaccent" unicode="&#x219;" horiz-adv-x="1058" 
d="M144 792q0 129 112.5 216t276.5 87q163 0 270 -75.5t125 -203.5h-129q-18 76 -89.5 121.5t-177.5 45.5q-107 0 -181.5 -53t-74.5 -133q0 -66 52 -107t162 -67l148 -35q159 -38 234 -106.5t75 -183.5q0 -138 -119 -227t-297 -89q-176 0 -290 77.5t-130 210.5h136
q22 -82 97 -129t191 -47q119 0 198 55t79 139q0 70 -51 113.5t-160 69.5l-163 39q-152 37 -223 103.5t-71 178.5zM510 -506h-127l102 364h141z" />
    <glyph glyph-name="Tcommaaccent" unicode="&#x21a;" horiz-adv-x="1280" 
d="M619 -506h-127l102 364h141zM708 0h-136v1319h-484v124h1104v-124h-484v-1319z" />
    <glyph glyph-name="tcommaaccent" unicode="&#x21b;" horiz-adv-x="724" 
d="M382 -506h-127l102 364h141zM237 1357h131v-280h249v-111h-249v-668q0 -99 40 -143.5t131 -44.5q45 0 78 3v-112q-40 -7 -92 -7q-155 0 -221.5 63.5t-66.5 210.5v698h-176v111h176v280z" />
    <glyph glyph-name="Hcaron" unicode="&#x21e;" horiz-adv-x="1488" 
d="M1303 0h-137v677h-844v-677h-137v1443h137v-642h844v642h137v-1443zM808 1577h-128l-287 297h155l190 -203h12l190 203h155z" />
    <glyph glyph-name="hcaron" unicode="&#x21f;" horiz-adv-x="1210" 
d="M179 0v1506h131v-623h12q44 101 135 156.5t219 55.5q174 0 274 -104.5t100 -290.5v-700h-131v667q0 152 -71.5 231t-206.5 79q-151 0 -241 -93.5t-90 -243.5v-640h-131zM308 1640h-128l-287 297h155l190 -203h12l190 203h155z" />
    <glyph glyph-name="Adotaccent" unicode="&#x226;" horiz-adv-x="1363" 
d="M1145 0l-160 442h-606l-160 -442h-145l540 1443h136l539 -1443h-144zM675 1264l-255 -704h524l-256 704h-13zM682 1577q-44 0 -74.5 30.5t-30.5 73.5t30.5 74t74.5 31t74.5 -31t30.5 -74t-30.5 -73.5t-74.5 -30.5z" />
    <glyph glyph-name="adotaccent" unicode="&#x227;" horiz-adv-x="1125" 
d="M491 98q145 0 242.5 87.5t97.5 215.5v126l-319 -23q-271 -19 -271 -204q0 -92 70 -147t180 -55zM469 -18q-160 0 -261.5 86.5t-101.5 229.5q0 140 100 220.5t288 93.5l337 22v104q0 116 -68.5 178t-199.5 62q-111 0 -186.5 -44.5t-94.5 -122.5h-133q19 128 133.5 206
t284.5 78q189 0 292.5 -93.5t103.5 -262.5v-739h-126v185h-12q-49 -96 -143 -149.5t-213 -53.5zM567 1280q-45 0 -77 32.5t-32 77.5t32 77t77 32t77 -32t32 -77t-32 -77.5t-77 -32.5z" />
    <glyph glyph-name="Ecedilla" unicode="&#x228;" horiz-adv-x="1197" 
d="M1057 1319h-735v-519h698v-122h-698v-554h735v-124h-371l-57 -142q100 0 156.5 -41.5t56.5 -118.5q0 -81 -63 -131.5t-168 -50.5q-78 0 -143 20v87q50 -18 127 -18q60 0 96 24t36 66q0 81 -155 81h-56v67l64 157h-395v1443h872v-124z" />
    <glyph glyph-name="ecedilla" unicode="&#x229;" horiz-adv-x="1174" 
d="M251 612h671q-2 167 -91.5 267t-235.5 100q-147 0 -241 -100.5t-103 -266.5zM1059 504h-809v-6q5 -183 99.5 -291t250.5 -108q114 0 194 43.5t115 123.5h133q-36 -120 -137.5 -194t-247.5 -87l-51 -127q100 0 156.5 -41.5t56.5 -118.5q0 -81 -63 -131.5t-168 -50.5
q-78 0 -143 20v87q50 -18 127 -18q60 0 96 24t36 66q0 81 -155 81h-56v67l57 141q-201 16 -318 164.5t-117 389.5q0 254 130.5 405.5t350.5 151.5q215 0 339 -143t124 -390v-58z" />
    <glyph glyph-name="Odieresismacron" unicode="&#x22a;" horiz-adv-x="1561" 
d="M781 1473q303 0 477.5 -202t174.5 -549t-174.5 -549.5t-477.5 -202.5q-304 0 -479 202.5t-175 549.5q0 346 176 548.5t478 202.5zM781 1346q-236 0 -375 -168.5t-139 -455.5q0 -286 138 -455.5t376 -169.5q237 0 374.5 169.5t137.5 455.5q0 287 -137.5 455.5
t-374.5 168.5zM462 1915v101h638v-101h-638zM599 1580q-41 0 -70 29t-29 70t29 70t70 29t70 -29t29 -70t-29 -70t-70 -29zM963 1580q-41 0 -70 29t-29 70t29 70t70 29t70 -29t29 -70t-29 -70t-70 -29z" />
    <glyph glyph-name="odieresismacron" unicode="&#x22b;" horiz-adv-x="1208" 
d="M422 1240q-41 0 -70 29t-29 70q0 42 29 70.5t70 28.5t70 -28.5t29 -70.5q0 -41 -29 -70t-70 -29zM786 1240q-41 0 -70 29t-29 70q0 42 29 70.5t70 28.5t70 -28.5t29 -70.5q0 -41 -29 -70t-70 -29zM937 1614h-662v106h662v-106zM604 101q166 0 260 116.5t94 321.5
t-94 321.5t-260 116.5t-260 -116.5t-94 -321.5t94 -321.5t260 -116.5zM604 -18q-226 0 -357.5 149.5t-131.5 407.5t131.5 407t357.5 149t358 -149t132 -407t-132 -407.5t-358 -149.5z" />
    <glyph glyph-name="Otildemacron" unicode="&#x22c;" horiz-adv-x="1561" 
d="M1103 1915h-644v101h644v-101zM918 1573q-44 0 -78 14t-55.5 34.5t-40.5 40.5t-43 34t-53 14q-46 0 -72 -31.5t-28 -90.5h-106q0 99 55.5 160.5t146.5 61.5q44 0 78 -14t55.5 -34t40.5 -40t43 -34t53 -14q43 0 70.5 31.5t30.5 90.5h105q0 -97 -56 -160t-146 -63z
M781 1473q303 0 477.5 -202t174.5 -549t-174.5 -549.5t-477.5 -202.5q-304 0 -479 202.5t-175 549.5q0 346 176 548.5t478 202.5zM781 1346q-236 0 -375 -168.5t-139 -455.5q0 -286 138 -455.5t376 -169.5q237 0 374.5 169.5t137.5 455.5q0 287 -137.5 455.5t-374.5 168.5z
" />
    <glyph glyph-name="otildemacron" unicode="&#x22d;" horiz-adv-x="1208" 
d="M467 1388q-104 0 -104 -158h-111q0 121 56 191.5t153 70.5q43 0 79 -16.5t60.5 -39.5t46.5 -46t45.5 -39.5t47.5 -16.5q104 0 104 158h110q0 -121 -56 -191.5t-153 -70.5q-42 0 -78.5 16.5t-60.5 39.5t-46 46t-45.5 39.5t-47.5 16.5zM937 1618h-662v106h662v-106z
M604 101q166 0 260 116.5t94 321.5t-94 321.5t-260 116.5t-260 -116.5t-94 -321.5t94 -321.5t260 -116.5zM604 -18q-226 0 -357.5 149.5t-131.5 407.5t131.5 407t357.5 149t358 -149t132 -407t-132 -407.5t-358 -149.5z" />
    <glyph glyph-name="Odotaccent" unicode="&#x22e;" horiz-adv-x="1561" 
d="M781 1577q-44 0 -74.5 30.5t-30.5 73.5t31 74t74 31t74 -31t31 -74t-30.5 -73.5t-74.5 -30.5zM781 1473q303 0 477.5 -202t174.5 -549t-174.5 -549.5t-477.5 -202.5q-304 0 -479 202.5t-175 549.5q0 346 176 548.5t478 202.5zM781 1346q-236 0 -375 -168.5t-139 -455.5
q0 -286 138 -455.5t376 -169.5q237 0 374.5 169.5t137.5 455.5q0 287 -137.5 455.5t-374.5 168.5z" />
    <glyph glyph-name="odotaccent" unicode="&#x22f;" horiz-adv-x="1208" 
d="M604 1280q-45 0 -77 32.5t-32 77.5t32 77t77 32t77 -32t32 -77t-32 -77.5t-77 -32.5zM604 101q166 0 260 116.5t94 321.5t-94 321.5t-260 116.5t-260 -116.5t-94 -321.5t94 -321.5t260 -116.5zM604 -18q-226 0 -357.5 149.5t-131.5 407.5t131.5 407t357.5 149t358 -149
t132 -407t-132 -407.5t-358 -149.5z" />
    <glyph glyph-name="Odotaccentmacron" unicode="&#x230;" horiz-adv-x="1561" 
d="M781 1578q-43 0 -73.5 30.5t-30.5 73.5t30.5 73.5t73.5 30.5t73.5 -30.5t30.5 -73.5t-30.5 -73.5t-73.5 -30.5zM1103 1915h-644v101h644v-101zM781 1473q303 0 477.5 -202t174.5 -549t-174.5 -549.5t-477.5 -202.5q-304 0 -479 202.5t-175 549.5q0 346 176 548.5
t478 202.5zM781 1346q-236 0 -375 -168.5t-139 -455.5q0 -286 138 -455.5t376 -169.5q237 0 374.5 169.5t137.5 455.5q0 287 -137.5 455.5t-374.5 168.5z" />
    <glyph glyph-name="odotaccentmacron" unicode="&#x231;" horiz-adv-x="1208" 
d="M604 101q166 0 260 116.5t94 321.5t-94 321.5t-260 116.5t-260 -116.5t-94 -321.5t94 -321.5t260 -116.5zM604 -18q-226 0 -357.5 149.5t-131.5 407.5t131.5 407t357.5 149t358 -149t132 -407t-132 -407.5t-358 -149.5zM604 1228q-44 0 -73.5 30t-29.5 73t29.5 73
t73.5 30t73.5 -30t29.5 -73t-29.5 -73t-73.5 -30zM937 1585h-662v106h662v-106z" />
    <glyph glyph-name="Ymacron" unicode="&#x232;" horiz-adv-x="1321" 
d="M729 0h-136v624l-518 819h157l423 -680h12l423 680h156l-517 -819v-624zM983 1619h-644v105h644v-105z" />
    <glyph glyph-name="ymacron" unicode="&#x233;" horiz-adv-x="1079" 
d="M245 -381q-27 0 -61 4v114q20 -4 59 -4q74 0 120 43t86 150l22 67l-404 1084h142l326 -934h12l325 934h140l-419 -1129q-72 -194 -144 -261.5t-204 -67.5zM867 1292h-662v106h662v-106z" />
    <glyph glyph-name="dotlessj" unicode="&#x237;" horiz-adv-x="480" 
d="M306 1077v-1145q0 -156 -74.5 -227.5t-228.5 -71.5h-24v113h21q94 0 134.5 42.5t40.5 139.5v1149h131z" />
    <glyph glyph-name="quoteright" unicode="&#x2bc;" horiz-adv-x="548" 
d="M250 935h-116l136 508h143z" />
    <glyph glyph-name="quoteright" unicode="&#x2019;" horiz-adv-x="548" 
d="M250 935h-116l136 508h143z" />
    <glyph glyph-name="circumflex" unicode="&#x2c6;" horiz-adv-x="1000" 
d="M577 1560l275 -332h-153l-193 243h-12l-193 -243h-153l275 332h154z" />
    <glyph glyph-name="caron" unicode="&#x2c7;" horiz-adv-x="1000" 
d="M577 1228h-154l-275 332h153l193 -243h12l193 243h153z" />
    <glyph glyph-name="breve" unicode="&#x2d8;" horiz-adv-x="986" 
d="M163 1538h119q0 -90 55.5 -144t155.5 -54t155.5 54t55.5 144h119q0 -134 -88.5 -216t-241.5 -82t-241.5 82t-88.5 216z" />
    <glyph glyph-name="dotaccent" unicode="&#x2d9;" horiz-adv-x="986" 
d="M493 1280q-45 0 -77 32.5t-32 77.5t32 77t77 32t77 -32t32 -77t-32 -77.5t-77 -32.5z" />
    <glyph glyph-name="ring" unicode="&#x2da;" horiz-adv-x="1000" 
d="M500 1228q-89 0 -151 61t-62 150q0 88 62 149t151 61t151 -61t62 -149q0 -89 -62 -150t-151 -61zM500 1313q53 0 89 36.5t36 89.5t-36 89t-89 36t-89 -36t-36 -89t36 -89.5t89 -36.5z" />
    <glyph glyph-name="ogonek" unicode="&#x2db;" horiz-adv-x="887" 
d="M497 -421q-99 0 -158 50t-59 133q0 62 35.5 116t119.5 121l17 13h129l-75 -61q-106 -83 -106 -165q0 -47 33 -74.5t91 -27.5q54 0 83 15v-98q-47 -22 -110 -22z" />
    <glyph glyph-name="tilde" unicode="&#x2dc;" horiz-adv-x="999" 
d="M363 1410q-104 0 -104 -158h-111q0 121 56 191.5t153 70.5q43 0 79 -16.5t60.5 -39.5t46.5 -46t45.5 -39.5t47.5 -16.5q104 0 104 158h110q0 -121 -56 -191.5t-153 -70.5q-42 0 -78.5 16.5t-60.5 39.5t-46 46t-45.5 39.5t-47.5 16.5z" />
    <glyph glyph-name="hungarumlaut" unicode="&#x2dd;" horiz-adv-x="986" 
d="M459 1264l250 330h161l-271 -330h-140zM107 1264l250 330h161l-271 -330h-140z" />
    <glyph glyph-name="gravecmb" unicode="&#x300;" 
d="M97 1267h-149l-269 327h168z" />
    <glyph glyph-name="acutecmb" unicode="&#x301;" 
d="M-89 1267l250 327h168l-269 -327h-149z" />
    <glyph glyph-name="circumflexcmb" unicode="&#x302;" 
d="M77 1560l275 -332h-153l-193 243h-12l-193 -243h-153l275 332h154z" />
    <glyph glyph-name="tildecmb" unicode="&#x303;" 
d="M-136 1388q-104 0 -104 -158h-111q0 121 56 191.5t153 70.5q43 0 79 -16.5t60.5 -39.5t46.5 -46t45.5 -39.5t47.5 -16.5q104 0 104 158h110q0 -121 -56 -191.5t-153 -70.5q-42 0 -78.5 16.5t-60.5 39.5t-46 46t-45.5 39.5t-47.5 16.5z" />
    <glyph glyph-name="macroncmb" unicode="&#x304;" 
d="M331 1292h-662v106h662v-106z" />
    <glyph glyph-name="brevecmb" unicode="&#x306;" 
d="M-331 1538h119q0 -90 55.5 -144t155.5 -54t155.5 54t55.5 144h119q0 -134 -88.5 -216t-241.5 -82t-241.5 82t-88.5 216z" />
    <glyph glyph-name="dotaccentcmb" unicode="&#x307;" 
d="M0 1280q-45 0 -77 32.5t-32 77.5t32 77t77 32t77 -32t32 -77t-32 -77.5t-77 -32.5z" />
    <glyph glyph-name="dieresiscmb" unicode="&#x308;" 
d="M-182 1228q-42 0 -72 29.5t-30 72.5t30 72.5t72 29.5q43 0 72.5 -29.5t29.5 -72.5t-29.5 -72.5t-72.5 -29.5zM182 1228q-42 0 -72 29.5t-30 72.5t30 72.5t72 29.5q43 0 72.5 -29.5t29.5 -72.5t-29.5 -72.5t-72.5 -29.5z" />
    <glyph glyph-name="hookabovecmb" unicode="&#x309;" 
d="M-135 1444v97q51 22 124 22q94 0 148 -44.5t54 -121.5q0 -61 -43.5 -114t-113.5 -79l-60 77q46 15 74 45t28 62q0 35 -29 57.5t-73 22.5q-65 0 -109 -24z" />
    <glyph glyph-name="ringcmb" unicode="&#x30a;" 
d="M0 1228q-89 0 -151 61t-62 150q0 88 62 149t151 61t151 -61t62 -149q0 -89 -62 -150t-151 -61zM0 1313q53 0 89 36.5t36 89.5t-36 89t-89 36t-89 -36t-36 -89t36 -89.5t89 -36.5z" />
    <glyph glyph-name="hungarumlautcmb" unicode="&#x30b;" 
d="M73 1264l250 330h161l-271 -330h-140zM-279 1264l250 330h161l-271 -330h-140z" />
    <glyph glyph-name="caroncmb" unicode="&#x30c;" 
d="M77 1228h-154l-275 332h153l193 -243h12l193 243h153z" />
    <glyph glyph-name="dblgravecmb" unicode="&#x30f;" 
d="M-78 1267h-141l-271 327h161zM264 1267h-140l-271 327h161z" />
    <glyph glyph-name="invertedbrevecmb" unicode="&#x311;" 
d="M-332 1228q0 133 89.5 215.5t242.5 82.5t242.5 -82.5t89.5 -215.5h-118q0 89 -57 143.5t-157 54.5t-157 -54.5t-57 -143.5h-118z" />
    <glyph glyph-name="horncmb" unicode="&#x31b;" 
d="M0 996v108q27 -30 83 -30q69 0 102 40t33 129v142h122v-177q0 -111 -64.5 -176.5t-170.5 -65.5q-67 0 -105 30z" />
    <glyph glyph-name="dotbelowcmb" unicode="&#x323;" 
d="M0 -364q-44 0 -74.5 31t-30.5 74t31 73.5t74 30.5t74 -30.5t31 -73.5t-30.5 -74t-74.5 -31z" />
    <glyph glyph-name="dieresisbelowcmb" unicode="&#x324;" 
d="M-182 -392q-42 0 -72 30t-30 72q0 43 30 72.5t72 29.5q43 0 72.5 -29.5t29.5 -72.5q0 -42 -29.5 -72t-72.5 -30zM182 -392q-43 0 -72.5 30t-29.5 72q0 43 29.5 72.5t72.5 29.5q42 0 72 -29.5t30 -72.5q0 -42 -30 -72t-72 -30z" />
    <glyph glyph-name="ringbelowcmb" unicode="&#x325;" 
d="M0 -549q-89 0 -151 61t-62 150q0 88 62 149t151 61t151 -61t62 -149q0 -89 -62 -150t-151 -61zM0 -464q53 0 89 36.5t36 89.5t-36 89t-89 36t-89 -36t-36 -89t36 -89.5t89 -36.5z" />
    <glyph glyph-name="commabelowcmb" unicode="&#x326;" 
d="M-21 -506h-127l102 364h141z" />
    <glyph glyph-name="cedillacmb" unicode="&#x327;" 
d="M-105 -224v67l64 157h106l-57 -142q100 0 156.5 -41.5t56.5 -118.5q0 -81 -63 -131.5t-168 -50.5q-78 0 -143 20v87q50 -18 127 -18q60 0 96 24t36 66q0 81 -155 81h-56z" />
    <glyph glyph-name="ogonekcmb" unicode="&#x328;" 
d="M14 -421q-99 0 -158 50t-59 133q0 62 35.5 116t119.5 121l17 13h129l-75 -61q-106 -83 -106 -165q0 -47 33 -74.5t91 -27.5q55 0 83 15v-98q-47 -22 -110 -22z" />
    <glyph glyph-name="circumflexbelowcmb" unicode="&#x32d;" 
d="M62 -143l289 -289h-155l-190 197h-12l-190 -197h-155l289 289h124z" />
    <glyph glyph-name="brevebelowcmb" unicode="&#x32e;" 
d="M-330 -137h118q0 -81 57.5 -128.5t154.5 -47.5t154.5 47.5t57.5 128.5h118q0 -126 -89 -200t-241 -74t-241 74t-89 200z" />
    <glyph glyph-name="tildebelowcmb" unicode="&#x330;" 
d="M145 -398q-43 0 -78.5 17t-59.5 41.5t-45.5 49t-48 41.5t-55.5 17q-97 0 -101 -154h-106q0 119 55.5 187t148.5 68q45 0 82.5 -17t62.5 -41.5t47 -48.5t46 -41t49 -17q43 0 71 37.5t31 115.5h105q0 -115 -56 -185t-148 -70z" />
    <glyph glyph-name="macronbelowcmb" unicode="&#x331;" 
d="M322 -309h-644v105h644v-105z" />
    <glyph glyph-name="greekquestionmark" unicode="&#x37e;" horiz-adv-x="593" 
d="M248 -339h-115l85 531h162zM297 763q-46 0 -78.5 32.5t-32.5 78.5t32.5 78t78.5 32q45 0 77.5 -32t32.5 -78t-32.5 -78.5t-77.5 -32.5z" />
    <glyph glyph-name="tonosgreek" unicode="&#x384;" horiz-adv-x="827" 
d="M273 1252l88 328h158l-125 -328h-121z" />
    <glyph glyph-name="dieresistonosgreek" unicode="&#x385;" horiz-adv-x="1210" 
d="M317 1252q-42 0 -72 29.5t-30 72.5t30 72.5t72 29.5q43 0 72.5 -29.5t29.5 -72.5t-29.5 -72.5t-72.5 -29.5zM893 1252q-43 0 -73 29.5t-30 72.5t30 72.5t73 29.5q42 0 72 -29.5t30 -72.5t-30 -72.5t-72 -29.5zM519 1252l40 328h151l-77 -328h-114z" />
    <glyph glyph-name="Alphatonosgreek" unicode="&#x386;" horiz-adv-x="1363" 
d="M1145 0l-160 442h-606l-160 -442h-145l540 1443h136l539 -1443h-144zM675 1264l-255 -704h524l-256 704h-13zM133 1116l88 327h158l-125 -327h-121z" />
    <glyph glyph-name="anoteleia" unicode="&#x387;" horiz-adv-x="608" 
d="M305 841q-52 0 -85.5 33.5t-33.5 84.5t33.5 84.5t85.5 33.5q51 0 84 -33.5t33 -84.5t-33 -84.5t-84 -33.5z" />
    <glyph glyph-name="Epsilontonosgreek" unicode="&#x388;" horiz-adv-x="1533" 
d="M96 1116l88 327h158l-125 -327h-121zM1393 124v-124h-872v1443h872v-124h-735v-519h698v-122h-698v-554h735z" />
    <glyph glyph-name="Etatonosgreek" unicode="&#x389;" horiz-adv-x="1824" 
d="M96 1116l88 327h158l-125 -327h-121zM1639 0h-137v677h-844v-677h-137v1443h137v-642h844v642h137v-1443z" />
    <glyph glyph-name="Iotatonosgreek" unicode="&#x38a;" horiz-adv-x="843" 
d="M658 0h-137v1443h137v-1443zM96 1116l88 327h158l-125 -327h-121z" />
    <glyph glyph-name="Omicrontonosgreek" unicode="&#x38c;" horiz-adv-x="1772" 
d="M993 1473q303 0 477.5 -202t174.5 -549t-174.5 -549.5t-477.5 -202.5q-304 0 -479 202.5t-175 549.5q0 346 176 548.5t478 202.5zM993 1346q-236 0 -375 -168.5t-139 -455.5q0 -286 138 -455.5t376 -169.5q237 0 374.5 169.5t137.5 455.5q0 287 -137.5 455.5
t-374.5 168.5zM96 1116l88 327h158l-125 -327h-121z" />
    <glyph glyph-name="Upsilontonosgreek" unicode="&#x38e;" horiz-adv-x="1663" 
d="M96 1116l88 327h158l-125 -327h-121zM1071 0h-136v624l-518 819h157l423 -680h12l423 680h156l-517 -819v-624z" />
    <glyph glyph-name="Omegatonosgreek" unicode="&#x38f;" horiz-adv-x="1796" 
d="M347 0v124h366v12q-175 91 -270 262.5t-95 388.5q0 201 82 357.5t231.5 242.5t342.5 86q293 0 474.5 -190t181.5 -496q0 -217 -95.5 -389t-269.5 -262v-12h366v-124h-527v161q386 199 386 623q0 256 -140.5 409t-375.5 153q-236 0 -376 -153t-140 -409q0 -424 386 -623
v-161h-527zM96 1116l88 327h158l-125 -327h-121z" />
    <glyph glyph-name="iotadieresistonosgreek" unicode="&#x390;" horiz-adv-x="599" 
d="M447 -9q-146 0 -210.5 66.5t-64.5 209.5v810h131v-782q0 -98 40 -143t126 -45q31 0 76 6v-112q-48 -10 -98 -10zM-25 1252q-42 0 -72 29.5t-30 72.5t30 72.5t72 29.5q43 0 72.5 -29.5t29.5 -72.5t-29.5 -72.5t-72.5 -29.5zM551 1252q-43 0 -73 29.5t-30 72.5t30 72.5
t73 29.5q42 0 72 -29.5t30 -72.5t-30 -72.5t-72 -29.5zM177 1252l40 328h151l-77 -328h-114z" />
    <glyph glyph-name="Alphagreek" unicode="&#x391;" horiz-adv-x="1363" 
d="M1145 0l-160 442h-606l-160 -442h-145l540 1443h136l539 -1443h-144zM675 1264l-255 -704h524l-256 704h-13z" />
    <glyph glyph-name="Betagreek" unicode="&#x392;" horiz-adv-x="1319" 
d="M715 0h-530v1443h519q199 0 314 -95.5t115 -260.5q0 -121 -74 -209.5t-190 -108.5v-13q153 -17 245.5 -113t92.5 -244q0 -189 -129 -294t-363 -105zM322 1322v-515h323q168 0 259 66.5t91 191.5q0 121 -84.5 189t-232.5 68h-356zM322 121h374q181 0 276 73t95 212
q0 137 -100 209.5t-288 72.5h-357v-567z" />
    <glyph glyph-name="Gammagreek" unicode="&#x393;" horiz-adv-x="1135" 
d="M185 0v1443h836v-124h-699v-1319h-137z" />
    <glyph glyph-name="Deltagreek" unicode="&#x394;" horiz-adv-x="1377" 
d="M97 0v97l523 1346h136l524 -1346v-97h-1183zM253 124h870v12l-429 1135h-12l-429 -1135v-12z" />
    <glyph glyph-name="Deltagreek" unicode="&#x2206;" horiz-adv-x="1377" 
d="M97 0v97l523 1346h136l524 -1346v-97h-1183zM253 124h870v12l-429 1135h-12l-429 -1135v-12z" />
    <glyph glyph-name="Epsilongreek" unicode="&#x395;" horiz-adv-x="1197" 
d="M1057 124v-124h-872v1443h872v-124h-735v-519h698v-122h-698v-554h735z" />
    <glyph glyph-name="Zetagreek" unicode="&#x396;" horiz-adv-x="1328" 
d="M138 0v99l863 1208v12h-834v124h1011v-100l-860 -1207v-12h872v-124h-1052z" />
    <glyph glyph-name="Etagreek" unicode="&#x397;" horiz-adv-x="1488" 
d="M1303 0h-137v677h-844v-677h-137v1443h137v-642h844v642h137v-1443z" />
    <glyph glyph-name="Thetagreek" unicode="&#x398;" horiz-adv-x="1575" 
d="M468 661v124h639v-124h-639zM788 97q239 0 379 166t140 459q0 294 -140 459t-379 165t-380 -165t-141 -459q0 -293 140 -459t381 -166zM788 -30q-307 0 -484 199t-177 553t178 552.5t483 198.5t482 -198.5t177 -552.5t-176.5 -553t-482.5 -199z" />
    <glyph glyph-name="Iotagreek" unicode="&#x399;" horiz-adv-x="507" 
d="M322 0h-137v1443h137v-1443z" />
    <glyph glyph-name="Kappagreek" unicode="&#x39a;" horiz-adv-x="1311" 
d="M322 0h-137v1443h137v-746h12l683 746h171l-578 -623l637 -820h-177l-555 725l-193 -210v-515z" />
    <glyph glyph-name="Lambdagreek" unicode="&#x39b;" horiz-adv-x="1351" 
d="M88 0l519 1443h136l520 -1443h-145l-437 1256h-12l-437 -1256h-144z" />
    <glyph glyph-name="Mugreek" unicode="&#x39c;" horiz-adv-x="1761" 
d="M314 0h-129v1443h157l533 -1256h12l531 1256h158v-1443h-128v1177h-10l-498 -1170h-119l-498 1170h-9v-1177z" />
    <glyph glyph-name="Nugreek" unicode="&#x39d;" horiz-adv-x="1494" 
d="M320 0h-135v1443h135l841 -1198h13v1198h135v-1443h-132l-844 1199h-13v-1199z" />
    <glyph glyph-name="Xigreek" unicode="&#x39e;" horiz-adv-x="1323" 
d="M140 0v128h1042v-128h-1042zM218 675v127h887v-127h-887zM140 1315v128h1042v-128h-1042z" />
    <glyph glyph-name="Omicrongreek" unicode="&#x39f;" horiz-adv-x="1561" 
d="M781 1473q303 0 477.5 -202t174.5 -549t-174.5 -549.5t-477.5 -202.5q-304 0 -479 202.5t-175 549.5q0 346 176 548.5t478 202.5zM781 1346q-236 0 -375 -168.5t-139 -455.5q0 -286 138 -455.5t376 -169.5q237 0 374.5 169.5t137.5 455.5q0 287 -137.5 455.5
t-374.5 168.5z" />
    <glyph glyph-name="Pigreek" unicode="&#x3a0;" horiz-adv-x="1468" 
d="M185 0v1443h1098v-1443h-137v1319h-824v-1319h-137z" />
    <glyph glyph-name="Rhogreek" unicode="&#x3a1;" horiz-adv-x="1272" 
d="M185 1443h513q207 0 334.5 -125t127.5 -327q0 -199 -129 -323t-335 -124h-374v-544h-137v1443zM322 1321v-655h343q167 0 261.5 86.5t94.5 238.5q0 156 -93.5 243t-262.5 87h-343z" />
    <glyph glyph-name="Sigmagreek" unicode="&#x3a3;" horiz-adv-x="1302" 
d="M138 0v102l441 628l-423 597v116h989v-124h-811v-12l389 -555v-25l-411 -591v-12h851v-124h-1025z" />
    <glyph glyph-name="Taugreek" unicode="&#x3a4;" horiz-adv-x="1280" 
d="M708 0h-136v1319h-484v124h1104v-124h-484v-1319z" />
    <glyph glyph-name="Upsilongreek" unicode="&#x3a5;" horiz-adv-x="1321" 
d="M729 0h-136v624l-518 819h157l423 -680h12l423 680h156l-517 -819v-624z" />
    <glyph glyph-name="Phigreek" unicode="&#x3a6;" horiz-adv-x="1697" 
d="M780 -58v136q-305 9 -484 180t-179 462q0 290 179 461t484 181v133h136v-133q305 -10 484 -181t179 -461t-179 -461.5t-484 -180.5v-136h-136zM780 201v1038q-242 -6 -382.5 -142t-140.5 -377q0 -242 140.5 -378t382.5 -141zM916 201q242 5 382.5 141t140.5 378
q0 241 -140.5 377t-382.5 142v-1038z" />
    <glyph glyph-name="Chigreek" unicode="&#x3a7;" horiz-adv-x="1366" 
d="M95 0l504 724l-500 719h165l418 -609h11l422 609h156l-508 -724l500 -719h-164l-416 606h-11l-421 -606h-156z" />
    <glyph glyph-name="Psigreek" unicode="&#x3a8;" horiz-adv-x="1633" 
d="M748 0v345q-267 1 -421.5 150.5t-154.5 408.5v539h136v-535q0 -209 113.5 -321.5t326.5 -115.5v972h137v-972q213 3 326.5 115.5t113.5 321.5v535h136v-539q0 -259 -154.5 -409t-421.5 -150v-345h-137z" />
    <glyph glyph-name="Omegagreek" unicode="&#x3a9;" horiz-adv-x="1584" 
d="M135 0v124h366v12q-175 91 -270 262.5t-95 388.5q0 201 82 357.5t231.5 242.5t342.5 86q293 0 474.5 -190t181.5 -496q0 -217 -95.5 -389t-269.5 -262v-12h366v-124h-527v161q386 199 386 623q0 256 -140.5 409t-375.5 153q-236 0 -376 -153t-140 -409q0 -424 386 -623
v-161h-527z" />
    <glyph glyph-name="Omegagreek" unicode="&#x2126;" horiz-adv-x="1584" 
d="M135 0v124h366v12q-175 91 -270 262.5t-95 388.5q0 201 82 357.5t231.5 242.5t342.5 86q293 0 474.5 -190t181.5 -496q0 -217 -95.5 -389t-269.5 -262v-12h366v-124h-527v161q386 199 386 623q0 256 -140.5 409t-375.5 153q-236 0 -376 -153t-140 -409q0 -424 386 -623
v-161h-527z" />
    <glyph glyph-name="Iotadieresisgreek" unicode="&#x3aa;" horiz-adv-x="507" 
d="M322 0h-137v1443h137v-1443zM72 1568q-42 0 -72 29.5t-30 72.5t30 72.5t72 29.5q43 0 72.5 -29.5t29.5 -72.5t-29.5 -72.5t-72.5 -29.5zM436 1568q-42 0 -72 29.5t-30 72.5t30 72.5t72 29.5q43 0 72.5 -29.5t29.5 -72.5t-29.5 -72.5t-72.5 -29.5z" />
    <glyph glyph-name="Upsilondieresisgreek" unicode="&#x3ab;" horiz-adv-x="1321" 
d="M729 0h-136v624l-518 819h157l423 -680h12l423 680h156l-517 -819v-624zM479 1568q-42 0 -72 29.5t-30 72.5t30 72.5t72 29.5q43 0 72.5 -29.5t29.5 -72.5t-29.5 -72.5t-72.5 -29.5zM843 1568q-42 0 -72 29.5t-30 72.5t30 72.5t72 29.5q43 0 72.5 -29.5t29.5 -72.5
t-29.5 -72.5t-72.5 -29.5z" />
    <glyph glyph-name="alphatonosgreek" unicode="&#x3ac;" horiz-adv-x="1264" 
d="M560 -18q-206 0 -329 153t-123 404t123 403.5t329 152.5q127 0 218 -65.5t133 -186.5h12v234h127v-834q0 -75 22.5 -106t72.5 -31q27 0 54 6v-112q-31 -10 -81 -10q-181 0 -194 190l-1 44h-12q-46 -117 -136 -179.5t-215 -62.5zM569 101q158 0 255 121.5t97 316.5
q0 193 -93.5 315.5t-242.5 122.5q-159 0 -250.5 -118.5t-91.5 -319.5q0 -199 88 -318.5t238 -119.5zM508 1252l88 328h158l-125 -328h-121z" />
    <glyph glyph-name="epsilontonosgreek" unicode="&#x3ad;" horiz-adv-x="1073" 
d="M501 1252l88 328h158l-125 -328h-121zM550 -19q-200 0 -314.5 84t-114.5 223q0 192 202 249v12q-181 53 -181 237q0 141 113.5 224.5t300.5 83.5q188 0 303 -81.5t140 -232.5h-132q-22 92 -104.5 144t-207.5 52q-129 0 -207 -52t-78 -141q0 -84 66 -130.5t196 -46.5h145
v-118h-146q-131 0 -203 -51.5t-72 -140.5q0 -92 76.5 -144t216.5 -52q131 0 222 56.5t115 153.5h133q-26 -145 -157 -237t-312 -92z" />
    <glyph glyph-name="etatonosgreek" unicode="&#x3ae;" horiz-adv-x="1258" 
d="M248 0v834q0 75 -24.5 106t-78.5 31q-31 0 -53 -5v111q33 10 84 10q85 0 135 -43t59 -128l3 -32h12q42 98 132 154.5t208 56.5q176 0 274.5 -103.5t98.5 -291.5v-1057h-131v1024q0 153 -71 231.5t-206 78.5q-141 0 -226 -94t-85 -245v-638h-131zM482 1252l88 328h158
l-125 -328h-121z" />
    <glyph glyph-name="iotatonosgreek" unicode="&#x3af;" horiz-adv-x="599" 
d="M447 -9q-146 0 -210.5 66.5t-64.5 209.5v810h131v-782q0 -98 40 -143t126 -45q31 0 76 6v-112q-48 -10 -98 -10zM171 1252l88 328h158l-125 -328h-121z" />
    <glyph glyph-name="upsilondieresistonosgreek" unicode="&#x3b0;" horiz-adv-x="1131" 
d="M271 1252q-42 0 -72 29.5t-30 72.5t30 72.5t72 29.5q43 0 72.5 -29.5t29.5 -72.5t-29.5 -72.5t-72.5 -29.5zM847 1252q-43 0 -73 29.5t-30 72.5t30 72.5t73 29.5q42 0 72 -29.5t30 -72.5t-30 -72.5t-72 -29.5zM473 1252l40 328h151l-77 -328h-114zM572 -18
q-194 0 -304.5 110t-110.5 320v665h131v-658q0 -156 73.5 -236.5t207.5 -80.5q140 0 221.5 115t81.5 319q0 170 -23 289t-80 252h135q46 -94 74.5 -238t28.5 -287q0 -270 -113 -420t-322 -150z" />
    <glyph glyph-name="alphagreek" unicode="&#x3b1;" horiz-adv-x="1264" 
d="M560 -18q-206 0 -329 153t-123 404t123 403.5t329 152.5q127 0 218 -65.5t133 -186.5h12v234h127v-834q0 -75 22.5 -106t72.5 -31q27 0 54 6v-112q-31 -10 -81 -10q-181 0 -194 190l-1 44h-12q-46 -117 -136 -179.5t-215 -62.5zM569 101q158 0 255 121.5t97 316.5
q0 193 -93.5 315.5t-242.5 122.5q-159 0 -250.5 -118.5t-91.5 -319.5q0 -199 88 -318.5t238 -119.5z" />
    <glyph glyph-name="betagreek" unicode="&#x3b2;" horiz-adv-x="1233" 
d="M172 -357v1386q0 236 115 365.5t324 129.5q185 0 297 -102t112 -275q0 -110 -59.5 -194.5t-163.5 -121.5v-13q156 -33 240 -133.5t84 -255.5q0 -197 -124.5 -322t-318.5 -125q-132 0 -226 58.5t-137 164.5h-12v-562h-131zM671 101q138 0 226.5 92t88.5 231
q0 158 -100.5 244t-284.5 86h-108v118h109q134 0 210.5 70.5t76.5 196.5q0 121 -75 193.5t-199 72.5q-154 0 -233 -99t-79 -292v-497q0 -192 100 -304t268 -112z" />
    <glyph glyph-name="gammagreek" unicode="&#x3b3;" horiz-adv-x="1090" 
d="M426 -339v320l-353 1096h140l290 -954h13q162 223 234.5 403t72.5 356q0 111 -20 195h131q20 -85 20 -195q0 -199 -93.5 -412.5t-303.5 -490.5v-318h-131z" />
    <glyph glyph-name="deltagreek" unicode="&#x3b4;" horiz-adv-x="1172" 
d="M585 -18q-220 0 -352.5 141.5t-132.5 369.5q0 206 113.5 341t292.5 160v15q-121 59 -171 117.5t-50 143.5q0 117 96.5 185.5t250.5 68.5q205 0 323 -80v-117q-148 81 -329 81q-102 0 -156 -37t-54 -104q0 -61 51.5 -106t204.5 -112q202 -92 297 -227t95 -327
q0 -227 -135.5 -370t-343.5 -143zM585 98q153 0 249 109t96 288q0 187 -101 301t-250 114q-93 0 -170.5 -47t-125.5 -141.5t-48 -220.5q0 -182 96.5 -292.5t253.5 -110.5z" />
    <glyph glyph-name="epsilongreek" unicode="&#x3b5;" horiz-adv-x="1073" 
d="M550 -18q-200 0 -314.5 84t-114.5 223q0 192 202 249v12q-181 53 -181 237q0 141 113.5 224.5t300.5 83.5q188 0 303 -81.5t140 -232.5h-132q-22 92 -104.5 144t-207.5 52q-129 0 -207 -52t-78 -141q0 -84 66 -130.5t196 -46.5h145v-118h-146q-131 0 -203 -51.5
t-72 -140.5q0 -92 76.5 -144t216.5 -52q131 0 222 56.5t115 153.5h133q-26 -145 -157 -237t-312 -92z" />
    <glyph glyph-name="zetagreek" unicode="&#x3b6;" horiz-adv-x="909" 
d="M806 -356l-106 36q71 105 71 186q0 70 -44 107.5t-182 84.5q-247 84 -347.5 200.5t-100.5 315.5q0 215 144 419t416 382v12h-475v119h694v-118q-644 -378 -644 -814q0 -153 77.5 -238.5t285.5 -159.5q178 -61 241.5 -123t63.5 -169q0 -116 -94 -240z" />
    <glyph glyph-name="etagreek" unicode="&#x3b7;" horiz-adv-x="1258" 
d="M248 0v834q0 75 -24.5 106t-78.5 31q-31 0 -53 -5v111q33 10 84 10q85 0 135 -43t59 -128l3 -32h12q42 98 132 154.5t208 56.5q176 0 274.5 -103.5t98.5 -291.5v-1057h-131v1024q0 153 -71 231.5t-206 78.5q-141 0 -226 -94t-85 -245v-638h-131z" />
    <glyph glyph-name="thetagreek" unicode="&#x3b8;" horiz-adv-x="1205" 
d="M603 -18q-237 0 -361 196t-124 575t124.5 575t360.5 196q235 0 359.5 -195.5t124.5 -577.5q0 -378 -124 -573.5t-360 -195.5zM253 820h699q-16 585 -349 585q-334 0 -350 -585zM603 101q169 0 256.5 146t93.5 455h-701q6 -309 94 -455t257 -146z" />
    <glyph glyph-name="iotagreek" unicode="&#x3b9;" horiz-adv-x="599" 
d="M447 -9q-146 0 -210.5 66.5t-64.5 209.5v810h131v-782q0 -98 40 -143t126 -45q31 0 76 6v-112q-48 -10 -98 -10z" />
    <glyph glyph-name="kappagreek" unicode="&#x3ba;" horiz-adv-x="1164" 
d="M172 0v1077h131v-591h12l382 444q77 91 132.5 124t129.5 33q42 0 78 -10v-111q-30 5 -61 5q-53 0 -92 -25.5t-103 -101.5l-161 -188l449 -656h-151l-380 562l-235 -261v-301h-131z" />
    <glyph glyph-name="lambdagreek" unicode="&#x3bb;" horiz-adv-x="1127" 
d="M44 0l436 1027l-51 139q-30 82 -51 126t-47.5 71.5t-53.5 35.5t-73 8q-25 0 -51 -6v113q33 10 81 10q119 0 185 -68t133 -263l341 -981q20 -58 50 -82t78 -24q25 0 53 6v-112q-31 -10 -72 -10q-95 0 -144 40.5t-87 152.5l-229 677h-12l-344 -860h-142z" />
    <glyph glyph-name="nugreek" unicode="&#x3bd;" horiz-adv-x="1090" 
d="M573 0h-153l-347 1077h140l290 -955h12q164 227 236 406.5t72 353.5q0 107 -20 195h131q20 -86 20 -193q0 -194 -89 -402.5t-292 -481.5z" />
    <glyph glyph-name="xigreek" unicode="&#x3be;" horiz-adv-x="936" 
d="M807 -356l-106 36q39 60 55 101t16 84q0 68 -44 106t-187 87q-248 86 -345.5 177t-97.5 230q0 129 80.5 216.5t231.5 119.5v11q-129 42 -189 111t-60 177q0 103 72.5 178t195.5 98v11h-259v119h703v-107l-110 -11q-247 -24 -362.5 -96t-115.5 -194q0 -223 391 -223h120
v-118h-121q-213 0 -328 -72t-115 -205q0 -71 29.5 -118t109 -91.5t234.5 -98.5q170 -59 232.5 -121.5t62.5 -163.5q0 -63 -20.5 -116t-72.5 -127z" />
    <glyph glyph-name="omicrongreek" unicode="&#x3bf;" horiz-adv-x="1167" 
d="M583 -18q-216 0 -345.5 150.5t-129.5 405.5q0 256 130 406.5t345 150.5q216 0 346.5 -150.5t130.5 -406.5q0 -255 -130 -405.5t-347 -150.5zM583 101q156 0 249 118t93 319q0 203 -93 321t-249 118q-155 0 -247.5 -118t-92.5 -321q0 -202 92 -319.5t248 -117.5z" />
    <glyph glyph-name="pigreek" unicode="&#x3c0;" horiz-adv-x="1348" 
d="M303 0v959h-231v118h1175v-118h-217v-716q0 -76 26 -106.5t90 -30.5q26 0 56 6v-112q-38 -10 -87 -10q-113 0 -163 60t-50 191v718h-472v-959h-127z" />
    <glyph glyph-name="rhogreek" unicode="&#x3c1;" horiz-adv-x="1219" 
d="M162 -357v903q0 257 126.5 403t345.5 146t348 -148.5t129 -397.5q0 -260 -125 -413.5t-333 -153.5q-116 0 -209.5 59.5t-138.5 163.5h-12v-562h-131zM627 101q162 0 255.5 119t93.5 331q0 198 -92 312t-250 114q-161 0 -252.5 -118.5t-91.5 -328.5q0 -190 94.5 -309.5
t242.5 -119.5z" />
    <glyph glyph-name="sigmafinalgreek" unicode="&#x3c2;" horiz-adv-x="1111" 
d="M910 -116q0 -118 -93 -239l-106 35q71 106 71 186q0 68 -44 105.5t-184 87.5q-246 87 -346 200t-100 306q0 244 131.5 387t343.5 143q173 0 286 -90t139 -245h-133q-59 217 -296 217q-148 0 -242 -108.5t-94 -297.5q0 -157 76 -238t285 -156q179 -63 242.5 -124
t63.5 -169z" />
    <glyph glyph-name="sigmagreek" unicode="&#x3c3;" horiz-adv-x="1271" 
d="M581 -18q-213 0 -343 150t-130 400q0 252 140.5 398.5t382.5 146.5h549v-118h-316v-13q89 -55 138.5 -163t49.5 -245q0 -251 -129.5 -403.5t-341.5 -152.5zM581 101q158 0 250.5 117t92.5 317q0 195 -91.5 309t-236.5 114q-160 0 -256.5 -115.5t-96.5 -311.5
q0 -198 92.5 -314t245.5 -116z" />
    <glyph glyph-name="taugreek" unicode="&#x3c4;" horiz-adv-x="1009" 
d="M702 -9q-157 0 -223.5 63.5t-66.5 211.5v693h-351v118h864v-118h-382v-662q0 -101 40 -145.5t133 -44.5q34 0 77 6v-112q-48 -10 -91 -10z" />
    <glyph glyph-name="upsilongreek" unicode="&#x3c5;" horiz-adv-x="1131" 
d="M572 -18q-194 0 -304.5 110t-110.5 320v665h131v-658q0 -156 73.5 -236.5t207.5 -80.5q140 0 221.5 115t81.5 319q0 170 -23 289t-80 252h135q46 -94 74.5 -238t28.5 -287q0 -270 -113 -420t-322 -150z" />
    <glyph glyph-name="phigreek" unicode="&#x3c6;" horiz-adv-x="1458" 
d="M666 -357v338q-269 15 -417 165.5t-148 390.5q0 253 155 398.5t410 158.5v263h127v-263q167 -9 293 -74t198.5 -189t72.5 -294q0 -240 -148 -390.5t-416 -165.5v-338h-127zM793 92q205 15 318 135.5t113 309.5q0 196 -116.5 314t-314.5 131v-890zM666 92v890
q-198 -13 -315 -131t-117 -314q0 -189 113 -309.5t319 -135.5z" />
    <glyph glyph-name="chigreek" unicode="&#x3c7;" horiz-adv-x="1097" 
d="M102 -357l390 712l-249 501q-32 64 -65 89.5t-83 25.5q-19 0 -46 -5v111q33 10 75 10q83 0 131.5 -38t99.5 -142l212 -426h12l311 596h141l-398 -729l242 -483q33 -65 66 -90.5t83 -25.5q16 0 45 6v-112q-33 -10 -74 -10q-78 0 -127 36t-96 128l-215 426h-12l-302 -580
h-141z" />
    <glyph glyph-name="psigreek" unicode="&#x3c8;" horiz-adv-x="1380" 
d="M628 -357v339q-226 4 -347 119.5t-121 312.5v663h131v-650q0 -155 89.5 -239t247.5 -86v1255h128v-1255q175 5 269.5 118t94.5 324q0 310 -103 533h136q44 -89 73.5 -234t29.5 -276q0 -272 -133.5 -424.5t-366.5 -160.5v-339h-128z" />
    <glyph glyph-name="omegagreek" unicode="&#x3c9;" horiz-adv-x="1557" 
d="M483 -18q-169 0 -263.5 136.5t-94.5 385.5q0 166 51.5 322.5t135.5 250.5h145q-197 -235 -197 -571q0 -198 59.5 -301t172.5 -103q99 0 160 85t61 231v340h131v-340q0 -145 60.5 -230.5t158.5 -85.5q114 0 174 102.5t60 301.5q0 336 -197 571h145q85 -94 136.5 -250.5
t51.5 -322.5q0 -250 -94 -386t-264 -136q-102 0 -176.5 59.5t-113.5 174.5h-13q-38 -115 -112.5 -174.5t-176.5 -59.5z" />
    <glyph glyph-name="iotadieresisgreek" unicode="&#x3ca;" horiz-adv-x="599" 
d="M447 -9q-146 0 -210.5 66.5t-64.5 209.5v810h131v-782q0 -98 40 -143t126 -45q31 0 76 6v-112q-48 -10 -98 -10zM52 1228q-42 0 -72 29.5t-30 72.5t30 72.5t72 29.5q43 0 72.5 -29.5t29.5 -72.5t-29.5 -72.5t-72.5 -29.5zM416 1228q-42 0 -72 29.5t-30 72.5t30 72.5
t72 29.5q43 0 72.5 -29.5t29.5 -72.5t-29.5 -72.5t-72.5 -29.5z" />
    <glyph glyph-name="upsilondieresisgreek" unicode="&#x3cb;" horiz-adv-x="1131" 
d="M370 1228q-42 0 -72 29.5t-30 72.5t30 72.5t72 29.5q43 0 72.5 -29.5t29.5 -72.5t-29.5 -72.5t-72.5 -29.5zM734 1228q-42 0 -72 29.5t-30 72.5t30 72.5t72 29.5q43 0 72.5 -29.5t29.5 -72.5t-29.5 -72.5t-72.5 -29.5zM572 -18q-194 0 -304.5 110t-110.5 320v665h131
v-658q0 -156 73.5 -236.5t207.5 -80.5q140 0 221.5 115t81.5 319q0 170 -23 289t-80 252h135q46 -94 74.5 -238t28.5 -287q0 -270 -113 -420t-322 -150z" />
    <glyph glyph-name="omicrontonosgreek" unicode="&#x3cc;" horiz-adv-x="1161" 
d="M583 -18q-216 0 -345.5 150.5t-129.5 405.5q0 256 130 406.5t345 150.5q216 0 346.5 -150.5t130.5 -406.5q0 -255 -130 -405.5t-347 -150.5zM583 101q156 0 249 118t93 319q0 203 -93 321t-249 118q-155 0 -247.5 -118t-92.5 -321q0 -202 92 -319.5t248 -117.5zM510 1252
l88 328h158l-125 -328h-121z" />
    <glyph glyph-name="upsilontonosgreek" unicode="&#x3cd;" horiz-adv-x="1131" 
d="M474 1252l88 328h158l-125 -328h-121zM572 -18q-194 0 -304.5 110t-110.5 320v665h131v-658q0 -156 73.5 -236.5t207.5 -80.5q140 0 221.5 115t81.5 319q0 170 -23 289t-80 252h135q46 -94 74.5 -238t28.5 -287q0 -270 -113 -420t-322 -150z" />
    <glyph glyph-name="omegatonosgreek" unicode="&#x3ce;" horiz-adv-x="1557" 
d="M483 -18q-169 0 -263.5 136.5t-94.5 385.5q0 166 51.5 322.5t135.5 250.5h145q-197 -235 -197 -571q0 -198 59.5 -301t172.5 -103q99 0 160 85t61 231v340h131v-340q0 -145 60.5 -230.5t158.5 -85.5q114 0 174 102.5t60 301.5q0 336 -197 571h145q85 -94 136.5 -250.5
t51.5 -322.5q0 -250 -94 -386t-264 -136q-102 0 -176.5 59.5t-113.5 174.5h-13q-38 -115 -112.5 -174.5t-176.5 -59.5zM711 1252l88 328h158l-125 -328h-121z" />
    <glyph glyph-name="Iocyrillic" unicode="&#x401;" horiz-adv-x="1217" 
d="M449 1568q-42 0 -72 29.5t-30 72.5t30 72.5t72 29.5q43 0 72.5 -29.5t29.5 -72.5t-29.5 -72.5t-72.5 -29.5zM813 1568q-42 0 -72 29.5t-30 72.5t30 72.5t72 29.5q43 0 72.5 -29.5t29.5 -72.5t-29.5 -72.5t-72.5 -29.5zM1067 124v-124h-872v1443h872v-124h-735v-519h698
v-122h-698v-554h735z" />
    <glyph glyph-name="Djecyrillic" unicode="&#x402;" horiz-adv-x="1701" 
d="M1146 -14q-36 0 -66.5 4t-42.5 8l-12 3v123q40 -13 119 -13q126 0 205.5 85t79.5 236q0 145 -87.5 239.5t-249.5 94.5q-68 0 -129 -17t-99.5 -39.5t-72 -53t-47.5 -50t-26 -38.5v-568h-136v1320h-484v123h1104v-123h-484v-579h14q139 149 368 149q149 0 256 -62.5
t158.5 -164.5t51.5 -230q0 -198 -113.5 -322.5t-306.5 -124.5z" />
    <glyph glyph-name="Gjecyrillic" unicode="&#x403;" horiz-adv-x="1153" 
d="M496 1577l310 297h174l-326 -297h-158zM333 0h-138v1443h843v-125h-705v-1318z" />
    <glyph glyph-name="Ecyrillic" unicode="&#x404;" horiz-adv-x="1491" 
d="M1363 411q-30 -199 -190 -320t-392 -121q-298 0 -471 202t-173 549q0 346 173.5 549t469.5 203q149 0 275.5 -60.5t207.5 -168t100 -242.5h-138q-32 153 -155.5 248.5t-289.5 95.5q-213 0 -346.5 -146.5t-152.5 -398.5h681v-124h-683q11 -267 145.5 -423.5t356.5 -156.5
q171 0 292.5 86t151.5 228h138z" />
    <glyph glyph-name="Dzecyrillic" unicode="&#x405;" horiz-adv-x="1304" 
d="M125 375h138q14 -124 126.5 -202t277.5 -78q161 0 266 80t105 201q0 102 -77.5 170t-244.5 109l-165 42q-203 50 -294 139.5t-91 236.5q0 176 137.5 288t356.5 112q206 0 345 -108.5t150 -274.5h-138q-17 116 -114.5 187t-246.5 71q-155 0 -252.5 -76.5t-97.5 -194.5
q0 -94 72 -153.5t237 -100.5l143 -36q223 -55 321.5 -148.5t98.5 -247.5q0 -189 -143.5 -305t-379.5 -116q-224 0 -370.5 112t-159.5 293z" />
    <glyph glyph-name="Icyrillic" unicode="&#x406;" horiz-adv-x="527" 
d="M332 0h-137v1443h137v-1443z" />
    <glyph glyph-name="Yicyrillic" unicode="&#x407;" horiz-adv-x="527" 
d="M332 0h-137v1443h137v-1443zM82 1568q-42 0 -72 29.5t-30 72.5t30 72.5t72 29.5q43 0 72.5 -29.5t29.5 -72.5t-29.5 -72.5t-72.5 -29.5zM446 1568q-42 0 -72 29.5t-30 72.5t30 72.5t72 29.5q43 0 72.5 -29.5t29.5 -72.5t-29.5 -72.5t-72.5 -29.5z" />
    <glyph glyph-name="Jecyrillic" unicode="&#x408;" horiz-adv-x="1108" 
d="M102 330h136q5 -103 78 -168t186 -65q131 0 202.5 78.5t71.5 222.5v1045h137v-1050q0 -197 -110 -310t-300 -113q-175 0 -287.5 100.5t-113.5 259.5z" />
    <glyph glyph-name="Ljecyrillic" unicode="&#x409;" horiz-adv-x="2148" 
d="M441 510q-7 -123 -27.5 -214.5t-58.5 -162t-100 -106.5t-148 -36q-35 0 -65 10v123q19 -7 54 -7q58 0 98.5 29t64 86t35.5 124.5t17 160.5l54 926h837v-558h368q207 0 335.5 -122.5t128.5 -320.5q0 -197 -128.5 -319.5t-334.5 -122.5h-506v1319h-574zM1202 124h336
q168 0 262 84t94 234t-94.5 235t-261.5 85h-336v-638z" />
    <glyph glyph-name="Njecyrillic" unicode="&#x40a;" horiz-adv-x="2229" 
d="M1276 124h336q167 0 261 75.5t94 209.5q0 126 -94 197t-261 71h-336v-553zM329 677v-677h-137v1443h137v-642h810v642h137v-642h367q207 0 335.5 -108.5t128.5 -283.5q0 -183 -128 -296t-334 -113h-506v677h-810z" />
    <glyph glyph-name="Tshecyrillic" unicode="&#x40b;" horiz-adv-x="1736" 
d="M1085 766q-67 0 -126.5 -17t-97.5 -39t-70.5 -53.5t-46.5 -50t-26 -38.5v-568h-136v1319h-484v124h1104v-124h-484v-576h14q59 64 153 105.5t213 41.5q146 0 252.5 -64t159.5 -173t53 -250v-403h-137v392q0 171 -89 272.5t-252 101.5z" />
    <glyph glyph-name="Kjecyrillic" unicode="&#x40c;" horiz-adv-x="1332" 
d="M534 1577l310 297h174l-326 -297h-158zM339 793h40l655 650h174l-711 -697l774 -746h-184l-708 684h-40v-684h-137v1443h137v-650z" />
    <glyph glyph-name="Ushortcyrillic" unicode="&#x40e;" horiz-adv-x="1293" 
d="M340 1851h120q0 -83 54.5 -132.5t139.5 -49.5q87 0 141.5 49.5t54.5 132.5h120q0 -128 -86 -201t-230 -73q-143 0 -228.5 73t-85.5 201zM331 -10q-51 0 -75 12v124q36 -9 75 -9q84 0 143 51.5t111 155.5l-501 1119h148l419 -965h12l403 965h142l-453 -1044
q-37 -84 -65.5 -140t-66.5 -111.5t-78.5 -87t-94.5 -51t-119 -19.5z" />
    <glyph glyph-name="Dzhecyrillic" unicode="&#x40f;" horiz-adv-x="1490" 
d="M681 0h-486v1443h137v-1319h826v1319h137v-1443h-486v-285h-128v285z" />
    <glyph glyph-name="Acyrillic" unicode="&#x410;" horiz-adv-x="1383" 
d="M1155 0l-160 442h-606l-160 -442h-145l540 1443h136l539 -1443h-144zM685 1264l-255 -704h524l-256 704h-13z" />
    <glyph glyph-name="Becyrillic" unicode="&#x411;" horiz-adv-x="1281" 
d="M1160 425q0 -190 -128.5 -307.5t-334.5 -117.5h-502v1443h830v-124h-693v-467h364q206 0 335 -118.5t129 -308.5zM332 124h333q167 0 261 79.5t94 221.5t-94 222.5t-261 80.5h-333v-604z" />
    <glyph glyph-name="Vecyrillic" unicode="&#x412;" horiz-adv-x="1339" 
d="M725 0h-530v1443h519q199 0 314 -95.5t115 -260.5q0 -121 -74 -209.5t-190 -108.5v-13q153 -17 245.5 -113t92.5 -244q0 -189 -129 -294t-363 -105zM332 1322v-515h323q168 0 259 66.5t91 191.5q0 121 -84.5 189t-232.5 68h-356zM332 121h374q181 0 276 73t95 212
q0 137 -100 209.5t-288 72.5h-357v-567z" />
    <glyph glyph-name="Gecyrillic" unicode="&#x413;" horiz-adv-x="1153" 
d="M333 0h-138v1443h843v-125h-705v-1318z" />
    <glyph glyph-name="Decyrillic" unicode="&#x414;" horiz-adv-x="1478" 
d="M428 503q-8 -136 -31.5 -223.5t-77.5 -145.5v-10h767v1195h-608zM168 0v-285h-128v409h102q75 39 111 135t45 249l57 935h867v-1319h183v-409h-127v285h-1110z" />
    <glyph glyph-name="Iecyrillic" unicode="&#x415;" horiz-adv-x="1217" 
d="M1067 124v-124h-872v1443h872v-124h-735v-519h698v-122h-698v-554h735z" />
    <glyph glyph-name="Zhecyrillic" unicode="&#x416;" horiz-adv-x="2017" 
d="M939 791v652h137v-652h40l599 652h170l-655 -696l716 -747h-180l-650 685h-40v-685h-137v685h-39l-651 -685h-177l713 744l-657 699h172l600 -652h39z" />
    <glyph glyph-name="Zecyrillic" unicode="&#x417;" horiz-adv-x="1247" 
d="M414 681v122h186q147 0 237 78t90 202q0 119 -86 193.5t-234 74.5q-143 0 -235 -73t-103 -195h-133q12 177 141.5 283.5t334.5 106.5q199 0 326 -107.5t127 -271.5q0 -124 -74.5 -216t-200.5 -120v-12q154 -13 248 -108.5t94 -247.5q0 -178 -147 -299t-367 -121
q-219 0 -362 112t-151 287h133q8 -120 114 -198t265 -78q167 0 271 84.5t104 215.5q0 134 -101.5 211t-285.5 77h-191z" />
    <glyph glyph-name="Iicyrillic" unicode="&#x418;" horiz-adv-x="1514" 
d="M1184 0v1218h-13l-841 -1218h-135v1443h135v-1221h13l841 1221h135v-1443h-135z" />
    <glyph glyph-name="Iishortcyrillic" unicode="&#x419;" horiz-adv-x="1514" 
d="M434 1851h120q0 -83 54.5 -132.5t139.5 -49.5q87 0 141.5 49.5t54.5 132.5h120q0 -128 -86 -201t-230 -73q-143 0 -228.5 73t-85.5 201zM1184 0v1218h-13l-841 -1218h-135v1443h135v-1221h13l841 1221h135v-1443h-135z" />
    <glyph glyph-name="Kacyrillic" unicode="&#x41a;" horiz-adv-x="1335" 
d="M332 793h40l655 650h174l-711 -697l774 -746h-184l-708 684h-40v-684h-137v1443h137v-650z" />
    <glyph glyph-name="Elcyrillic" unicode="&#x41b;" horiz-adv-x="1396" 
d="M1201 0h-136v1319h-578l-50 -809q-7 -124 -27 -214.5t-58 -161.5t-100.5 -107t-148.5 -36q-35 0 -65 10v123q19 -7 54 -7q58 0 98.5 29t64 86t35.5 124.5t17 160.5l55 926h839v-1443z" />
    <glyph glyph-name="Emcyrillic" unicode="&#x41c;" horiz-adv-x="1781" 
d="M324 0h-129v1443h157l533 -1256h12l531 1256h158v-1443h-128v1177h-10l-498 -1170h-119l-498 1170h-9v-1177z" />
    <glyph glyph-name="Encyrillic" unicode="&#x41d;" horiz-adv-x="1508" 
d="M1313 0h-137v677h-844v-677h-137v1443h137v-642h844v642h137v-1443z" />
    <glyph glyph-name="Ocyrillic" unicode="&#x41e;" horiz-adv-x="1581" 
d="M791 1473q303 0 477.5 -202t174.5 -549t-174.5 -549.5t-477.5 -202.5q-304 0 -479 202.5t-175 549.5q0 346 176 548.5t478 202.5zM791 1346q-236 0 -375 -168.5t-139 -455.5q0 -286 138 -455.5t376 -169.5q237 0 374.5 169.5t137.5 455.5q0 287 -137.5 455.5
t-374.5 168.5z" />
    <glyph glyph-name="Pecyrillic" unicode="&#x41f;" horiz-adv-x="1490" 
d="M1295 0h-135v1318h-827v-1318h-138v1443h1100v-1443z" />
    <glyph glyph-name="Ercyrillic" unicode="&#x420;" horiz-adv-x="1292" 
d="M195 1443h513q207 0 334.5 -125t127.5 -327q0 -199 -129 -323t-335 -124h-374v-544h-137v1443zM332 1321v-655h343q167 0 261.5 86.5t94.5 238.5q0 156 -93.5 243t-262.5 87h-343z" />
    <glyph glyph-name="Escyrillic" unicode="&#x421;" horiz-adv-x="1491" 
d="M773 -30q-294 0 -465 202t-171 549t171 549.5t464 202.5q147 0 271.5 -60.5t205 -168t99.5 -242.5h-139q-31 153 -152.5 248.5t-284.5 95.5q-227 0 -361 -169.5t-134 -455.5q0 -287 134 -455.5t362 -168.5q167 0 286.5 86t149.5 228h139q-31 -199 -188.5 -320
t-386.5 -121z" />
    <glyph glyph-name="Tecyrillic" unicode="&#x422;" horiz-adv-x="1300" 
d="M718 0h-136v1319h-484v124h1104v-124h-484v-1319z" />
    <glyph glyph-name="Ucyrillic" unicode="&#x423;" horiz-adv-x="1293" 
d="M331 -10q-51 0 -75 12v124q36 -9 75 -9q84 0 143 51.5t111 155.5l-501 1119h148l419 -965h12l403 965h142l-453 -1044q-37 -84 -65.5 -140t-66.5 -111.5t-78.5 -87t-94.5 -51t-119 -19.5z" />
    <glyph glyph-name="Efcyrillic" unicode="&#x424;" horiz-adv-x="1671" 
d="M768 260v930q-232 -5 -370 -130t-138 -335t137 -335t371 -130zM1410 725q0 210 -137 335t-370 130v-930q232 5 369.5 130t137.5 335zM768 137q-295 5 -470.5 162.5t-175.5 425.5t176 425t470 163v147h135v-147q295 -5 470 -162.5t175 -425.5q0 -269 -175.5 -426
t-469.5 -162v-154h-135v154z" />
    <glyph glyph-name="Xacyrillic" unicode="&#x425;" horiz-adv-x="1386" 
d="M105 0l504 724l-500 719h165l418 -609h11l422 609h156l-508 -724l500 -719h-164l-416 606h-11l-421 -606h-156z" />
    <glyph glyph-name="Tsecyrillic" unicode="&#x426;" horiz-adv-x="1549" 
d="M1476 -285h-128v285h-1153v1443h137v-1319h824v1319h137v-1319h183v-409z" />
    <glyph glyph-name="Checyrillic" unicode="&#x427;" horiz-adv-x="1381" 
d="M1185 0h-136v704h-12q-64 -66 -162.5 -108.5t-225.5 -42.5q-234 0 -370.5 142.5t-136.5 365.5v382h137v-372q0 -176 99 -283.5t270 -107.5q148 0 255 63t146 142v558h136v-1443z" />
    <glyph glyph-name="Shacyrillic" unicode="&#x428;" horiz-adv-x="1936" 
d="M195 0v1443h137v-1319h568v1319h136v-1319h568v1319h137v-1443h-1546z" />
    <glyph glyph-name="Shchacyrillic" unicode="&#x429;" horiz-adv-x="1997" 
d="M1924 -285h-128v285h-1601v1443h137v-1319h568v1319h136v-1319h568v1319h137v-1319h183v-409z" />
    <glyph glyph-name="Hardsigncyrillic" unicode="&#x42a;" horiz-adv-x="1514" 
d="M936 0h-505v1319h-340v124h476v-558h368q207 0 335.5 -122.5t128.5 -320.5q0 -197 -128.5 -319.5t-334.5 -122.5zM567 124h337q167 0 261 84t94 234t-94.5 235t-260.5 85h-337v-638z" />
    <glyph glyph-name="Yericyrillic" unicode="&#x42b;" horiz-adv-x="1717" 
d="M1522 0h-137v1443h137v-1443zM195 0v1443h137v-558h367q207 0 335.5 -122.5t128.5 -320.5q0 -197 -128 -319.5t-334 -122.5h-506zM332 124h336q167 0 261.5 84t94.5 234t-94.5 235t-261.5 85h-336v-638z" />
    <glyph glyph-name="Softsigncyrillic" unicode="&#x42c;" horiz-adv-x="1285" 
d="M195 0v1443h137v-558h367q207 0 335.5 -122.5t128.5 -320.5q0 -197 -128 -319.5t-334 -122.5h-506zM332 124h336q167 0 261.5 84t94.5 234t-94.5 235t-261.5 85h-336v-638z" />
    <glyph glyph-name="Ereversedcyrillic" unicode="&#x42d;" horiz-adv-x="1491" 
d="M718 -30q-236 0 -398 121t-193 320h139q30 -142 154 -228t298 -86q218 0 351 155.5t143 424.5h-683v124h681q-18 253 -149.5 399t-341.5 146q-169 0 -295.5 -95.5t-157.5 -248.5h-139q19 135 101.5 243t211 168t279.5 60q292 0 463 -202t171 -548q0 -348 -170.5 -550.5
t-464.5 -202.5z" />
    <glyph glyph-name="IUcyrillic" unicode="&#x42e;" horiz-adv-x="2033" 
d="M1257 -30q-289 0 -459 189.5t-181 517.5h-285v-677h-137v1443h137v-642h287q20 313 190 492.5t448 179.5q296 0 467 -202t171 -549t-170.5 -549.5t-467.5 -202.5zM1257 1346q-231 0 -366 -168.5t-135 -455.5q0 -286 134.5 -455.5t366.5 -169.5q230 0 364 169.5t134 455.5
q0 287 -134 455.5t-364 168.5z" />
    <glyph glyph-name="IAcyrillic" unicode="&#x42f;" horiz-adv-x="1342" 
d="M1010 703v616h-334q-168 0 -261.5 -81t-93.5 -226q0 -146 94 -227.5t261 -81.5h334zM683 579l-406 -579h-161l418 596q-160 31 -256.5 142t-96.5 274q0 193 127.5 312t335.5 119h502v-1443h-136v579h-327z" />
    <glyph glyph-name="acyrillic" unicode="&#x430;" horiz-adv-x="1145" 
d="M501 98q145 0 242.5 87.5t97.5 215.5v126l-319 -23q-271 -19 -271 -204q0 -92 70 -147t180 -55zM479 -18q-160 0 -261.5 86.5t-101.5 229.5q0 140 100 220.5t288 93.5l337 22v104q0 116 -68.5 178t-199.5 62q-111 0 -186.5 -44.5t-94.5 -122.5h-133q19 128 133.5 206
t284.5 78q189 0 292.5 -93.5t103.5 -262.5v-739h-126v185h-12q-49 -96 -143 -149.5t-213 -53.5z" />
    <glyph glyph-name="becyrillic" unicode="&#x431;" horiz-adv-x="1235" 
d="M617 -19q-235 0 -363.5 158.5t-128.5 477.5q0 161 14.5 282.5t51.5 227t99 173t158 107t227 43.5q32 0 134 6q145 9 236 49v-117q-1 0 -7 -3.5t-14 -7.5t-21 -9t-31 -10t-40 -9.5t-52 -8t-64 -5.5q-60 -7 -137 -7q-117 -3 -197.5 -36t-130 -99.5t-75 -152t-38.5 -209.5
h12q52 108 151 170t234 62q215 0 345 -143.5t130 -388.5q0 -255 -133 -402.5t-360 -147.5zM617 99q167 0 262.5 115t95.5 317q0 194 -95.5 304t-262.5 110t-262 -110t-95 -304q0 -202 95 -317t262 -115z" />
    <glyph glyph-name="vecyrillic" unicode="&#x432;" horiz-adv-x="1114" 
d="M595 966h-286v-354h266q112 0 170.5 47.5t58.5 134.5q0 80 -54 126t-155 46zM585 501h-276v-390h302q119 0 182 50.5t63 146.5q0 193 -271 193zM178 0v1077h432q152 0 238 -73t86 -198q0 -87 -53 -153.5t-136 -82.5v-13q105 -12 173 -80.5t68 -170.5q0 -144 -98 -225
t-274 -81h-436z" />
    <glyph glyph-name="gecyrillic" unicode="&#x433;" horiz-adv-x="956" 
d="M861 966h-552v-966h-131v1077h683v-111z" />
    <glyph glyph-name="decyrillic" unicode="&#x434;" horiz-adv-x="1257" 
d="M889 111v855h-467q-2 -45 -17.5 -252.5t-19.5 -250.5q-21 -249 -97 -340v-12h601zM168 -285h-124v396h87q108 70 131 357q6 59 43 609h715v-966h174v-396h-124v285h-902v-285z" />
    <glyph glyph-name="iecyrillic" unicode="&#x435;" horiz-adv-x="1194" 
d="M605 979q-147 0 -241 -100.5t-103 -266.5h671q-2 167 -91.5 267t-235.5 100zM919 266h133q-40 -132 -158 -208t-287 -76q-222 0 -352 150.5t-130 405.5q0 254 130.5 405.5t350.5 151.5q215 0 339 -143t124 -390v-58h-809v-6q5 -183 99.5 -291t250.5 -108q114 0 194 43.5
t115 123.5z" />
    <glyph glyph-name="zhecyrillic" unicode="&#x436;" horiz-adv-x="1602" 
d="M79 0l503 559l-482 518h161l426 -474h48v474h129v-474h47l426 474h160l-480 -515l505 -562h-168l-443 502h-47v-502h-129v502h-48l-442 -502h-166z" />
    <glyph glyph-name="zecyrillic" unicode="&#x437;" horiz-adv-x="1062" 
d="M535 -19q-174 0 -287 80.5t-132 213.5h135q18 -83 92.5 -132.5t191.5 -49.5q127 0 200.5 56.5t73.5 151.5q0 201 -278 201h-168v111h168q115 0 176.5 48.5t61.5 138.5q0 82 -61 132t-173 50t-183.5 -50t-86.5 -132h-130q20 133 126 214t274 81q171 0 267 -78t96 -209
q0 -87 -53.5 -152.5t-138.5 -83.5v-12q108 -19 170.5 -84.5t62.5 -167.5q0 -149 -111 -238t-293 -89z" />
    <glyph glyph-name="iicyrillic" unicode="&#x438;" horiz-adv-x="1229" 
d="M309 0h-131v1077h131v-868h13l598 868h131v-1077h-131v868h-12z" />
    <glyph glyph-name="iishortcyrillic" unicode="&#x439;" horiz-adv-x="1229" 
d="M288 1538h120q0 -88 53.5 -147t141.5 -59q89 0 142.5 59t53.5 147h120q0 -132 -87 -215t-229 -83t-228.5 83t-86.5 215zM309 0h-131v1077h131v-868h13l598 868h131v-1077h-131v868h-12z" />
    <glyph glyph-name="kacyrillic" unicode="&#x43a;" horiz-adv-x="1092" 
d="M309 605h42l479 472h162l-531 -517l555 -560h-173l-492 500h-42v-500h-131v1077h131v-472z" />
    <glyph glyph-name="elcyrillic" unicode="&#x43b;" horiz-adv-x="1181" 
d="M397 463q-9 -112 -25.5 -192t-48.5 -146.5t-85 -100t-128 -33.5q-33 0 -60 10v121q24 -8 54 -8q41 0 71.5 25t49.5 74t30 110t17 145q4 43 21.5 301.5t20.5 307.5h689v-1077h-131v966h-439q-17 -308 -36 -503z" />
    <glyph glyph-name="emcyrillic" unicode="&#x43c;" horiz-adv-x="1522" 
d="M309 0h-131v1077h158l423 -895h12l421 895h152v-1077h-131v837h-15l-384 -816h-103l-388 816h-14v-837z" />
    <glyph glyph-name="encyrillic" unicode="&#x43d;" horiz-adv-x="1216" 
d="M178 0v1077h131v-462h598v462h131v-1077h-131v504h-598v-504h-131z" />
    <glyph glyph-name="ocyrillic" unicode="&#x43e;" horiz-adv-x="1228" 
d="M614 101q166 0 260 116.5t94 321.5t-94 321.5t-260 116.5t-260 -116.5t-94 -321.5t94 -321.5t260 -116.5zM614 -18q-226 0 -357.5 149.5t-131.5 407.5t131.5 407t357.5 149t358 -149t132 -407t-132 -407.5t-358 -149.5z" />
    <glyph glyph-name="pecyrillic" unicode="&#x43f;" horiz-adv-x="1206" 
d="M897 0v966h-588v-966h-131v1077h850v-1077h-131z" />
    <glyph glyph-name="ercyrillic" unicode="&#x440;" horiz-adv-x="1262" 
d="M684 1095q205 0 329 -152.5t124 -403.5t-124.5 -404t-328.5 -153q-125 0 -221.5 59.5t-141.5 163.5h-12v-562h-131v1434h125v-220h12q50 111 148 174.5t221 63.5zM655 101q160 0 253.5 118t93.5 319q0 202 -93.5 320.5t-252.5 118.5q-158 0 -254.5 -120t-96.5 -318
t96 -318t254 -120z" />
    <glyph glyph-name="escyrillic" unicode="&#x441;" horiz-adv-x="1165" 
d="M1052 760h-133q-26 96 -107.5 156.5t-201.5 60.5q-161 0 -255.5 -118t-94.5 -317q0 -202 95 -321.5t255 -119.5q120 0 201.5 55t106.5 154h133q-25 -148 -142 -238t-298 -90q-223 0 -354.5 151.5t-131.5 408.5q0 253 131.5 403t353.5 150q180 0 298.5 -94.5t143.5 -240.5
z" />
    <glyph glyph-name="tecyrillic" unicode="&#x442;" horiz-adv-x="1033" 
d="M950 1077v-111h-368v-966h-131v966h-368v111h867z" />
    <glyph glyph-name="ucyrillic" unicode="&#x443;" horiz-adv-x="1099" 
d="M255 -381q-27 0 -61 4v114q20 -4 59 -4q74 0 120 43t86 150l22 67l-404 1084h142l326 -934h12l325 934h140l-419 -1129q-72 -194 -144 -261.5t-204 -67.5z" />
    <glyph glyph-name="efcyrillic" unicode="&#x444;" horiz-adv-x="1507" 
d="M690 99v877q-198 -5 -315 -122.5t-117 -316.5t117 -315.5t315 -122.5zM1249 538q0 199 -117 316t-314 122v-877q197 5 314 122.5t117 316.5zM690 -15q-257 5 -411 154t-154 398q0 250 154 399t411 154v363h128v-363q256 -5 410 -154t154 -398q0 -250 -154.5 -399
t-409.5 -154v-342h-128v342z" />
    <glyph glyph-name="hacyrillic" unicode="&#x445;" horiz-adv-x="1069" 
d="M539 440h-12l-294 -440h-150l380 542l-383 535h158l293 -430h12l291 430h151l-378 -530l382 -547h-157z" />
    <glyph glyph-name="tsecyrillic" unicode="&#x446;" horiz-adv-x="1258" 
d="M1195 -285h-124v285h-893v1077h131v-966h581v966h131v-966h174v-396z" />
    <glyph glyph-name="checyrillic" unicode="&#x447;" horiz-adv-x="1151" 
d="M973 0h-131v509h-14q-116 -116 -296 -116q-176 0 -275 105t-99 281v298h131v-293q0 -127 66 -200t186 -73q111 0 187.5 46t113.5 103v417h131v-1077z" />
    <glyph glyph-name="shacyrillic" unicode="&#x448;" horiz-adv-x="1678" 
d="M178 0v1077h131v-966h465v966h131v-966h464v966h131v-1077h-1322z" />
    <glyph glyph-name="shchacyrillic" unicode="&#x449;" horiz-adv-x="1737" 
d="M1675 -285h-124v285h-1373v1077h131v-966h465v966h131v-966h464v966h131v-966h175v-396z" />
    <glyph glyph-name="hardsigncyrillic" unicode="&#x44a;" horiz-adv-x="1224" 
d="M732 0h-365v966h-290v111h421v-366h234q179 0 284.5 -96.5t105.5 -259.5t-105.5 -259t-284.5 -96zM732 599h-234v-488h234q118 0 188.5 67t70.5 177q0 111 -71 177.5t-188 66.5z" />
    <glyph glyph-name="yericyrillic" unicode="&#x44b;" horiz-adv-x="1399" 
d="M1090 0v1077h131v-1077h-131zM543 599h-234v-488h234q118 0 188.5 66.5t70.5 177.5q0 112 -70.5 178t-188.5 66zM178 0v1077h131v-366h234q179 0 284.5 -96.5t105.5 -259.5t-105.5 -259t-284.5 -96h-365z" />
    <glyph glyph-name="softsigncyrillic" unicode="&#x44c;" horiz-adv-x="1042" 
d="M543 599h-234v-488h234q118 0 188.5 66.5t70.5 177.5q0 112 -70.5 178t-188.5 66zM178 0v1077h131v-366h234q179 0 284.5 -96.5t105.5 -259.5t-105.5 -259t-284.5 -96h-365z" />
    <glyph glyph-name="ereversedcyrillic" unicode="&#x44d;" horiz-adv-x="1174" 
d="M561 -19q-185 0 -302 91t-142 237h133q24 -96 105.5 -152.5t205.5 -56.5q153 0 248.5 109t103.5 292h-530v112h528q-13 166 -108.5 264.5t-241.5 98.5q-123 0 -205.5 -61t-106.5 -156h-133q24 144 143 240t302 96q222 0 355 -150t133 -401q0 -258 -132.5 -410.5
t-355.5 -152.5z" />
    <glyph glyph-name="iucyrillic" unicode="&#x44e;" horiz-adv-x="1622" 
d="M1018 -19q-214 0 -342 139.5t-137 383.5h-230v-504h-131v1077h131v-462h233q20 224 146.5 352t329.5 128q221 0 350 -149.5t129 -408.5q0 -258 -129 -407t-350 -149zM1018 99q161 0 252.5 116.5t91.5 321.5q0 206 -91.5 322.5t-252.5 116.5t-252.5 -116.5t-91.5 -322.5
q0 -205 91.5 -321.5t252.5 -116.5z" />
    <glyph glyph-name="iacyrillic" unicode="&#x44f;" horiz-adv-x="1081" 
d="M536 518h236v448h-236q-119 0 -189 -61.5t-70 -167.5q0 -98 71 -158.5t188 -60.5zM772 0v407h-219l-293 -407h-157l311 429q-125 26 -196.5 106.5t-71.5 198.5q0 159 105.5 251t284.5 92h367v-1077h-131z" />
    <glyph glyph-name="iocyrillic" unicode="&#x451;" horiz-adv-x="1194" 
d="M605 979q-147 0 -241 -100.5t-103 -266.5h671q-2 167 -91.5 267t-235.5 100zM919 266h133q-40 -132 -158 -208t-287 -76q-222 0 -352 150.5t-130 405.5q0 254 130.5 405.5t350.5 151.5q215 0 339 -143t124 -390v-58h-809v-6q5 -183 99.5 -291t250.5 -108q114 0 194 43.5
t115 123.5zM423 1228q-42 0 -72 29.5t-30 72.5t30 72.5t72 29.5q43 0 72.5 -29.5t29.5 -72.5t-29.5 -72.5t-72.5 -29.5zM787 1228q-42 0 -72 29.5t-30 72.5t30 72.5t72 29.5q43 0 72.5 -29.5t29.5 -72.5t-29.5 -72.5t-72.5 -29.5z" />
    <glyph glyph-name="djecyrillic" unicode="&#x452;" horiz-adv-x="1230" 
d="M320 883h12q44 101 135 156.5t219 55.5q174 0 274 -104.5t100 -290.5v-770q0 -156 -75 -226.5t-233 -70.5h-29v113h26q98 0 139 42.5t41 139.5v739q0 152 -71.5 231t-206.5 79q-151 0 -241 -93.5t-90 -243.5v-640h-131v1279h-149v97h149v130h131v-130h272v-97h-272v-396z
" />
    <glyph glyph-name="gjecyrillic" unicode="&#x453;" horiz-adv-x="956" 
d="M410 1267l250 327h168l-269 -327h-149zM868 966h-552v-966h-131v1077h683v-111z" />
    <glyph glyph-name="ecyrillic" unicode="&#x454;" horiz-adv-x="1165" 
d="M1051 311q-26 -147 -141.5 -237.5t-298.5 -90.5q-223 0 -354.5 151.5t-131.5 407.5q0 253 131.5 403t353.5 150q182 0 300 -95.5t142 -239.5h-133q-25 95 -106 156t-203 61q-146 0 -239.5 -97.5t-107.5 -264.5h522v-111h-525q6 -184 101.5 -293.5t248.5 -109.5
q122 0 203 56.5t105 153.5h133z" />
    <glyph glyph-name="dzecyrillic" unicode="&#x455;" horiz-adv-x="1078" 
d="M154 792q0 129 112.5 216t276.5 87q163 0 270 -75.5t125 -203.5h-129q-18 76 -89.5 121.5t-177.5 45.5q-107 0 -181.5 -53t-74.5 -133q0 -66 52 -107t162 -67l148 -35q159 -38 234 -106.5t75 -183.5q0 -138 -119 -227t-297 -89q-176 0 -290 77.5t-130 210.5h136
q22 -82 97 -129t191 -47q119 0 198 55t79 139q0 70 -51 113.5t-160 69.5l-163 39q-152 37 -223 103.5t-71 178.5z" />
    <glyph glyph-name="icyrillic" unicode="&#x456;" horiz-adv-x="500" 
d="M185 0v1077h131v-1077h-131zM250 1317q-40 0 -68.5 29t-28.5 69t28.5 68.5t68.5 28.5t69 -28.5t29 -68.5q0 -41 -29 -69.5t-69 -28.5z" />
    <glyph glyph-name="yicyrillic" unicode="&#x457;" horiz-adv-x="509" 
d="M94 1318q-40 0 -69 29t-29 69q0 41 28.5 69.5t69.5 28.5t69.5 -28.5t28.5 -69.5q0 -40 -29 -69t-69 -29zM416 1318q-41 0 -69.5 28.5t-28.5 69.5t28.5 69.5t69.5 28.5t69.5 -28.5t28.5 -69.5q0 -40 -29 -69t-69 -29zM175 0v1077h131v-1077h-131z" />
    <glyph glyph-name="jecyrillic" unicode="&#x458;" horiz-adv-x="500" 
d="M316 1077v-1145q0 -156 -74.5 -227.5t-228.5 -71.5h-24v113h21q94 0 134.5 42.5t40.5 139.5v1149h131zM250 1317q-40 0 -68.5 29t-28.5 69t28.5 68.5t68.5 28.5t69 -28.5t29 -68.5q0 -41 -29 -69.5t-69 -28.5z" />
    <glyph glyph-name="ljecyrillic" unicode="&#x459;" horiz-adv-x="1742" 
d="M404 463q-9 -112 -25.5 -192t-48.5 -146.5t-85 -100t-128 -33.5q-33 0 -60 10v121q24 -8 54 -8q79 0 117 91t51 263q4 43 21.5 301.5t20.5 307.5h689v-366h233q179 0 284.5 -96.5t105.5 -259.5t-105.5 -259t-284.5 -96h-364v966h-439q-3 -48 -17.5 -254.5t-18.5 -248.5z
M1243 599h-233v-488h233q118 0 188.5 66.5t70.5 177.5q0 112 -70.5 178t-188.5 66z" />
    <glyph glyph-name="njecyrillic" unicode="&#x45a;" horiz-adv-x="1757" 
d="M1258 519h-240v-408h240q115 0 184 56t69 148q0 93 -69 148.5t-184 55.5zM887 0v519h-578v-519h-131v1077h131v-447h578v447h131v-446h240q176 0 280 -85.5t104 -230.5t-104 -230t-280 -85h-371z" />
    <glyph glyph-name="tshecyrillic" unicode="&#x45b;" horiz-adv-x="1230" 
d="M320 883h12q44 101 135 156.5t219 55.5q174 0 274 -104.5t100 -290.5v-700h-131v667q0 152 -71.5 231t-206.5 79q-151 0 -241 -93.5t-90 -243.5v-640h-131v1279h-149v97h149v130h131v-130h272v-97h-272v-396z" />
    <glyph glyph-name="kjecyrillic" unicode="&#x45c;" horiz-adv-x="1092" 
d="M454 1267l250 327h168l-269 -327h-149zM309 605h42l479 472h162l-531 -517l555 -560h-173l-492 500h-42v-500h-131v1077h131v-472z" />
    <glyph glyph-name="ushortcyrillic" unicode="&#x45e;" horiz-adv-x="1099" 
d="M240 1538h120q0 -88 53.5 -147t141.5 -59q89 0 142.5 59t53.5 147h120q0 -132 -87 -215t-229 -83t-228.5 83t-86.5 215zM255 -381q-27 0 -61 4v114q20 -4 59 -4q74 0 120 43t86 150l22 67l-404 1084h142l326 -934h12l325 934h140l-419 -1129q-72 -194 -144 -261.5
t-204 -67.5z" />
    <glyph glyph-name="dzhecyrillic" unicode="&#x45f;" horiz-adv-x="1206" 
d="M1028 0h-363v-285h-124v285h-363v1077h131v-966h588v966h131v-1077z" />
    <glyph glyph-name="Geupturncyrillic" unicode="&#x490;" horiz-adv-x="1153" 
d="M333 1318v-1318h-138v1443h715v273h128v-398h-705z" />
    <glyph glyph-name="geupturncyrillic" unicode="&#x491;" horiz-adv-x="956" 
d="M861 966h-552v-966h-131v1077h559v274h124v-385z" />
    <glyph glyph-name="baht" unicode="&#xe3f;" horiz-adv-x="1321" 
d="M640 688v-567q180 1 274.5 74t94.5 211q0 133 -95 205.5t-274 76.5zM308 121h228v567h-228v-567zM308 1322v-515h228v515h-228zM640 1322v-513q143 11 220 76t77 180q0 116 -79 184t-218 73zM810 769v-13q153 -17 246 -113.5t93 -243.5q0 -189 -129.5 -294t-363.5 -105
h-16v-150h-104v150h-365v1443h365v156h104v-156h5q199 0 314.5 -96t115.5 -260q0 -121 -74.5 -209.5t-190.5 -108.5z" />
    <glyph glyph-name="Aringbelow" unicode="&#x1e00;" horiz-adv-x="1363" 
d="M1145 0l-160 442h-606l-160 -442h-145l540 1443h136l539 -1443h-144zM675 1264l-255 -704h524l-256 704h-13zM682 -549q-89 0 -151 61t-62 150q0 88 62 149t151 61t151 -61t62 -149q0 -89 -62 -150t-151 -61zM682 -464q53 0 89 36.5t36 89.5t-36 89t-89 36t-89 -36
t-36 -89t36 -89.5t89 -36.5z" />
    <glyph glyph-name="aringbelow" unicode="&#x1e01;" horiz-adv-x="1125" 
d="M491 98q145 0 242.5 87.5t97.5 215.5v126l-319 -23q-271 -19 -271 -204q0 -92 70 -147t180 -55zM469 -18q-160 0 -261.5 86.5t-101.5 229.5q0 140 100 220.5t288 93.5l337 22v104q0 116 -68.5 178t-199.5 62q-111 0 -186.5 -44.5t-94.5 -122.5h-133q19 128 133.5 206
t284.5 78q189 0 292.5 -93.5t103.5 -262.5v-739h-126v185h-12q-49 -96 -143 -149.5t-213 -53.5zM544 -549q-89 0 -151 61t-62 150q0 88 62 149t151 61t151 -61t62 -149q0 -89 -62 -150t-151 -61zM544 -464q53 0 89 36.5t36 89.5t-36 89t-89 36t-89 -36t-36 -89t36 -89.5
t89 -36.5z" />
    <glyph glyph-name="Bdotaccent" unicode="&#x1e02;" horiz-adv-x="1319" 
d="M601 1577q-44 0 -74.5 30.5t-30.5 73.5t31 74t74 31t74 -31t31 -74t-30.5 -73.5t-74.5 -30.5zM715 0h-530v1443h519q199 0 314 -95.5t115 -260.5q0 -121 -74 -209.5t-190 -108.5v-13q153 -17 245.5 -113t92.5 -244q0 -189 -129 -294t-363 -105zM322 1322v-515h323
q168 0 259 66.5t91 191.5q0 121 -84.5 189t-232.5 68h-356zM322 121h374q181 0 276 73t95 212q0 137 -100 209.5t-288 72.5h-357v-567z" />
    <glyph glyph-name="bdotaccent" unicode="&#x1e03;" horiz-adv-x="1252" 
d="M244 1640q-44 0 -74.5 30.5t-30.5 73.5q0 44 30.5 74.5t74.5 30.5t74.5 -30.5t30.5 -74.5q0 -43 -30.5 -73.5t-74.5 -30.5zM685 -18q-124 0 -222 62t-146 171h-13v-215h-125v1506h131v-638h12q45 105 143 166t220 61q205 0 329 -152t124 -404q0 -251 -124.5 -404
t-328.5 -153zM658 977q-159 0 -255 -119.5t-96 -318.5t96 -318.5t255 -119.5t252 118.5t93 320.5q0 201 -93 319t-252 118z" />
    <glyph glyph-name="Bdotbelow" unicode="&#x1e04;" horiz-adv-x="1319" 
d="M601 -364q-43 0 -74 31t-31 74t31 73.5t74 30.5t74 -30.5t31 -73.5t-31 -74t-74 -31zM715 0h-530v1443h519q199 0 314 -95.5t115 -260.5q0 -121 -74 -209.5t-190 -108.5v-13q153 -17 245.5 -113t92.5 -244q0 -189 -129 -294t-363 -105zM322 1322v-515h323q168 0 259 66.5
t91 191.5q0 121 -84.5 189t-232.5 68h-356zM322 121h374q181 0 276 73t95 212q0 137 -100 209.5t-288 72.5h-357v-567z" />
    <glyph glyph-name="bdotbelow" unicode="&#x1e05;" horiz-adv-x="1252" 
d="M659 -364q-43 0 -74 31t-31 74t31 73.5t74 30.5t74 -30.5t31 -73.5t-31 -74t-74 -31zM685 -18q-124 0 -222 62t-146 171h-13v-215h-125v1506h131v-638h12q45 105 143 166t220 61q205 0 329 -152t124 -404q0 -251 -124.5 -404t-328.5 -153zM658 977q-159 0 -255 -119.5
t-96 -318.5t96 -318.5t255 -119.5t252 118.5t93 320.5q0 201 -93 319t-252 118z" />
    <glyph glyph-name="Blinebelow" unicode="&#x1e06;" horiz-adv-x="1319" 
d="M715 0h-530v1443h519q199 0 314 -95.5t115 -260.5q0 -121 -74 -209.5t-190 -108.5v-13q153 -17 245.5 -113t92.5 -244q0 -189 -129 -294t-363 -105zM322 1322v-515h323q168 0 259 66.5t91 191.5q0 121 -84.5 189t-232.5 68h-356zM322 121h374q181 0 276 73t95 212
q0 137 -100 209.5t-288 72.5h-357v-567zM923 -309h-644v105h644v-105z" />
    <glyph glyph-name="blinebelow" unicode="&#x1e07;" horiz-adv-x="1252" 
d="M981 -309h-644v105h644v-105zM685 -18q-124 0 -222 62t-146 171h-13v-215h-125v1506h131v-638h12q45 105 143 166t220 61q205 0 329 -152t124 -404q0 -251 -124.5 -404t-328.5 -153zM658 977q-159 0 -255 -119.5t-96 -318.5t96 -318.5t255 -119.5t252 118.5t93 320.5
q0 201 -93 319t-252 118z" />
    <glyph glyph-name="Ccedillaacute" unicode="&#x1e08;" horiz-adv-x="1455" 
d="M1159 1875l-326 -297h-158l310 297h174zM1338 1002h-139q-31 153 -152.5 248.5t-284.5 95.5q-227 0 -361 -169.5t-134 -455.5q0 -287 134 -455.5t362 -168.5q167 0 286.5 86t149.5 228h139q-29 -187 -170.5 -306t-351.5 -133l-46 -114q100 0 156.5 -41.5t56.5 -118.5
q0 -81 -63 -131.5t-168 -50.5q-78 0 -143 20v87q50 -18 127 -18q60 0 96 24t36 66q0 81 -155 81h-56v67l53 129q-271 19 -427 218.5t-156 530.5q0 347 171 549.5t464 202.5q147 0 271.5 -60.5t205 -168t99.5 -242.5z" />
    <glyph glyph-name="ccedillaacute" unicode="&#x1e09;" horiz-adv-x="1145" 
d="M927 1594l-269 -327h-149l250 327h168zM1042 760h-133q-26 96 -107.5 156.5t-201.5 60.5q-161 0 -255.5 -118t-94.5 -317q0 -202 95 -321.5t255 -119.5q120 0 201.5 55t106.5 154h133q-23 -135 -123.5 -222.5t-257.5 -102.5l-51 -127q100 0 156.5 -41.5t56.5 -118.5
q0 -81 -63 -131.5t-168 -50.5q-78 0 -143 20v87q50 -18 127 -18q60 0 96 24t36 66q0 81 -155 81h-56v67l57 141q-202 17 -320 166.5t-118 391.5q0 253 131.5 403t353.5 150q180 0 298.5 -94.5t143.5 -240.5z" />
    <glyph glyph-name="Ddotaccent" unicode="&#x1e0a;" horiz-adv-x="1471" 
d="M591 1577q-44 0 -74.5 30.5t-30.5 73.5t31 74t74 31t74 -31t31 -74t-30.5 -73.5t-74.5 -30.5zM185 1443h475q327 0 506 -191t179 -530q0 -340 -178.5 -531t-506.5 -191h-475v1443zM322 1319v-1195h330q263 0 408 158t145 439t-145 439.5t-408 158.5h-330z" />
    <glyph glyph-name="ddotaccent" unicode="&#x1e0b;" horiz-adv-x="1256" 
d="M1011 1640q-44 0 -74.5 30.5t-30.5 73.5q0 44 31 74.5t74 30.5t74 -30.5t31 -74.5q0 -43 -30.5 -73.5t-74.5 -30.5zM571 -18q-206 0 -331 152.5t-125 403.5q0 250 125.5 403.5t330.5 153.5q123 0 220 -61t143 -167h12v639h131v-1506h-126v215h-12q-48 -108 -146.5 -170.5
t-221.5 -62.5zM599 977q-160 0 -254.5 -119t-94.5 -319q0 -201 94.5 -319.5t254.5 -118.5q159 0 254 119t95 319q0 198 -95.5 318t-253.5 120z" />
    <glyph glyph-name="Ddotbelow" unicode="&#x1e0c;" horiz-adv-x="1471" 
d="M591 -364q-43 0 -74 31t-31 74t31 73.5t74 30.5t74 -30.5t31 -73.5t-31 -74t-74 -31zM185 1443h475q327 0 506 -191t179 -530q0 -340 -178.5 -531t-506.5 -191h-475v1443zM322 1319v-1195h330q263 0 408 158t145 439t-145 439.5t-408 158.5h-330z" />
    <glyph glyph-name="ddotbelow" unicode="&#x1e0d;" horiz-adv-x="1256" 
d="M648 -364q-44 0 -74.5 31t-30.5 74t31 73.5t74 30.5t74 -30.5t31 -73.5t-30.5 -74t-74.5 -31zM571 -18q-206 0 -331 152.5t-125 403.5q0 250 125.5 403.5t330.5 153.5q123 0 220 -61t143 -167h12v639h131v-1506h-126v215h-12q-48 -108 -146.5 -170.5t-221.5 -62.5z
M599 977q-160 0 -254.5 -119t-94.5 -319q0 -201 94.5 -319.5t254.5 -118.5q159 0 254 119t95 319q0 198 -95.5 318t-253.5 120z" />
    <glyph glyph-name="Dlinebelow" unicode="&#x1e0e;" horiz-adv-x="1471" 
d="M913 -309h-644v105h644v-105zM185 1443h475q327 0 506 -191t179 -530q0 -340 -178.5 -531t-506.5 -191h-475v1443zM322 1319v-1195h330q263 0 408 158t145 439t-145 439.5t-408 158.5h-330z" />
    <glyph glyph-name="dlinebelow" unicode="&#x1e0f;" horiz-adv-x="1256" 
d="M970 -309h-644v105h644v-105zM571 -18q-206 0 -331 152.5t-125 403.5q0 250 125.5 403.5t330.5 153.5q123 0 220 -61t143 -167h12v639h131v-1506h-126v215h-12q-48 -108 -146.5 -170.5t-221.5 -62.5zM599 977q-160 0 -254.5 -119t-94.5 -319q0 -201 94.5 -319.5
t254.5 -118.5q159 0 254 119t95 319q0 198 -95.5 318t-253.5 120z" />
    <glyph glyph-name="Dcommaaccent" unicode="&#x1e10;" horiz-adv-x="1471" 
d="M570 -506h-127l102 364h141zM185 1443h475q327 0 506 -191t179 -530q0 -340 -178.5 -531t-506.5 -191h-475v1443zM322 1319v-1195h330q263 0 408 158t145 439t-145 439.5t-408 158.5h-330z" />
    <glyph glyph-name="dcommaaccent" unicode="&#x1e11;" horiz-adv-x="1256" 
d="M627 -506h-127l102 364h141zM571 -18q-206 0 -331 152.5t-125 403.5q0 250 125.5 403.5t330.5 153.5q123 0 220 -61t143 -167h12v639h131v-1506h-126v215h-12q-48 -108 -146.5 -170.5t-221.5 -62.5zM599 977q-160 0 -254.5 -119t-94.5 -319q0 -201 94.5 -319.5
t254.5 -118.5q159 0 254 119t95 319q0 198 -95.5 318t-253.5 120z" />
    <glyph glyph-name="Dcircumflexbelow" unicode="&#x1e12;" horiz-adv-x="1471" 
d="M185 1443h475q327 0 506 -191t179 -530q0 -340 -178.5 -531t-506.5 -191h-475v1443zM322 1319v-1195h330q263 0 408 158t145 439t-145 439.5t-408 158.5h-330zM653 -143l289 -289h-155l-190 197h-12l-190 -197h-155l289 289h124z" />
    <glyph glyph-name="dcircumflexbelow" unicode="&#x1e13;" horiz-adv-x="1256" 
d="M571 -18q-206 0 -331 152.5t-125 403.5q0 250 125.5 403.5t330.5 153.5q123 0 220 -61t143 -167h12v639h131v-1506h-126v215h-12q-48 -108 -146.5 -170.5t-221.5 -62.5zM599 977q-160 0 -254.5 -119t-94.5 -319q0 -201 94.5 -319.5t254.5 -118.5q159 0 254 119t95 319
q0 198 -95.5 318t-253.5 120zM710 -143l289 -289h-155l-190 197h-12l-190 -197h-155l289 289h124z" />
    <glyph glyph-name="Emacrongrave" unicode="&#x1e14;" horiz-adv-x="1197" 
d="M943 1619h-644v101h644v-101zM706 1839h-149l-243 217h168zM1057 124v-124h-872v1443h872v-124h-735v-519h698v-122h-698v-554h735z" />
    <glyph glyph-name="emacrongrave" unicode="&#x1e15;" horiz-adv-x="1174" 
d="M595 979q-147 0 -241 -100.5t-103 -266.5h671q-2 167 -91.5 267t-235.5 100zM909 266h133q-40 -132 -158 -208t-287 -76q-222 0 -352 150.5t-130 405.5q0 254 130.5 405.5t350.5 151.5q215 0 339 -143t124 -390v-58h-809v-6q5 -183 99.5 -291t250.5 -108q114 0 194 43.5
t115 123.5zM692 1540h-147l-235 290h168zM928 1276h-662v106h662v-106z" />
    <glyph glyph-name="Emacronacute" unicode="&#x1e16;" horiz-adv-x="1197" 
d="M943 1618h-644v101h644v-101zM536 1838l224 217h168l-243 -217h-149zM1057 124v-124h-872v1443h872v-124h-735v-519h698v-122h-698v-554h735z" />
    <glyph glyph-name="emacronacute" unicode="&#x1e17;" horiz-adv-x="1174" 
d="M595 979q-147 0 -241 -100.5t-103 -266.5h671q-2 167 -91.5 267t-235.5 100zM909 266h133q-40 -132 -158 -208t-287 -76q-222 0 -352 150.5t-130 405.5q0 254 130.5 405.5t350.5 151.5q215 0 339 -143t124 -390v-58h-809v-6q5 -183 99.5 -291t250.5 -108q114 0 194 43.5
t115 123.5zM498 1540l214 290h167l-234 -290h-147zM928 1276h-662v106h662v-106z" />
    <glyph glyph-name="Ecircumflexbelow" unicode="&#x1e18;" horiz-adv-x="1197" 
d="M1057 124v-124h-872v1443h872v-124h-735v-519h698v-122h-698v-554h735zM683 -143l289 -289h-155l-190 197h-12l-190 -197h-155l289 289h124z" />
    <glyph glyph-name="ecircumflexbelow" unicode="&#x1e19;" horiz-adv-x="1174" 
d="M595 979q-147 0 -241 -100.5t-103 -266.5h671q-2 167 -91.5 267t-235.5 100zM909 266h133q-40 -132 -158 -208t-287 -76q-222 0 -352 150.5t-130 405.5q0 254 130.5 405.5t350.5 151.5q215 0 339 -143t124 -390v-58h-809v-6q5 -183 99.5 -291t250.5 -108q114 0 194 43.5
t115 123.5zM660 -143l289 -289h-155l-190 197h-12l-190 -197h-155l289 289h124z" />
    <glyph glyph-name="Etildebelow" unicode="&#x1e1a;" horiz-adv-x="1197" 
d="M766 -398q-43 0 -78.5 17t-59.5 41.5t-45.5 49t-48 41.5t-55.5 17q-97 0 -101 -154h-106q0 119 55.5 187t148.5 68q45 0 82.5 -17t62.5 -41.5t47 -48.5t46 -41t49 -17q43 0 71 37.5t31 115.5h105q0 -115 -56 -185t-148 -70zM1057 124v-124h-872v1443h872v-124h-735v-519
h698v-122h-698v-554h735z" />
    <glyph glyph-name="etildebelow" unicode="&#x1e1b;" horiz-adv-x="1174" 
d="M743 -398q-43 0 -78.5 17t-59.5 41.5t-45.5 49t-48 41.5t-55.5 17q-97 0 -101 -154h-106q0 119 55.5 187t148.5 68q45 0 82.5 -17t62.5 -41.5t47 -48.5t46 -41t49 -17q43 0 71 37.5t31 115.5h105q0 -115 -56 -185t-148 -70zM595 979q-147 0 -241 -100.5t-103 -266.5h671
q-2 167 -91.5 267t-235.5 100zM909 266h133q-40 -132 -158 -208t-287 -76q-222 0 -352 150.5t-130 405.5q0 254 130.5 405.5t350.5 151.5q215 0 339 -143t124 -390v-58h-809v-6q5 -183 99.5 -291t250.5 -108q114 0 194 43.5t115 123.5z" />
    <glyph glyph-name="Ecedillabreve" unicode="&#x1e1c;" horiz-adv-x="1197" 
d="M833 1851h118q0 -126 -89 -200t-241 -74t-241 74t-89 200h118q0 -81 57.5 -128.5t154.5 -47.5t154.5 47.5t57.5 128.5zM1057 1319h-735v-519h698v-122h-698v-554h735v-124h-371l-57 -142q100 0 156.5 -41.5t56.5 -118.5q0 -81 -63 -131.5t-168 -50.5q-78 0 -143 20v87
q50 -18 127 -18q60 0 96 24t36 66q0 81 -155 81h-56v67l64 157h-395v1443h872v-124z" />
    <glyph glyph-name="ecedillabreve" unicode="&#x1e1d;" horiz-adv-x="1174" 
d="M805 1538h119q0 -134 -88.5 -216t-241.5 -82t-241.5 82t-88.5 216h119q0 -90 55.5 -144t155.5 -54t155.5 54t55.5 144zM251 612h671q-2 167 -91.5 267t-235.5 100q-147 0 -241 -100.5t-103 -266.5zM1059 504h-809v-6q5 -183 99.5 -291t250.5 -108q114 0 194 43.5
t115 123.5h133q-36 -120 -137.5 -194t-247.5 -87l-51 -127q100 0 156.5 -41.5t56.5 -118.5q0 -81 -63 -131.5t-168 -50.5q-78 0 -143 20v87q50 -18 127 -18q60 0 96 24t36 66q0 81 -155 81h-56v67l57 141q-201 16 -318 164.5t-117 389.5q0 254 130.5 405.5t350.5 151.5
q215 0 339 -143t124 -390v-58z" />
    <glyph glyph-name="Fdotaccent" unicode="&#x1e1e;" horiz-adv-x="1155" 
d="M613 1577q-44 0 -74.5 30.5t-30.5 73.5t31 74t74 31t74 -31t31 -74t-30.5 -73.5t-74.5 -30.5zM322 0h-137v1443h856v-124h-719v-542h661v-122h-661v-655z" />
    <glyph glyph-name="fdotaccent" unicode="&#x1e1f;" horiz-adv-x="708" 
d="M424 1618q-44 0 -74.5 30.5t-30.5 73.5q0 44 30.5 74.5t74.5 30.5t74.5 -30.5t30.5 -74.5q0 -43 -30.5 -73.5t-74.5 -30.5zM241 0v966h-179v111h179v119q0 297 297 297q45 0 98 -10v-111q-37 9 -91 9q-84 0 -128.5 -47t-44.5 -141v-116h254v-111h-254v-966h-131z" />
    <glyph glyph-name="Gmacron" unicode="&#x1e20;" horiz-adv-x="1506" 
d="M1375 559q0 -268 -164 -428.5t-438 -160.5q-293 0 -469.5 205.5t-176.5 546.5q0 339 176 545t467 206q231 0 391.5 -123t199.5 -329h-139q-45 155 -163 240t-289 85q-229 0 -366 -170t-137 -454q0 -285 137.5 -455t368.5 -170q212 0 339 123.5t127 327.5v50h-440v121h576
v-160zM1092 1619h-644v105h644v-105z" />
    <glyph glyph-name="gmacron" unicode="&#x1e21;" horiz-adv-x="1242" 
d="M936 1292h-662v106h662v-106zM945 550q0 193 -95.5 310t-254.5 117q-160 0 -252.5 -115.5t-92.5 -309.5q0 -193 92.5 -308.5t252.5 -115.5q161 0 255.5 115t94.5 307zM606 -404q-184 0 -301 75.5t-138 202.5h139q18 -75 98 -119t202 -44q156 0 246.5 76t90.5 207v242h-13
q-48 -107 -142.5 -166t-218.5 -59q-207 0 -330.5 148.5t-123.5 392.5t124 393.5t330 149.5q123 0 223 -63t144 -168h12v213h126v-1093q0 -176 -128 -282t-340 -106z" />
    <glyph glyph-name="Hdotaccent" unicode="&#x1e22;" horiz-adv-x="1488" 
d="M1303 0h-137v677h-844v-677h-137v1443h137v-642h844v642h137v-1443zM744 1577q-44 0 -74.5 30.5t-30.5 73.5t30.5 74t74.5 31t74.5 -31t30.5 -74t-30.5 -73.5t-74.5 -30.5z" />
    <glyph glyph-name="hdotaccent" unicode="&#x1e23;" horiz-adv-x="1210" 
d="M179 0v1506h131v-623h12q44 101 135 156.5t219 55.5q174 0 274 -104.5t100 -290.5v-700h-131v667q0 152 -71.5 231t-206.5 79q-151 0 -241 -93.5t-90 -243.5v-640h-131zM244 1640q-44 0 -74.5 30.5t-30.5 73.5q0 44 30.5 74.5t74.5 30.5t74.5 -30.5t30.5 -74.5
q0 -43 -30.5 -73.5t-74.5 -30.5z" />
    <glyph glyph-name="Hdotbelow" unicode="&#x1e24;" horiz-adv-x="1488" 
d="M1303 0h-137v677h-844v-677h-137v1443h137v-642h844v642h137v-1443zM744 -364q-44 0 -74.5 31t-30.5 74t31 73.5t74 30.5t74 -30.5t31 -73.5t-30.5 -74t-74.5 -31z" />
    <glyph glyph-name="hdotbelow" unicode="&#x1e25;" horiz-adv-x="1210" 
d="M179 0v1506h131v-623h12q44 101 135 156.5t219 55.5q174 0 274 -104.5t100 -290.5v-700h-131v667q0 152 -71.5 231t-206.5 79q-151 0 -241 -93.5t-90 -243.5v-640h-131zM615 -364q-43 0 -74 31t-31 74t31 73.5t74 30.5t74 -30.5t31 -73.5t-31 -74t-74 -31z" />
    <glyph glyph-name="Hdieresis" unicode="&#x1e26;" horiz-adv-x="1488" 
d="M1303 0h-137v677h-844v-677h-137v1443h137v-642h844v642h137v-1443zM562 1568q-42 0 -72 29.5t-30 72.5t30 72.5t72 29.5q43 0 72.5 -29.5t29.5 -72.5t-29.5 -72.5t-72.5 -29.5zM926 1568q-42 0 -72 29.5t-30 72.5t30 72.5t72 29.5q43 0 72.5 -29.5t29.5 -72.5
t-29.5 -72.5t-72.5 -29.5z" />
    <glyph glyph-name="hdieresis" unicode="&#x1e27;" horiz-adv-x="1210" 
d="M179 0v1506h131v-623h12q44 101 135 156.5t219 55.5q174 0 274 -104.5t100 -290.5v-700h-131v667q0 152 -71.5 231t-206.5 79q-151 0 -241 -93.5t-90 -243.5v-640h-131zM62 1631q-42 0 -72 29.5t-30 72.5t30 72.5t72 29.5q43 0 72.5 -29.5t29.5 -72.5t-29.5 -72.5
t-72.5 -29.5zM426 1631q-42 0 -72 29.5t-30 72.5t30 72.5t72 29.5q43 0 72.5 -29.5t29.5 -72.5t-29.5 -72.5t-72.5 -29.5z" />
    <glyph glyph-name="Hcedilla" unicode="&#x1e28;" horiz-adv-x="1488" 
d="M185 1443h137v-642h844v642h137v-1443h-137v677h-844v-677l-57 -142q101 0 158 -41.5t57 -118.5q0 -81 -63.5 -131.5t-167.5 -50.5q-78 0 -143 20v87q50 -18 127 -18q60 0 96 24t36 66q0 81 -155 81h-56v67l64 157h-33v1443z" />
    <glyph glyph-name="hcedilla" unicode="&#x1e29;" horiz-adv-x="1210" 
d="M93 -464v87q50 -18 127 -18q61 0 96.5 24.5t35.5 65.5q0 81 -155 81h-56v67l64 157h-26v1506h131v-623h12q44 101 135 156.5t219 55.5q174 0 274 -104.5t100 -290.5v-700h-131v667q0 152 -71.5 231t-206.5 79q-151 0 -241 -93.5t-90 -243.5v-640l-57 -142
q101 0 157.5 -42t56.5 -118q0 -81 -63 -131.5t-168 -50.5q-81 0 -143 20z" />
    <glyph glyph-name="Hbrevebelow" unicode="&#x1e2a;" horiz-adv-x="1488" 
d="M414 -131h118q0 -81 57.5 -128.5t154.5 -47.5t154.5 47.5t57.5 128.5h118q0 -126 -89 -200t-241 -74t-241 74t-89 200zM1303 0h-137v677h-844v-677h-137v1443h137v-642h844v642h137v-1443z" />
    </font>
</defs>
</svg>
